<svg width="611" height="76" viewBox="0 0 611 76" fill="none" xmlns="http://www.w3.org/2000/svg">
<path d="M591.63 0.800049H599.57V2.27005H591.63V0.800049ZM594.83 1.69005H596.37V12.64H594.83V1.69005Z" fill="black"/>
<path d="M609.34 0.800049H610.79V12.64H609.29V3.52005L609.38 4.04004L606.5 11H605.42L602.53 4.25005L602.63 3.57005V12.69H601.12V0.800049H602.59L605.96 8.72005L609.34 0.800049Z" fill="black"/>
<path d="M45.2698 34.21V52.4C45.3661 56.5608 44.439 60.6815 42.5698 64.4C40.8533 67.7348 38.174 70.4768 34.8798 72.27C31.2714 74.1589 27.2416 75.0984 23.1698 75C19.0487 75.1004 14.9648 74.1979 11.2698 72.37C8.0023 70.7008 5.30217 68.1016 3.50983 64.9C1.61814 61.3862 0.677071 57.4393 0.77982 53.45V23.45C0.671434 19.2423 1.59136 15.0717 3.45981 11.3C5.16284 7.9528 7.83129 5.19378 11.1198 3.38001C14.7151 1.59464 18.6673 0.644816 22.6812 0.601525C26.6951 0.558234 30.6669 1.4226 34.2998 3.13001C37.458 4.83883 40.0137 7.47833 41.6198 10.69C43.5022 14.6533 44.5408 18.9643 44.6698 23.35H30.9998C30.9106 21.5217 30.4763 19.7268 29.7198 18.06C29.1384 16.7917 28.1912 15.7261 26.9998 15C25.7421 14.3099 24.3241 13.9649 22.8898 14C21.2853 13.967 19.702 14.3715 18.3098 15.17C16.9936 15.9572 15.9315 17.1062 15.2498 18.48C14.5014 20.0381 14.1346 21.752 14.1798 23.48V53.48C14.1424 54.9906 14.523 56.4821 15.2798 57.79C16.0233 59.038 17.1241 60.0343 18.4398 60.65C19.925 61.3449 21.5506 61.6871 23.1898 61.65C24.8349 61.6883 26.4637 61.3172 27.9298 60.57C29.2589 59.8788 30.3443 58.7969 31.0398 57.47C31.7924 55.9525 32.1598 54.2731 32.1098 52.58V46.82H23.6998V34.21H45.2698Z" fill="#3E3A39"/>
<path d="M68.1699 74.25H54.8899V1.39001H68.1699V74.25Z" fill="#3E3A39"/>
<path d="M123.29 34.21V52.4C123.386 56.5608 122.459 60.6815 120.59 64.4C118.872 67.7374 116.189 70.4799 112.89 72.27C109.284 74.1572 105.258 75.0967 101.19 75C97.0687 75.1004 92.9849 74.1979 89.2899 72.37C86.0224 70.7008 83.3222 68.1016 81.5299 64.9C79.6382 61.3862 78.6971 57.4393 78.7998 53.45V23.45C78.6915 19.2423 79.6114 15.0717 81.4799 11.3C83.1829 7.9528 85.8513 5.19378 89.1399 3.38001C92.7351 1.59464 96.6873 0.644816 100.701 0.601525C104.715 0.558234 108.687 1.4226 112.32 3.13001C115.478 4.83627 118.031 7.47675 119.63 10.69C121.52 14.6509 122.563 18.963 122.69 23.35H109.06C108.971 21.5217 108.536 19.7268 107.78 18.06C107.182 16.7834 106.213 15.7169 105 15C103.742 14.3099 102.324 13.9649 100.89 14C99.2853 13.967 97.702 14.3715 96.3098 15.17C94.9937 15.9572 93.9315 17.1062 93.2499 18.48C92.498 20.0373 92.1278 21.7512 92.1699 23.48V53.48C92.136 54.9915 92.5201 56.4829 93.2799 57.79C94.0197 59.0373 95.1171 60.0337 96.4298 60.65C97.9189 61.3436 99.5475 61.6858 101.19 61.65C102.835 61.6883 104.464 61.3172 105.93 60.57C107.259 59.8788 108.344 58.7969 109.04 57.47C109.792 55.9525 110.16 54.2731 110.11 52.58V46.82H101.7V34.21H123.29Z" fill="#3E3A39"/>
<path d="M149.15 1.39001H157.87L180.27 74.25H166.74L153.51 25.54L140.23 74.25H126.75L149.15 1.39001ZM139.28 50.39H168V62.81H139.28V50.39Z" fill="#3E3A39"/>
<path d="M187.43 1.38997H200.51V74.25H187.43V1.38997ZM194 61.82H210.88C212.814 61.9318 214.719 61.3145 216.22 60.09C216.876 59.4756 217.389 58.7245 217.723 57.8898C218.056 57.0551 218.202 56.1573 218.15 55.26V50.05C218.193 48.7155 217.89 47.3925 217.27 46.21C216.69 45.1637 215.809 44.3168 214.74 43.78C213.496 43.1757 212.123 42.884 210.74 42.93H194V30.55H210.63C211.527 30.6045 212.426 30.4795 213.274 30.1825C214.122 29.8854 214.903 29.4222 215.57 28.82C216.194 28.1534 216.674 27.3655 216.98 26.5053C217.287 25.645 217.412 24.7309 217.35 23.82V19.76C217.396 18.9362 217.26 18.1125 216.953 17.347C216.645 16.5814 216.173 15.8929 215.57 15.33C214.179 14.2036 212.416 13.6398 210.63 13.75H194V1.38997H211.48C214.987 1.28523 218.472 1.96868 221.68 3.38997C224.388 4.63674 226.634 6.70455 228.1 9.29997C229.621 12.1766 230.372 15.3975 230.28 18.65V22.76C230.319 25.044 229.829 27.3062 228.85 29.37C227.892 31.3099 226.427 32.9546 224.61 34.13C222.59 35.424 220.321 36.2791 217.95 36.64C220.494 36.9235 222.942 37.7781 225.11 39.14C227.072 40.39 228.65 42.1586 229.67 44.25C230.749 46.5366 231.283 49.0422 231.23 51.57V56.78C231.321 60.0643 230.57 63.3173 229.05 66.23C227.6 68.8668 225.343 70.9696 222.61 72.23C219.427 73.6415 215.97 74.3248 212.49 74.23H194V61.82Z" fill="#3E3A39"/>
<path d="M263.85 46.24V74.24H250.85V46.24L233.46 1.39001H247.09L257.31 32.11L267.38 1.39001H281L263.85 46.24Z" fill="#3E3A39"/>
<path d="M283.74 1.39001H328.34V14H283.74V1.39001ZM299.52 7.45001H312.6V74.25H299.52V7.45001Z" fill="#3E3A39"/>
<path d="M335.25 1.39001H348.25V74.25H335.25V1.39001ZM340.47 1.39001H375.47V14.07H340.47V1.39001ZM340.47 31.76H371.53V44.33H340.47V31.76ZM340.47 61.57H375.47V74.25H340.47V61.57Z" fill="#3E3A39"/>
<path d="M408.81 1.39H421.89V74.25H408.81V1.39ZM415.38 61.82H432.26C434.194 61.9328 436.099 61.3154 437.6 60.09C438.256 59.4757 438.769 58.7245 439.102 57.8898C439.436 57.0552 439.582 56.1573 439.53 55.26V50.05C439.573 48.7155 439.27 47.3925 438.65 46.21C438.07 45.1638 437.189 44.3168 436.12 43.78C434.875 43.1758 433.502 42.884 432.12 42.93H415.38V30.55H432C432.897 30.6045 433.796 30.4796 434.644 30.1825C435.492 29.8855 436.273 29.4223 436.94 28.82C437.564 28.1534 438.044 27.3655 438.35 26.5053C438.656 25.6451 438.782 24.731 438.72 23.82V19.76C438.766 18.9363 438.63 18.1125 438.323 17.347C438.015 16.5815 437.543 15.8929 436.94 15.33C435.549 14.2036 433.786 13.6398 432 13.75H415.38V1.39H432.87C436.373 1.28642 439.855 1.96986 443.06 3.39C445.767 4.63677 448.014 6.70458 449.48 9.3C451 12.1766 451.751 15.3975 451.66 18.65V22.76C451.699 25.0441 451.209 27.3062 450.23 29.37C449.276 31.3127 447.81 32.9585 445.99 34.13C443.97 35.424 441.701 36.2791 439.33 36.64C441.877 36.9248 444.328 37.7792 446.5 39.14C448.457 40.3934 450.031 42.1613 451.05 44.25C452.128 46.5367 452.662 49.0422 452.61 51.57V56.78C452.701 60.0643 451.95 63.3174 450.43 66.23C448.98 68.8668 446.723 70.9696 443.99 72.23C440.808 73.6425 437.35 74.3258 433.87 74.23H415.38V61.82Z" fill="#3E3A39"/>
<path d="M463 1.33995H475.93V74.25H463V1.33995ZM468.51 31.61H487.51C488.643 31.6373 489.763 31.3574 490.75 30.8C491.669 30.2602 492.407 29.4597 492.87 28.5C493.399 27.4071 493.66 26.2038 493.63 24.99V20.78C493.66 19.5114 493.4 18.2528 492.87 17.1C492.428 16.1118 491.695 15.2816 490.77 14.72C489.777 14.16 488.649 13.8833 487.51 13.92H468.51V1.33995H487.65C491.23 1.2506 494.776 2.04033 497.98 3.63995C500.827 5.1278 503.164 7.43329 504.69 10.2599C506.303 13.3837 507.098 16.8656 507 20.38V24.84C507.088 28.4007 506.276 31.9262 504.64 35.09C503.103 37.9435 500.749 40.273 497.88 41.78C494.701 43.4041 491.169 44.2117 487.6 44.13H468.49L468.51 31.61ZM481.14 41.88L494.14 39.57L509.57 74.25H494.65L481.14 41.88Z" fill="#3E3A39"/>
<path d="M531.48 74.25H518.2V1.39001H531.48V74.25Z" fill="#3E3A39"/>
<path d="M558.09 30.85L570.66 1.39001H584.66L564.42 42.39L550.42 74.21H536.42L558.09 30.85ZM558.34 44.93L556.43 40.93L537 1.39001H551L563 28.45L565.35 33.51L585.8 74.25H571.8L558.34 44.93Z" fill="#3E3A39"/>
<path d="M45.2698 34.21V52.4C45.3661 56.5608 44.439 60.6815 42.5698 64.4C40.8533 67.7348 38.174 70.4768 34.8798 72.27C31.2714 74.1589 27.2416 75.0984 23.1698 75C19.0487 75.1004 14.9648 74.1979 11.2698 72.37C8.0023 70.7008 5.30217 68.1016 3.50983 64.9C1.61814 61.3862 0.677071 57.4393 0.77982 53.45V23.45C0.671434 19.2423 1.59136 15.0717 3.45981 11.3C5.16284 7.9528 7.83129 5.19378 11.1198 3.38001C14.7151 1.59464 18.6673 0.644816 22.6812 0.601525C26.6951 0.558234 30.6669 1.4226 34.2998 3.13001C37.458 4.83883 40.0137 7.47833 41.6198 10.69C43.5022 14.6533 44.5408 18.9643 44.6698 23.35H30.9998C30.9106 21.5217 30.4763 19.7268 29.7198 18.06C29.1384 16.7917 28.1912 15.7261 26.9998 15C25.7421 14.3099 24.3241 13.9649 22.8898 14C21.2853 13.967 19.702 14.3715 18.3098 15.17C16.9936 15.9572 15.9315 17.1062 15.2498 18.48C14.5014 20.0381 14.1346 21.752 14.1798 23.48V53.48C14.1424 54.9906 14.523 56.4821 15.2798 57.79C16.0233 59.038 17.1241 60.0343 18.4398 60.65C19.925 61.3449 21.5506 61.6871 23.1898 61.65C24.8349 61.6883 26.4637 61.3172 27.9298 60.57C29.2589 59.8788 30.3443 58.7969 31.0398 57.47C31.7924 55.9525 32.1598 54.2731 32.1098 52.58V46.82H23.6998V34.21H45.2698Z" fill="url(#paint0_linear_1_2)"/>
<path d="M68.1699 74.25H54.8899V1.39001H68.1699V74.25Z" fill="url(#paint1_linear_1_2)"/>
<path d="M123.29 34.21V52.4C123.386 56.5608 122.459 60.6815 120.59 64.4C118.872 67.7374 116.189 70.4799 112.89 72.27C109.284 74.1572 105.258 75.0967 101.19 75C97.0687 75.1004 92.9849 74.1979 89.2899 72.37C86.0224 70.7008 83.3222 68.1016 81.5299 64.9C79.6382 61.3862 78.6971 57.4393 78.7998 53.45V23.45C78.6915 19.2423 79.6114 15.0717 81.4799 11.3C83.1829 7.9528 85.8513 5.19378 89.1399 3.38001C92.7351 1.59464 96.6873 0.644816 100.701 0.601525C104.715 0.558234 108.687 1.4226 112.32 3.13001C115.478 4.83627 118.031 7.47675 119.63 10.69C121.52 14.6509 122.563 18.963 122.69 23.35H109.06C108.971 21.5217 108.536 19.7268 107.78 18.06C107.182 16.7834 106.213 15.7169 105 15C103.742 14.3099 102.324 13.9649 100.89 14C99.2853 13.967 97.702 14.3715 96.3098 15.17C94.9937 15.9572 93.9315 17.1062 93.2499 18.48C92.498 20.0373 92.1278 21.7512 92.1699 23.48V53.48C92.136 54.9915 92.5201 56.4829 93.2799 57.79C94.0197 59.0373 95.1171 60.0337 96.4298 60.65C97.9189 61.3436 99.5475 61.6858 101.19 61.65C102.835 61.6883 104.464 61.3172 105.93 60.57C107.259 59.8788 108.344 58.7969 109.04 57.47C109.792 55.9525 110.16 54.2731 110.11 52.58V46.82H101.7V34.21H123.29Z" fill="url(#paint2_linear_1_2)"/>
<path d="M149.15 1.39001H157.87L180.27 74.25H166.74L153.51 25.54L140.23 74.25H126.75L149.15 1.39001ZM139.28 50.39H168V62.81H139.28V50.39Z" fill="url(#paint3_linear_1_2)"/>
<path d="M187.43 1.38997H200.51V74.25H187.43V1.38997ZM194 61.82H210.88C212.814 61.9318 214.719 61.3145 216.22 60.09C216.876 59.4756 217.389 58.7245 217.723 57.8898C218.056 57.0551 218.202 56.1573 218.15 55.26V50.05C218.193 48.7155 217.89 47.3925 217.27 46.21C216.69 45.1637 215.809 44.3168 214.74 43.78C213.496 43.1757 212.123 42.884 210.74 42.93H194V30.55H210.63C211.527 30.6045 212.426 30.4795 213.274 30.1825C214.122 29.8854 214.903 29.4222 215.57 28.82C216.194 28.1534 216.674 27.3655 216.98 26.5053C217.287 25.645 217.412 24.7309 217.35 23.82V19.76C217.396 18.9362 217.26 18.1125 216.953 17.347C216.645 16.5814 216.173 15.8929 215.57 15.33C214.179 14.2036 212.416 13.6398 210.63 13.75H194V1.38997H211.48C214.987 1.28523 218.472 1.96868 221.68 3.38997C224.388 4.63674 226.634 6.70455 228.1 9.29997C229.621 12.1766 230.372 15.3975 230.28 18.65V22.76C230.319 25.044 229.829 27.3062 228.85 29.37C227.892 31.3099 226.427 32.9546 224.61 34.13C222.59 35.424 220.321 36.2791 217.95 36.64C220.494 36.9235 222.942 37.7781 225.11 39.14C227.072 40.39 228.65 42.1586 229.67 44.25C230.749 46.5366 231.283 49.0422 231.23 51.57V56.78C231.321 60.0643 230.57 63.3173 229.05 66.23C227.6 68.8668 225.343 70.9696 222.61 72.23C219.427 73.6415 215.97 74.3248 212.49 74.23H194V61.82Z" fill="url(#paint4_linear_1_2)"/>
<path d="M263.85 46.24V74.24H250.85V46.24L233.46 1.39001H247.09L257.31 32.11L267.38 1.39001H281L263.85 46.24Z" fill="url(#paint5_linear_1_2)"/>
<path d="M283.74 1.39001H328.34V14H283.74V1.39001ZM299.52 7.45001H312.6V74.25H299.52V7.45001Z" fill="url(#paint6_linear_1_2)"/>
<path d="M335.25 1.39001H348.25V74.25H335.25V1.39001ZM340.47 1.39001H375.47V14.07H340.47V1.39001ZM340.47 31.76H371.53V44.33H340.47V31.76ZM340.47 61.57H375.47V74.25H340.47V61.57Z" fill="url(#paint7_linear_1_2)"/>
<path d="M408.81 1.39H421.89V74.25H408.81V1.39ZM415.38 61.82H432.26C434.194 61.9328 436.099 61.3154 437.6 60.09C438.256 59.4757 438.769 58.7245 439.102 57.8898C439.436 57.0552 439.582 56.1573 439.53 55.26V50.05C439.573 48.7155 439.27 47.3925 438.65 46.21C438.07 45.1638 437.189 44.3168 436.12 43.78C434.875 43.1758 433.502 42.884 432.12 42.93H415.38V30.55H432C432.897 30.6045 433.796 30.4796 434.644 30.1825C435.492 29.8855 436.273 29.4223 436.94 28.82C437.564 28.1534 438.044 27.3655 438.35 26.5053C438.656 25.6451 438.782 24.731 438.72 23.82V19.76C438.766 18.9363 438.63 18.1125 438.323 17.347C438.015 16.5815 437.543 15.8929 436.94 15.33C435.549 14.2036 433.786 13.6398 432 13.75H415.38V1.39H432.87C436.373 1.28642 439.855 1.96986 443.06 3.39C445.767 4.63677 448.014 6.70458 449.48 9.3C451 12.1766 451.751 15.3975 451.66 18.65V22.76C451.699 25.0441 451.209 27.3062 450.23 29.37C449.276 31.3127 447.81 32.9585 445.99 34.13C443.97 35.424 441.701 36.2791 439.33 36.64C441.877 36.9248 444.328 37.7792 446.5 39.14C448.457 40.3934 450.031 42.1613 451.05 44.25C452.128 46.5367 452.662 49.0422 452.61 51.57V56.78C452.701 60.0643 451.95 63.3174 450.43 66.23C448.98 68.8668 446.723 70.9696 443.99 72.23C440.808 73.6425 437.35 74.3258 433.87 74.23H415.38V61.82Z" fill="url(#paint8_linear_1_2)"/>
<path d="M463 1.33995H475.93V74.25H463V1.33995ZM468.51 31.61H487.51C488.643 31.6373 489.763 31.3574 490.75 30.8C491.669 30.2602 492.407 29.4597 492.87 28.5C493.399 27.4071 493.66 26.2038 493.63 24.99V20.78C493.66 19.5114 493.4 18.2528 492.87 17.1C492.428 16.1118 491.695 15.2816 490.77 14.72C489.777 14.16 488.649 13.8833 487.51 13.92H468.51V1.33995H487.65C491.23 1.2506 494.776 2.04033 497.98 3.63995C500.827 5.1278 503.164 7.43329 504.69 10.2599C506.303 13.3837 507.098 16.8656 507 20.38V24.84C507.088 28.4007 506.276 31.9262 504.64 35.09C503.103 37.9435 500.749 40.273 497.88 41.78C494.701 43.4041 491.169 44.2117 487.6 44.13H468.49L468.51 31.61ZM481.14 41.88L494.14 39.57L509.57 74.25H494.65L481.14 41.88Z" fill="url(#paint9_linear_1_2)"/>
<path d="M531.48 74.25H518.2V1.39001H531.48V74.25Z" fill="url(#paint10_linear_1_2)"/>
<path d="M558.09 30.85L570.66 1.39001H584.66L564.42 42.39L550.42 74.21H536.42L558.09 30.85ZM558.34 44.93L556.43 40.93L537 1.39001H551L563 28.45L565.35 33.51L585.8 74.25H571.8L558.34 44.93Z" fill="url(#paint11_linear_1_2)"/>
<defs>
<linearGradient id="paint0_linear_1_2" x1="293.26" y1="61.14" x2="293.26" y2="17.84" gradientUnits="userSpaceOnUse">
<stop/>
<stop offset="0.12" stop-color="#030303"/>
<stop offset="0.23" stop-color="#0D0D0D"/>
<stop offset="0.32" stop-color="#1E1E1E"/>
<stop offset="0.41" stop-color="#363636"/>
<stop offset="0.49" stop-color="#555555"/>
<stop offset="0.57" stop-color="#7B7B7B"/>
<stop offset="0.65" stop-color="#A7A7A7"/>
<stop offset="0.67" stop-color="#B3B3B3"/>
<stop offset="0.79" stop-color="#878685"/>
<stop offset="1" stop-color="#3E3A39"/>
</linearGradient>
<linearGradient id="paint1_linear_1_2" x1="293.26" y1="61.14" x2="293.26" y2="17.84" gradientUnits="userSpaceOnUse">
<stop/>
<stop offset="0.12" stop-color="#030303"/>
<stop offset="0.23" stop-color="#0D0D0D"/>
<stop offset="0.32" stop-color="#1E1E1E"/>
<stop offset="0.41" stop-color="#363636"/>
<stop offset="0.49" stop-color="#555555"/>
<stop offset="0.57" stop-color="#7B7B7B"/>
<stop offset="0.65" stop-color="#A7A7A7"/>
<stop offset="0.67" stop-color="#B3B3B3"/>
<stop offset="0.79" stop-color="#878685"/>
<stop offset="1" stop-color="#3E3A39"/>
</linearGradient>
<linearGradient id="paint2_linear_1_2" x1="293.26" y1="61.14" x2="293.26" y2="17.84" gradientUnits="userSpaceOnUse">
<stop/>
<stop offset="0.12" stop-color="#030303"/>
<stop offset="0.23" stop-color="#0D0D0D"/>
<stop offset="0.32" stop-color="#1E1E1E"/>
<stop offset="0.41" stop-color="#363636"/>
<stop offset="0.49" stop-color="#555555"/>
<stop offset="0.57" stop-color="#7B7B7B"/>
<stop offset="0.65" stop-color="#A7A7A7"/>
<stop offset="0.67" stop-color="#B3B3B3"/>
<stop offset="0.79" stop-color="#878685"/>
<stop offset="1" stop-color="#3E3A39"/>
</linearGradient>
<linearGradient id="paint3_linear_1_2" x1="293.26" y1="61.14" x2="293.26" y2="17.84" gradientUnits="userSpaceOnUse">
<stop/>
<stop offset="0.12" stop-color="#030303"/>
<stop offset="0.23" stop-color="#0D0D0D"/>
<stop offset="0.32" stop-color="#1E1E1E"/>
<stop offset="0.41" stop-color="#363636"/>
<stop offset="0.49" stop-color="#555555"/>
<stop offset="0.57" stop-color="#7B7B7B"/>
<stop offset="0.65" stop-color="#A7A7A7"/>
<stop offset="0.67" stop-color="#B3B3B3"/>
<stop offset="0.79" stop-color="#878685"/>
<stop offset="1" stop-color="#3E3A39"/>
</linearGradient>
<linearGradient id="paint4_linear_1_2" x1="293.26" y1="61.14" x2="293.26" y2="17.84" gradientUnits="userSpaceOnUse">
<stop/>
<stop offset="0.12" stop-color="#030303"/>
<stop offset="0.23" stop-color="#0D0D0D"/>
<stop offset="0.32" stop-color="#1E1E1E"/>
<stop offset="0.41" stop-color="#363636"/>
<stop offset="0.49" stop-color="#555555"/>
<stop offset="0.57" stop-color="#7B7B7B"/>
<stop offset="0.65" stop-color="#A7A7A7"/>
<stop offset="0.67" stop-color="#B3B3B3"/>
<stop offset="0.79" stop-color="#878685"/>
<stop offset="1" stop-color="#3E3A39"/>
</linearGradient>
<linearGradient id="paint5_linear_1_2" x1="293.26" y1="61.14" x2="293.26" y2="17.84" gradientUnits="userSpaceOnUse">
<stop/>
<stop offset="0.12" stop-color="#030303"/>
<stop offset="0.23" stop-color="#0D0D0D"/>
<stop offset="0.32" stop-color="#1E1E1E"/>
<stop offset="0.41" stop-color="#363636"/>
<stop offset="0.49" stop-color="#555555"/>
<stop offset="0.57" stop-color="#7B7B7B"/>
<stop offset="0.65" stop-color="#A7A7A7"/>
<stop offset="0.67" stop-color="#B3B3B3"/>
<stop offset="0.79" stop-color="#878685"/>
<stop offset="1" stop-color="#3E3A39"/>
</linearGradient>
<linearGradient id="paint6_linear_1_2" x1="293.26" y1="61.14" x2="293.26" y2="17.84" gradientUnits="userSpaceOnUse">
<stop/>
<stop offset="0.12" stop-color="#030303"/>
<stop offset="0.23" stop-color="#0D0D0D"/>
<stop offset="0.32" stop-color="#1E1E1E"/>
<stop offset="0.41" stop-color="#363636"/>
<stop offset="0.49" stop-color="#555555"/>
<stop offset="0.57" stop-color="#7B7B7B"/>
<stop offset="0.65" stop-color="#A7A7A7"/>
<stop offset="0.67" stop-color="#B3B3B3"/>
<stop offset="0.79" stop-color="#878685"/>
<stop offset="1" stop-color="#3E3A39"/>
</linearGradient>
<linearGradient id="paint7_linear_1_2" x1="293.26" y1="61.14" x2="293.26" y2="17.84" gradientUnits="userSpaceOnUse">
<stop/>
<stop offset="0.12" stop-color="#030303"/>
<stop offset="0.23" stop-color="#0D0D0D"/>
<stop offset="0.32" stop-color="#1E1E1E"/>
<stop offset="0.41" stop-color="#363636"/>
<stop offset="0.49" stop-color="#555555"/>
<stop offset="0.57" stop-color="#7B7B7B"/>
<stop offset="0.65" stop-color="#A7A7A7"/>
<stop offset="0.67" stop-color="#B3B3B3"/>
<stop offset="0.79" stop-color="#878685"/>
<stop offset="1" stop-color="#3E3A39"/>
</linearGradient>
<linearGradient id="paint8_linear_1_2" x1="293.26" y1="61.14" x2="293.26" y2="17.84" gradientUnits="userSpaceOnUse">
<stop/>
<stop offset="0.12" stop-color="#030303"/>
<stop offset="0.23" stop-color="#0D0D0D"/>
<stop offset="0.32" stop-color="#1E1E1E"/>
<stop offset="0.41" stop-color="#363636"/>
<stop offset="0.49" stop-color="#555555"/>
<stop offset="0.57" stop-color="#7B7B7B"/>
<stop offset="0.65" stop-color="#A7A7A7"/>
<stop offset="0.67" stop-color="#B3B3B3"/>
<stop offset="0.79" stop-color="#878685"/>
<stop offset="1" stop-color="#3E3A39"/>
</linearGradient>
<linearGradient id="paint9_linear_1_2" x1="293.26" y1="61.14" x2="293.26" y2="17.84" gradientUnits="userSpaceOnUse">
<stop/>
<stop offset="0.12" stop-color="#030303"/>
<stop offset="0.23" stop-color="#0D0D0D"/>
<stop offset="0.32" stop-color="#1E1E1E"/>
<stop offset="0.41" stop-color="#363636"/>
<stop offset="0.49" stop-color="#555555"/>
<stop offset="0.57" stop-color="#7B7B7B"/>
<stop offset="0.65" stop-color="#A7A7A7"/>
<stop offset="0.67" stop-color="#B3B3B3"/>
<stop offset="0.79" stop-color="#878685"/>
<stop offset="1" stop-color="#3E3A39"/>
</linearGradient>
<linearGradient id="paint10_linear_1_2" x1="293.26" y1="61.14" x2="293.26" y2="17.84" gradientUnits="userSpaceOnUse">
<stop/>
<stop offset="0.12" stop-color="#030303"/>
<stop offset="0.23" stop-color="#0D0D0D"/>
<stop offset="0.32" stop-color="#1E1E1E"/>
<stop offset="0.41" stop-color="#363636"/>
<stop offset="0.49" stop-color="#555555"/>
<stop offset="0.57" stop-color="#7B7B7B"/>
<stop offset="0.65" stop-color="#A7A7A7"/>
<stop offset="0.67" stop-color="#B3B3B3"/>
<stop offset="0.79" stop-color="#878685"/>
<stop offset="1" stop-color="#3E3A39"/>
</linearGradient>
<linearGradient id="paint11_linear_1_2" x1="293.26" y1="61.14" x2="293.26" y2="17.84" gradientUnits="userSpaceOnUse">
<stop/>
<stop offset="0.12" stop-color="#030303"/>
<stop offset="0.23" stop-color="#0D0D0D"/>
<stop offset="0.32" stop-color="#1E1E1E"/>
<stop offset="0.41" stop-color="#363636"/>
<stop offset="0.49" stop-color="#555555"/>
<stop offset="0.57" stop-color="#7B7B7B"/>
<stop offset="0.65" stop-color="#A7A7A7"/>
<stop offset="0.67" stop-color="#B3B3B3"/>
<stop offset="0.79" stop-color="#878685"/>
<stop offset="1" stop-color="#3E3A39"/>
</linearGradient>
</defs>
</svg>
