<svg width="477" height="62" viewBox="0 0 477 62" fill="none" xmlns="http://www.w3.org/2000/svg">
<path d="M181.237 7.83795H183.253C183.605 7.83795 183.781 7.99795 183.781 8.31795V19.3579C183.781 20.6059 183.429 21.5739 182.725 22.2619C182.037 22.9339 181.069 23.2699 179.821 23.2699H177.181C175.917 23.2699 174.941 22.9339 174.253 22.2619C173.565 21.5899 173.221 20.6219 173.221 19.3579V8.34195C173.221 8.00595 173.389 7.83795 173.725 7.83795H175.765C176.101 7.83795 176.269 8.00595 176.269 8.34195V19.2139C176.269 19.7259 176.373 20.0939 176.581 20.3179C176.805 20.5259 177.165 20.6299 177.661 20.6299H179.317C179.829 20.6299 180.189 20.5259 180.397 20.3179C180.621 20.0939 180.733 19.7259 180.733 19.2139V8.34195C180.733 8.00595 180.901 7.83795 181.237 7.83795ZM186.387 19.3339V18.8539C186.387 18.5179 186.555 18.3499 186.891 18.3499H188.931C189.267 18.3499 189.435 18.5179 189.435 18.8539V19.0459C189.435 19.6539 189.555 20.0699 189.795 20.2939C190.035 20.5179 190.475 20.6299 191.115 20.6299H192.243C192.867 20.6299 193.299 20.5099 193.539 20.2699C193.795 20.0299 193.923 19.5819 193.923 18.9259V18.6379C193.923 18.1739 193.731 17.8219 193.347 17.5819C192.979 17.3259 192.515 17.1739 191.955 17.1259C191.395 17.0779 190.787 16.9899 190.131 16.8619C189.491 16.7179 188.891 16.5419 188.331 16.3339C187.771 16.1099 187.299 15.6859 186.915 15.0619C186.547 14.4219 186.363 13.6059 186.363 12.6139V11.7739C186.363 10.5259 186.715 9.55795 187.419 8.86995C188.123 8.18195 189.099 7.83795 190.347 7.83795H192.747C194.011 7.83795 194.995 8.18195 195.699 8.86995C196.403 9.55795 196.755 10.5259 196.755 11.7739V12.2299C196.755 12.5659 196.587 12.7339 196.251 12.7339H194.211C193.875 12.7339 193.707 12.5659 193.707 12.2299V12.0859C193.707 11.4619 193.587 11.0379 193.347 10.8139C193.107 10.5899 192.667 10.4779 192.027 10.4779H191.091C190.435 10.4779 189.987 10.6059 189.747 10.8619C189.523 11.1019 189.411 11.5819 189.411 12.3019V12.7579C189.411 13.5099 190.067 13.9419 191.379 14.0539C192.739 14.1659 193.947 14.4379 195.003 14.8699C195.563 15.1099 196.027 15.5419 196.395 16.1659C196.779 16.7739 196.971 17.5579 196.971 18.5179V19.3339C196.971 20.5819 196.619 21.5499 195.915 22.2379C195.211 22.9259 194.235 23.2699 192.987 23.2699H190.371C189.123 23.2699 188.147 22.9259 187.443 22.2379C186.739 21.5499 186.387 20.5819 186.387 19.3339ZM203.02 20.7259H205.708C206.236 20.7259 206.612 20.6219 206.836 20.4139C207.076 20.1899 207.196 19.8299 207.196 19.3339V17.9419C207.196 17.4459 207.076 17.0939 206.836 16.8859C206.596 16.6779 206.204 16.5739 205.66 16.5739H203.02C202.844 16.5739 202.756 16.6619 202.756 16.8379V20.4619C202.756 20.6379 202.844 20.7259 203.02 20.7259ZM203.02 14.1019H205.468C205.98 14.1019 206.356 13.9979 206.596 13.7899C206.836 13.5659 206.956 13.2059 206.956 12.7099V11.7739C206.956 11.2779 206.836 10.9259 206.596 10.7179C206.372 10.4939 206.004 10.3819 205.492 10.3819H203.02C202.844 10.3819 202.756 10.4699 202.756 10.6459V13.8379C202.756 14.0139 202.844 14.1019 203.02 14.1019ZM199.708 22.7659V8.34195C199.708 8.00595 199.876 7.83795 200.212 7.83795H205.972C207.236 7.83795 208.212 8.17395 208.9 8.84595C209.588 9.51795 209.932 10.4779 209.932 11.7259V12.7099C209.932 14.0699 209.3 14.9499 208.036 15.3499C208.676 15.4459 209.188 15.7099 209.572 16.1419C209.956 16.5579 210.148 17.1579 210.148 17.9419V19.3819C210.148 20.6299 209.804 21.5899 209.116 22.2619C208.428 22.9339 207.46 23.2699 206.212 23.2699H200.212C199.876 23.2699 199.708 23.1019 199.708 22.7659ZM221.99 14.2939H223.214C223.742 14.2939 224.118 14.1899 224.342 13.9819C224.582 13.7579 224.702 13.3979 224.702 12.9019V11.7739C224.702 11.2779 224.582 10.9259 224.342 10.7179C224.118 10.4939 223.742 10.3819 223.214 10.3819H222.062C221.55 10.3819 221.19 10.4939 220.982 10.7179C220.774 10.9259 220.67 11.2779 220.67 11.7739V12.3739C220.67 12.7099 220.502 12.8779 220.166 12.8779H218.126C217.79 12.8779 217.622 12.7099 217.622 12.3739V11.7259C217.622 10.4779 217.966 9.51795 218.654 8.84595C219.342 8.17395 220.318 7.83795 221.582 7.83795H223.718C224.982 7.83795 225.958 8.17395 226.646 8.84595C227.334 9.51795 227.678 10.4779 227.678 11.7259V12.9259C227.678 14.2699 227.046 15.1419 225.782 15.5419C227.046 15.8139 227.678 16.6859 227.678 18.1579V19.3819C227.678 20.6299 227.334 21.5899 226.646 22.2619C225.958 22.9339 224.982 23.2699 223.718 23.2699H221.582C220.318 23.2699 219.342 22.9339 218.654 22.2619C217.966 21.5899 217.622 20.6299 217.622 19.3819V18.7099C217.622 18.3579 217.79 18.1819 218.126 18.1819H220.166C220.502 18.1819 220.67 18.3579 220.67 18.7099V19.3339C220.67 19.8459 220.774 20.2059 220.982 20.4139C221.19 20.6219 221.55 20.7259 222.062 20.7259H223.214C223.742 20.7259 224.118 20.6219 224.342 20.4139C224.582 20.1899 224.702 19.8299 224.702 19.3339V18.1579C224.702 17.6619 224.582 17.3099 224.342 17.1019C224.118 16.8779 223.742 16.7659 223.214 16.7659H221.99C221.654 16.7659 221.486 16.5979 221.486 16.2619V14.8219C221.486 14.4699 221.654 14.2939 221.99 14.2939ZM232.929 19.8139V22.7659C232.929 23.1019 232.777 23.2699 232.473 23.2699H230.337C230.017 23.2699 229.857 23.1019 229.857 22.7659V19.8379C229.857 19.5179 230.017 19.3579 230.337 19.3579H232.473C232.777 19.3579 232.929 19.5099 232.929 19.8139ZM234.972 22.7659V20.4859C234.972 19.5739 235.364 18.7979 236.148 18.1579L240.564 14.4139C241.284 13.8219 241.644 13.1819 241.644 12.4939V11.7739C241.644 11.2779 241.524 10.9259 241.284 10.7179C241.06 10.4939 240.684 10.3819 240.156 10.3819H239.316C238.804 10.3819 238.444 10.4939 238.236 10.7179C238.028 10.9259 237.924 11.2779 237.924 11.7739V12.5419C237.924 12.8939 237.756 13.0699 237.42 13.0699H235.38C235.044 13.0699 234.876 12.8939 234.876 12.5419V11.7259C234.876 10.4779 235.22 9.51795 235.908 8.84595C236.596 8.17395 237.572 7.83795 238.836 7.83795H240.66C241.924 7.83795 242.9 8.17395 243.588 8.84595C244.276 9.51795 244.62 10.4779 244.62 11.7259V12.6859C244.62 13.9339 244.14 14.9659 243.18 15.7819L238.668 19.6219C238.476 19.7979 238.38 19.9899 238.38 20.1979V20.5819H244.116C244.452 20.5819 244.62 20.7499 244.62 21.0859V22.7659C244.62 23.1019 244.452 23.2699 244.116 23.2699H235.476C235.14 23.2699 234.972 23.1019 234.972 22.7659ZM258.777 23.2699H256.233C254.969 23.2699 253.993 22.9339 253.305 22.2619C252.617 21.5899 252.273 20.6219 252.273 19.3579V11.7499C252.273 10.4859 252.617 9.51795 253.305 8.84595C253.993 8.17395 254.969 7.83795 256.233 7.83795H258.777C260.025 7.83795 260.993 8.18195 261.681 8.86995C262.369 9.54195 262.713 10.5019 262.713 11.7499V12.4699C262.713 12.8219 262.545 12.9979 262.209 12.9979H260.169C259.833 12.9979 259.665 12.8219 259.665 12.4699V11.8939C259.665 11.3819 259.561 11.0219 259.353 10.8139C259.145 10.5899 258.785 10.4779 258.273 10.4779H256.713C256.217 10.4779 255.857 10.5899 255.633 10.8139C255.425 11.0219 255.321 11.3819 255.321 11.8939V19.2139C255.321 19.7259 255.425 20.0939 255.633 20.3179C255.857 20.5259 256.217 20.6299 256.713 20.6299H258.273C258.785 20.6299 259.145 20.5259 259.353 20.3179C259.561 20.0939 259.665 19.7259 259.665 19.2139V17.7019C259.665 17.5259 259.577 17.4379 259.401 17.4379H257.961C257.625 17.4379 257.457 17.2699 257.457 16.9339V15.3019C257.457 14.9659 257.625 14.7979 257.961 14.7979H262.161C262.529 14.7979 262.713 14.9819 262.713 15.3499V19.3579C262.713 20.6059 262.369 21.5739 261.681 22.2619C260.993 22.9339 260.025 23.2699 258.777 23.2699ZM274.375 23.2699H269.071C267.807 23.2699 266.831 22.9339 266.143 22.2619C265.455 21.5899 265.111 20.6219 265.111 19.3579V14.9419C265.111 13.6779 265.455 12.7099 266.143 12.0379C266.831 11.3659 267.807 11.0299 269.071 11.0299H270.967C272.231 11.0299 273.207 11.3659 273.895 12.0379C274.583 12.7099 274.927 13.6779 274.927 14.9419V17.9899C274.927 18.3259 274.759 18.4939 274.423 18.4939H268.399C268.207 18.4939 268.111 18.5819 268.111 18.7579V19.2859C268.111 19.7819 268.215 20.1419 268.423 20.3659C268.647 20.5739 269.015 20.6779 269.527 20.6779H274.375C274.711 20.6779 274.879 20.8539 274.879 21.2059V22.7899C274.879 22.9659 274.839 23.0939 274.759 23.1739C274.695 23.2379 274.567 23.2699 274.375 23.2699ZM268.399 16.4539H271.663C271.839 16.4539 271.927 16.3659 271.927 16.1899V15.0379C271.927 14.5259 271.823 14.1659 271.615 13.9579C271.407 13.7499 271.047 13.6459 270.535 13.6459H269.527C269.015 13.6459 268.655 13.7499 268.447 13.9579C268.239 14.1659 268.135 14.5259 268.135 15.0379V16.1899C268.135 16.3659 268.223 16.4539 268.399 16.4539ZM279.754 23.2699H277.714C277.378 23.2699 277.21 23.1019 277.21 22.7659V11.5339C277.21 11.1979 277.378 11.0299 277.714 11.0299H279.754C280.09 11.0299 280.258 11.1979 280.258 11.5339V12.3259H280.354C280.706 11.4619 281.49 11.0299 282.706 11.0299H283.474C285.986 11.0299 287.242 12.3339 287.242 14.9419V22.7659C287.242 23.1019 287.066 23.2699 286.714 23.2699H284.698C284.362 23.2699 284.194 23.1019 284.194 22.7659V15.0859C284.194 14.5739 284.082 14.2139 283.858 14.0059C283.65 13.7819 283.29 13.6699 282.778 13.6699H281.914C280.81 13.6699 280.258 14.2779 280.258 15.4939V22.7659C280.258 23.1019 280.09 23.2699 279.754 23.2699ZM294.854 22.7659V20.4859C294.854 19.5739 295.246 18.7979 296.03 18.1579L300.446 14.4139C301.166 13.8219 301.526 13.1819 301.526 12.4939V11.7739C301.526 11.2779 301.406 10.9259 301.166 10.7179C300.942 10.4939 300.566 10.3819 300.038 10.3819H299.198C298.686 10.3819 298.326 10.4939 298.118 10.7179C297.91 10.9259 297.806 11.2779 297.806 11.7739V12.5419C297.806 12.8939 297.638 13.0699 297.302 13.0699H295.262C294.926 13.0699 294.758 12.8939 294.758 12.5419V11.7259C294.758 10.4779 295.102 9.51795 295.79 8.84595C296.478 8.17395 297.454 7.83795 298.718 7.83795H300.542C301.806 7.83795 302.782 8.17395 303.47 8.84595C304.158 9.51795 304.502 10.4779 304.502 11.7259V12.6859C304.502 13.9339 304.022 14.9659 303.062 15.7819L298.55 19.6219C298.358 19.7979 298.262 19.9899 298.262 20.1979V20.5819H303.998C304.334 20.5819 304.502 20.7499 304.502 21.0859V22.7659C304.502 23.1019 304.334 23.2699 303.998 23.2699H295.358C295.022 23.2699 294.854 23.1019 294.854 22.7659ZM316.428 9.97395H316.356C314.996 9.97395 314.316 10.9019 314.316 12.7579V20.7979C314.316 22.6539 315.012 23.5819 316.404 23.5819H316.428C316.604 23.5819 316.724 23.6139 316.788 23.6779C316.852 23.7419 316.884 23.8539 316.884 24.0139V25.3579C316.884 25.5019 316.852 25.5979 316.788 25.6459C316.74 25.6939 316.62 25.7179 316.428 25.7179H316.356C314.948 25.7179 313.844 25.2859 313.044 24.4219C312.26 23.5739 311.868 22.2379 311.868 20.4139V13.1419C311.868 11.3179 312.268 9.98195 313.068 9.13395C313.868 8.26995 314.972 7.83795 316.38 7.83795H316.452C316.628 7.83795 316.74 7.86195 316.788 7.90995C316.852 7.95795 316.884 8.05395 316.884 8.19795V9.54195C316.884 9.70195 316.852 9.81395 316.788 9.87795C316.724 9.94195 316.604 9.97395 316.428 9.97395ZM318.724 12.1339V10.1659C318.724 9.89395 318.844 9.68595 319.084 9.54195L321.268 8.17395C321.636 7.94995 321.948 7.83795 322.204 7.83795H324.124C324.46 7.83795 324.628 8.00595 324.628 8.34195V22.7659C324.628 22.9579 324.588 23.0939 324.508 23.1739C324.444 23.2379 324.324 23.2699 324.148 23.2699H322.084C321.748 23.2699 321.58 23.1019 321.58 22.7659V11.0779L319.228 12.4219C318.892 12.5659 318.724 12.4699 318.724 12.1339ZM331.923 20.6299H333.339C333.851 20.6299 334.211 20.5259 334.419 20.3179C334.627 20.0939 334.731 19.7259 334.731 19.2139V11.8939C334.731 11.3819 334.627 11.0219 334.419 10.8139C334.211 10.5899 333.851 10.4779 333.339 10.4779H331.923C331.411 10.4779 331.051 10.5899 330.843 10.8139C330.635 11.0219 330.531 11.3819 330.531 11.8939V19.2139C330.531 19.7259 330.635 20.0939 330.843 20.3179C331.051 20.5259 331.411 20.6299 331.923 20.6299ZM333.819 23.2699H331.419C330.155 23.2699 329.179 22.9339 328.491 22.2619C327.803 21.5899 327.459 20.6219 327.459 19.3579V11.7499C327.459 10.4859 327.803 9.51795 328.491 8.84595C329.179 8.17395 330.155 7.83795 331.419 7.83795H333.819C335.067 7.83795 336.035 8.18195 336.723 8.86995C337.411 9.54195 337.755 10.5019 337.755 11.7499V19.3579C337.755 20.6059 337.411 21.5739 336.723 22.2619C336.035 22.9339 335.067 23.2699 333.819 23.2699ZM346.878 23.2699H344.334C343.07 23.2699 342.094 22.9339 341.406 22.2619C340.718 21.5899 340.374 20.6219 340.374 19.3579V11.7499C340.374 10.4859 340.718 9.51795 341.406 8.84595C342.094 8.17395 343.07 7.83795 344.334 7.83795H346.878C348.126 7.83795 349.094 8.18195 349.782 8.86995C350.47 9.54195 350.814 10.5019 350.814 11.7499V12.4699C350.814 12.8219 350.646 12.9979 350.31 12.9979H348.27C347.934 12.9979 347.766 12.8219 347.766 12.4699V11.8939C347.766 11.3819 347.662 11.0219 347.454 10.8139C347.246 10.5899 346.886 10.4779 346.374 10.4779H344.814C344.318 10.4779 343.958 10.5899 343.734 10.8139C343.526 11.0219 343.422 11.3819 343.422 11.8939V19.2139C343.422 19.7259 343.526 20.0939 343.734 20.3179C343.958 20.5259 344.318 20.6299 344.814 20.6299H346.374C346.886 20.6299 347.246 20.5259 347.454 20.3179C347.662 20.0939 347.766 19.7259 347.766 19.2139V17.7019C347.766 17.5259 347.678 17.4379 347.502 17.4379H346.062C345.726 17.4379 345.558 17.2699 345.558 16.9339V15.3019C345.558 14.9659 345.726 14.7979 346.062 14.7979H350.262C350.63 14.7979 350.814 14.9819 350.814 15.3499V19.3579C350.814 20.6059 350.47 21.5739 349.782 22.2619C349.094 22.9339 348.126 23.2699 346.878 23.2699ZM356.765 20.6299H359.213C359.725 20.6299 360.085 20.5259 360.293 20.3179C360.517 20.0939 360.629 19.7259 360.629 19.2139V15.0379C360.629 14.5259 360.517 14.1659 360.293 13.9579C360.085 13.7339 359.725 13.6219 359.213 13.6219H358.157C357.053 13.6219 356.501 14.2299 356.501 15.4459V20.3659C356.501 20.5419 356.589 20.6299 356.765 20.6299ZM353.453 22.7659V6.90195C353.453 6.56595 353.621 6.39795 353.957 6.39795H355.997C356.333 6.39795 356.501 6.56595 356.501 6.90195V12.3019H356.597C356.773 11.8699 357.085 11.5419 357.533 11.3179C357.981 11.0939 358.453 10.9819 358.949 10.9819H359.717C360.981 10.9819 361.957 11.3179 362.645 11.9899C363.333 12.6619 363.677 13.6299 363.677 14.8939V19.3579C363.677 20.6219 363.333 21.5899 362.645 22.2619C361.957 22.9339 360.981 23.2699 359.717 23.2699H353.957C353.621 23.2699 353.453 23.1019 353.453 22.7659ZM368.629 26.5339H366.589C366.253 26.5339 366.085 26.3739 366.085 26.0539V11.5339C366.085 11.1979 366.253 11.0299 366.589 11.0299H368.629C368.965 11.0299 369.133 11.1979 369.133 11.5339V12.3259H369.229C369.405 11.8939 369.717 11.5739 370.165 11.3659C370.613 11.1419 371.085 11.0299 371.581 11.0299H372.565C373.797 11.0299 374.725 11.3659 375.349 12.0379C375.989 12.7099 376.309 13.6779 376.309 14.9419V19.3579C376.309 20.6219 375.989 21.5899 375.349 22.2619C374.725 22.9339 373.797 23.2699 372.565 23.2699H371.581C371.085 23.2699 370.613 23.1659 370.165 22.9579C369.717 22.7339 369.405 22.4059 369.229 21.9739H369.133V26.0539C369.133 26.3739 368.965 26.5339 368.629 26.5339ZM370.789 20.6299H371.845C372.357 20.6299 372.717 20.5259 372.925 20.3179C373.149 20.0939 373.261 19.7259 373.261 19.2139V15.0859C373.261 14.5739 373.149 14.2139 372.925 14.0059C372.717 13.7819 372.357 13.6699 371.845 13.6699H370.789C369.685 13.6699 369.133 14.2779 369.133 15.4939V18.8059C369.133 20.0219 369.685 20.6299 370.789 20.6299ZM383.35 23.2699H378.79C378.47 23.2699 378.31 23.1019 378.31 22.7659V21.2299C378.31 21.0539 378.342 20.9339 378.406 20.8699C378.47 20.7899 378.598 20.7499 378.79 20.7499H382.798C383.582 20.7499 383.974 20.5099 383.974 20.0299V19.9099C383.974 19.5259 383.646 19.1579 382.99 18.8059L380.614 17.4859C379.798 17.0699 379.198 16.6219 378.814 16.1419C378.43 15.6619 378.238 15.0459 378.238 14.2939C378.238 13.1739 378.534 12.3499 379.126 11.8219C379.718 11.2939 380.646 11.0299 381.91 11.0299H385.918C386.238 11.0299 386.398 11.1979 386.398 11.5339V13.0939C386.398 13.2699 386.366 13.3979 386.302 13.4779C386.238 13.5419 386.11 13.5739 385.918 13.5739H382.582C381.798 13.5739 381.406 13.7739 381.406 14.1739V14.2939C381.406 14.6459 381.75 15.0059 382.438 15.3739L384.862 16.8139C385.694 17.2619 386.278 17.7259 386.614 18.2059C386.95 18.6699 387.118 19.2859 387.118 20.0539C387.118 22.1979 385.862 23.2699 383.35 23.2699ZM388.954 25.3579V24.0139C388.954 23.7259 389.106 23.5819 389.41 23.5819H389.434C390.826 23.5819 391.522 22.6539 391.522 20.7979V12.7579C391.522 10.9019 390.826 9.97395 389.434 9.97395H389.41C389.106 9.97395 388.954 9.82995 388.954 9.54195V8.19795C388.954 8.05395 388.986 7.95795 389.05 7.90995C389.114 7.86195 389.234 7.83795 389.41 7.83795H389.434C390.842 7.83795 391.946 8.26995 392.746 9.13395C393.562 9.98195 393.97 11.3179 393.97 13.1419V20.4139C393.97 22.2379 393.562 23.5739 392.746 24.4219C391.946 25.2859 390.842 25.7179 389.434 25.7179H389.41C389.234 25.7179 389.114 25.6939 389.05 25.6459C388.986 25.5979 388.954 25.5019 388.954 25.3579Z" fill="#38ACE3"/>
<path d="M178.116 52.0698H176.1C175.748 52.0698 175.572 51.9018 175.572 51.5658V39.5418C175.572 39.3658 175.484 39.2778 175.308 39.2778H172.572C172.236 39.2778 172.068 39.1098 172.068 38.7738V37.1418C172.068 36.8058 172.236 36.6378 172.572 36.6378H181.644C181.98 36.6378 182.148 36.8058 182.148 37.1418V38.7738C182.148 39.1098 181.98 39.2778 181.644 39.2778H178.908C178.716 39.2778 178.62 39.3658 178.62 39.5418V51.5658C178.62 51.9018 178.452 52.0698 178.116 52.0698ZM185.733 56.1258H184.197C183.877 56.1258 183.717 55.9498 183.717 55.5978V53.9898C183.717 53.6378 183.877 53.4618 184.197 53.4618H184.701C185.709 53.4618 186.389 53.3178 186.741 53.0298C187.109 52.7578 187.389 52.2218 187.581 51.4218H186.309C186.005 51.4218 185.805 51.2538 185.709 50.9178L182.901 40.3338C182.805 39.9978 182.925 39.8298 183.261 39.8298H185.397C185.717 39.8298 185.917 39.9978 185.997 40.3338L188.061 49.1898H188.157L190.197 40.3338C190.261 39.9978 190.461 39.8298 190.797 39.8298H192.813C193.213 39.8298 193.373 40.0058 193.293 40.3578L190.365 52.0698C190.013 53.3978 189.469 54.4058 188.733 55.0938C187.997 55.7818 186.997 56.1258 185.733 56.1258ZM197.582 55.3338H195.542C195.206 55.3338 195.038 55.1738 195.038 54.8538V40.3338C195.038 39.9978 195.206 39.8298 195.542 39.8298H197.582C197.918 39.8298 198.086 39.9978 198.086 40.3338V41.1258H198.182C198.358 40.6938 198.67 40.3738 199.118 40.1658C199.566 39.9418 200.038 39.8298 200.534 39.8298H201.518C202.75 39.8298 203.678 40.1658 204.302 40.8378C204.942 41.5098 205.262 42.4778 205.262 43.7418V48.1578C205.262 49.4218 204.942 50.3898 204.302 51.0618C203.678 51.7338 202.75 52.0698 201.518 52.0698H200.534C200.038 52.0698 199.566 51.9658 199.118 51.7578C198.67 51.5338 198.358 51.2058 198.182 50.7738H198.086V54.8538C198.086 55.1738 197.918 55.3338 197.582 55.3338ZM199.742 49.4298H200.798C201.31 49.4298 201.67 49.3258 201.878 49.1178C202.102 48.8938 202.214 48.5258 202.214 48.0138V43.8858C202.214 43.3738 202.102 43.0138 201.878 42.8058C201.67 42.5818 201.31 42.4698 200.798 42.4698H199.742C198.638 42.4698 198.086 43.0778 198.086 44.2938V47.6058C198.086 48.8218 198.638 49.4298 199.742 49.4298ZM216.694 52.0698H211.39C210.126 52.0698 209.15 51.7338 208.462 51.0618C207.774 50.3898 207.43 49.4218 207.43 48.1578V43.7418C207.43 42.4778 207.774 41.5098 208.462 40.8378C209.15 40.1658 210.126 39.8298 211.39 39.8298H213.286C214.55 39.8298 215.526 40.1658 216.214 40.8378C216.902 41.5098 217.246 42.4778 217.246 43.7418V46.7898C217.246 47.1258 217.078 47.2938 216.742 47.2938H210.718C210.526 47.2938 210.43 47.3818 210.43 47.5578V48.0858C210.43 48.5818 210.534 48.9418 210.742 49.1658C210.966 49.3738 211.334 49.4778 211.846 49.4778H216.694C217.03 49.4778 217.198 49.6538 217.198 50.0058V51.5898C217.198 51.7658 217.158 51.8938 217.078 51.9738C217.014 52.0378 216.886 52.0698 216.694 52.0698ZM210.718 45.2538H213.982C214.158 45.2538 214.246 45.1658 214.246 44.9898V43.8378C214.246 43.3258 214.142 42.9658 213.934 42.7578C213.726 42.5498 213.366 42.4458 212.854 42.4458H211.846C211.334 42.4458 210.974 42.5498 210.766 42.7578C210.558 42.9658 210.454 43.3258 210.454 43.8378V44.9898C210.454 45.1658 210.542 45.2538 210.718 45.2538ZM226.651 52.0698H224.347C224.059 52.0698 223.963 51.9018 224.059 51.5658L227.851 37.1418C227.963 36.8058 228.203 36.6378 228.571 36.6378H231.763C232.163 36.6378 232.403 36.8058 232.483 37.1418L236.275 51.5658C236.371 51.9018 236.275 52.0698 235.987 52.0698H233.683C233.507 52.0698 233.387 52.0378 233.323 51.9738C233.259 51.8938 233.211 51.7578 233.179 51.5658L232.507 48.9258H227.827L227.155 51.5658C227.123 51.7578 227.067 51.8938 226.987 51.9738C226.923 52.0378 226.811 52.0698 226.651 52.0698ZM230.131 39.5418L228.403 46.4778H231.955L230.227 39.5418H230.131ZM247.732 52.0698H247.156C245.892 52.0698 244.916 51.7338 244.228 51.0618C243.54 50.3898 243.196 49.4218 243.196 48.1578V43.7418C243.196 42.4778 243.54 41.5098 244.228 40.8378C244.916 40.1658 245.892 39.8298 247.156 39.8298H252.7C253.052 39.8298 253.228 39.9978 253.228 40.3338V51.5658C253.228 51.9018 253.052 52.0698 252.7 52.0698H250.684C250.348 52.0698 250.18 51.9018 250.18 51.5658V50.7738H250.084C249.908 51.2058 249.596 51.5338 249.148 51.7578C248.7 51.9658 248.228 52.0698 247.732 52.0698ZM250.18 47.6058V42.7338C250.18 42.5578 250.084 42.4698 249.892 42.4698H247.636C247.124 42.4698 246.764 42.5818 246.556 42.8058C246.348 43.0138 246.244 43.3738 246.244 43.8858V48.0138C246.244 48.5258 246.348 48.8938 246.556 49.1178C246.764 49.3258 247.124 49.4298 247.636 49.4298H248.524C249.628 49.4298 250.18 48.8218 250.18 47.6058ZM258.402 52.0698H256.362C256.026 52.0698 255.858 51.9018 255.858 51.5658V40.3338C255.858 39.9978 256.026 39.8298 256.362 39.8298H258.402C258.738 39.8298 258.906 39.9978 258.906 40.3338V41.1258H259.002C259.354 40.2618 260.138 39.8298 261.354 39.8298H262.122C264.634 39.8298 265.89 41.1338 265.89 43.7418V51.5658C265.89 51.9018 265.714 52.0698 265.362 52.0698H263.346C263.01 52.0698 262.842 51.9018 262.842 51.5658V43.8858C262.842 43.3738 262.73 43.0138 262.506 42.8058C262.298 42.5818 261.938 42.4698 261.426 42.4698H260.562C259.458 42.4698 258.906 43.0778 258.906 44.2938V51.5658C258.906 51.9018 258.738 52.0698 258.402 52.0698ZM272.908 52.0698H271.924C270.692 52.0698 269.756 51.7338 269.116 51.0618C268.492 50.3898 268.18 49.4218 268.18 48.1578V43.7418C268.18 42.4778 268.492 41.5098 269.116 40.8378C269.756 40.1658 270.692 39.8298 271.924 39.8298H272.908C273.404 39.8298 273.876 39.9418 274.324 40.1658C274.772 40.3738 275.084 40.6938 275.26 41.1258H275.356V35.7018C275.356 35.3658 275.524 35.1978 275.86 35.1978H277.9C278.236 35.1978 278.404 35.3658 278.404 35.7018V51.5658C278.404 51.9018 278.236 52.0698 277.9 52.0698H275.86C275.524 52.0698 275.356 51.9018 275.356 51.5658V50.7738H275.26C275.084 51.2058 274.772 51.5338 274.324 51.7578C273.876 51.9658 273.404 52.0698 272.908 52.0698ZM275.356 47.6058V44.2938C275.356 43.0778 274.804 42.4698 273.7 42.4698H272.62C272.108 42.4698 271.748 42.5818 271.54 42.8058C271.332 43.0138 271.228 43.3738 271.228 43.8858V48.0138C271.228 48.5258 271.332 48.8938 271.54 49.1178C271.748 49.3258 272.108 49.4298 272.62 49.4298H273.7C274.804 49.4298 275.356 48.8218 275.356 47.6058ZM291.343 52.0698H289.327C288.975 52.0698 288.799 51.9018 288.799 51.5658V39.5418C288.799 39.3658 288.711 39.2778 288.535 39.2778H285.799C285.463 39.2778 285.295 39.1098 285.295 38.7738V37.1418C285.295 36.8058 285.463 36.6378 285.799 36.6378H294.871C295.207 36.6378 295.375 36.8058 295.375 37.1418V38.7738C295.375 39.1098 295.207 39.2778 294.871 39.2778H292.135C291.943 39.2778 291.847 39.3658 291.847 39.5418V51.5658C291.847 51.9018 291.679 52.0698 291.343 52.0698ZM298.959 56.1258H297.423C297.103 56.1258 296.943 55.9498 296.943 55.5978V53.9898C296.943 53.6378 297.103 53.4618 297.423 53.4618H297.927C298.935 53.4618 299.615 53.3178 299.967 53.0298C300.335 52.7578 300.615 52.2218 300.807 51.4218H299.535C299.231 51.4218 299.031 51.2538 298.935 50.9178L296.127 40.3338C296.031 39.9978 296.151 39.8298 296.487 39.8298H298.623C298.943 39.8298 299.143 39.9978 299.223 40.3338L301.287 49.1898H301.383L303.423 40.3338C303.487 39.9978 303.687 39.8298 304.023 39.8298H306.039C306.439 39.8298 306.599 40.0058 306.519 40.3578L303.591 52.0698C303.239 53.3978 302.695 54.4058 301.959 55.0938C301.223 55.7818 300.223 56.1258 298.959 56.1258ZM310.808 55.3338H308.768C308.432 55.3338 308.264 55.1738 308.264 54.8538V40.3338C308.264 39.9978 308.432 39.8298 308.768 39.8298H310.808C311.144 39.8298 311.312 39.9978 311.312 40.3338V41.1258H311.408C311.584 40.6938 311.896 40.3738 312.344 40.1658C312.792 39.9418 313.264 39.8298 313.76 39.8298H314.744C315.976 39.8298 316.904 40.1658 317.528 40.8378C318.168 41.5098 318.488 42.4778 318.488 43.7418V48.1578C318.488 49.4218 318.168 50.3898 317.528 51.0618C316.904 51.7338 315.976 52.0698 314.744 52.0698H313.76C313.264 52.0698 312.792 51.9658 312.344 51.7578C311.896 51.5338 311.584 51.2058 311.408 50.7738H311.312V54.8538C311.312 55.1738 311.144 55.3338 310.808 55.3338ZM312.968 49.4298H314.024C314.536 49.4298 314.896 49.3258 315.104 49.1178C315.328 48.8938 315.44 48.5258 315.44 48.0138V43.8858C315.44 43.3738 315.328 43.0138 315.104 42.8058C314.896 42.5818 314.536 42.4698 314.024 42.4698H312.968C311.864 42.4698 311.312 43.0778 311.312 44.2938V47.6058C311.312 48.8218 311.864 49.4298 312.968 49.4298ZM329.921 52.0698H324.617C323.353 52.0698 322.377 51.7338 321.689 51.0618C321.001 50.3898 320.657 49.4218 320.657 48.1578V43.7418C320.657 42.4778 321.001 41.5098 321.689 40.8378C322.377 40.1658 323.353 39.8298 324.617 39.8298H326.513C327.777 39.8298 328.753 40.1658 329.441 40.8378C330.129 41.5098 330.473 42.4778 330.473 43.7418V46.7898C330.473 47.1258 330.305 47.2938 329.969 47.2938H323.945C323.753 47.2938 323.657 47.3818 323.657 47.5578V48.0858C323.657 48.5818 323.761 48.9418 323.969 49.1658C324.193 49.3738 324.561 49.4778 325.073 49.4778H329.921C330.257 49.4778 330.425 49.6538 330.425 50.0058V51.5898C330.425 51.7658 330.385 51.8938 330.305 51.9738C330.241 52.0378 330.113 52.0698 329.921 52.0698ZM323.945 45.2538H327.209C327.385 45.2538 327.473 45.1658 327.473 44.9898V43.8378C327.473 43.3258 327.369 42.9658 327.161 42.7578C326.953 42.5498 326.593 42.4458 326.081 42.4458H325.073C324.561 42.4458 324.201 42.5498 323.993 42.7578C323.785 42.9658 323.681 43.3258 323.681 43.8378V44.9898C323.681 45.1658 323.769 45.2538 323.945 45.2538ZM344.606 52.0698H341.99C340.726 52.0698 339.75 51.7338 339.062 51.0618C338.374 50.3898 338.03 49.4218 338.03 48.1578V40.5498C338.03 39.2858 338.374 38.3178 339.062 37.6458C339.75 36.9738 340.726 36.6378 341.99 36.6378H344.606C345.854 36.6378 346.822 36.9818 347.51 37.6698C348.214 38.3418 348.566 39.3018 348.566 40.5498V41.6778C348.566 42.0298 348.39 42.2058 348.038 42.2058H346.022C345.686 42.2058 345.518 42.0298 345.518 41.6778V40.6938C345.518 40.1818 345.406 39.8218 345.182 39.6138C344.974 39.3898 344.614 39.2778 344.102 39.2778H342.47C341.974 39.2778 341.614 39.3898 341.39 39.6138C341.182 39.8218 341.078 40.1818 341.078 40.6938V48.0138C341.078 48.5258 341.182 48.8938 341.39 49.1178C341.614 49.3258 341.974 49.4298 342.47 49.4298H344.102C344.614 49.4298 344.974 49.3258 345.182 49.1178C345.406 48.8938 345.518 48.5258 345.518 48.0138V47.0298C345.518 46.6778 345.686 46.5018 346.022 46.5018H348.038C348.39 46.5018 348.566 46.6778 348.566 47.0298V48.1578C348.566 49.4058 348.214 50.3738 347.51 51.0618C346.822 51.7338 345.854 52.0698 344.606 52.0698Z" fill="#38ACE3"/>
<path d="M159.611 4.16992H154.391V61.4697H159.611V4.16992Z" fill="#38ACE3"/>
<path d="M413.289 58.0698L412.919 57.9497L412.769 56.75H413.399C413.71 56.746 414.009 56.6258 414.237 56.4131C414.464 56.2004 414.604 55.9106 414.629 55.6001C414.625 55.5094 414.601 55.4205 414.559 55.3398C413.879 53.5398 413.189 51.7299 412.559 49.9199L412.439 49.6001H413.319C414.149 49.6001 414.149 49.6001 414.409 50.3901C414.749 51.3901 415.099 52.4397 415.409 53.4697C415.409 53.5597 415.479 53.6501 415.539 53.8101C415.749 53.1701 415.939 52.59 416.139 52.02C416.399 51.28 416.659 50.5398 416.939 49.7998C416.939 49.7198 417.059 49.6099 417.119 49.6099H418.629C418.399 50.2299 418.199 50.8001 417.989 51.3701L416.669 54.9897C416.479 55.4897 416.259 55.99 416.069 56.48C415.958 56.8693 415.741 57.22 415.443 57.4937C415.145 57.7673 414.776 57.9529 414.379 58.0298L413.289 58.0698Z" fill="#38ACE3"/>
<path d="M425.151 43.6499C420.391 43.6499 415.641 43.6499 410.891 43.6499C408.97 43.682 407.073 43.2208 405.381 42.3101C403.947 41.5713 402.702 40.512 401.743 39.2149C400.784 37.9178 400.137 36.4177 399.851 34.8301C399.396 32.6257 399.645 30.3337 400.564 28.2788C401.483 26.224 403.024 24.5102 404.971 23.3799C406.673 22.3541 408.624 21.8145 410.611 21.8199C420.298 21.8199 429.991 21.8199 439.691 21.8199C442.202 21.825 444.635 22.6887 446.587 24.2676C448.539 25.8466 449.892 28.046 450.421 30.5C450.703 31.6309 450.768 32.8051 450.611 33.96C450.333 36.1915 449.381 38.2849 447.882 39.961C446.383 41.637 444.408 42.8158 442.221 43.3399C441.378 43.5356 440.516 43.6329 439.651 43.6299C434.811 43.6599 429.981 43.6499 425.151 43.6499ZM425.151 24.8501C420.411 24.8501 415.671 24.8501 410.921 24.8501C409.766 24.8616 408.629 25.1381 407.597 25.6582C406.566 26.1783 405.667 26.9282 404.971 27.8501C403.778 29.3185 403.163 31.1731 403.244 33.0635C403.325 34.954 404.096 36.7491 405.411 38.1099C406.154 38.8917 407.047 39.5155 408.037 39.9434C409.027 40.3713 410.093 40.5947 411.171 40.6001C420.504 40.6001 429.838 40.6001 439.171 40.6001C439.919 40.594 440.662 40.486 441.381 40.2798C443.199 39.7365 444.759 38.5549 445.775 36.9522C446.791 35.3495 447.193 33.434 446.908 31.5581C446.623 29.6822 445.671 27.9721 444.225 26.7432C442.779 25.5143 440.938 24.8493 439.041 24.8702L425.151 24.8501Z" fill="#38ACE3"/>
<path d="M422.409 11.2597H420.639V10.81C420.647 10.6532 420.608 10.4974 420.528 10.3623C420.448 10.2271 420.33 10.1183 420.189 10.0498C419.754 9.9037 419.283 9.91155 418.853 10.0718C418.423 10.232 418.062 10.5352 417.829 10.9302C417.77 11.0102 417.729 11.1022 417.711 11.2002C417.692 11.2981 417.696 11.3989 417.722 11.4951C417.748 11.5913 417.795 11.6806 417.861 11.7558C417.926 11.8311 418.007 11.8909 418.099 11.9302C418.781 12.4005 419.582 12.6671 420.409 12.6997C420.955 12.6698 421.503 12.6698 422.049 12.6997C422.167 12.7067 422.285 12.684 422.391 12.6333C422.498 12.5826 422.59 12.506 422.659 12.4101C423.419 11.5301 424.199 10.67 424.949 9.76999C425.229 9.43396 425.584 9.16831 425.985 8.9946C426.386 8.8209 426.823 8.74401 427.259 8.76999C428.159 8.76999 429.049 8.76999 429.949 8.76999C430.036 8.7831 430.125 8.76667 430.201 8.72312C430.277 8.67957 430.336 8.6112 430.369 8.52976C430.546 8.19606 430.833 7.93326 431.18 7.78415C431.527 7.63505 431.915 7.60876 432.279 7.70994C432.639 7.80394 432.958 8.01304 433.187 8.30564C433.417 8.59824 433.544 8.9583 433.549 9.33005C433.548 9.69669 433.431 10.0536 433.213 10.3486C432.995 10.6436 432.689 10.861 432.339 10.9697C431.968 11.0904 431.567 11.0801 431.202 10.9399C430.838 10.7997 430.533 10.5381 430.339 10.1997C430.292 10.1426 430.235 10.0959 430.169 10.0615C430.104 10.0271 430.033 10.0061 429.959 9.99998C429.029 9.99998 428.089 9.99998 427.149 9.99998C426.919 9.99619 426.691 10.0435 426.482 10.1386C426.273 10.2338 426.087 10.3741 425.939 10.5498C425.319 11.2598 424.689 11.9599 424.019 12.7099H440.449V11.25L444.019 13.3398L440.479 15.4399V13.9399H428.569L428.749 14.1802C429.369 14.8902 429.989 15.5898 430.599 16.2998C430.746 16.4829 430.934 16.6288 431.147 16.726C431.361 16.8233 431.595 16.8692 431.829 16.8598H434.409V15.73C434.529 15.7223 434.649 15.7223 434.769 15.73H437.639C437.899 15.73 437.989 15.8201 437.989 16.0801C437.989 17.0801 437.989 18.01 437.989 18.98C437.989 19.16 437.989 19.3198 437.729 19.3198H434.619C434.559 19.3252 434.499 19.3252 434.439 19.3198V18.2099H434.049H431.809C431.396 18.2201 430.987 18.1353 430.612 17.9619C430.238 17.7885 429.908 17.5312 429.649 17.2099C429.149 16.6399 428.649 16.0597 428.169 15.4897C427.689 14.9197 427.369 14.5999 426.959 14.1699C426.881 14.0839 426.774 14.0305 426.659 14.02H421.149H420.979C421.093 14.3891 421.123 14.7789 421.067 15.1611C421.012 15.5433 420.873 15.9082 420.659 16.23C420.358 16.6971 419.955 17.0901 419.481 17.3794C419.006 17.6686 418.472 17.8465 417.919 17.8999C416.991 18.0941 416.025 17.945 415.199 17.48C414.789 17.218 414.479 16.8272 414.316 16.3691C414.153 15.911 414.147 15.4115 414.299 14.9497H416.099C416.099 15.0497 416.099 15.1197 416.099 15.1997C416.055 15.3401 416.044 15.4891 416.069 15.6343C416.093 15.7794 416.152 15.917 416.24 16.0351C416.327 16.1533 416.442 16.2488 416.574 16.3139C416.706 16.3791 416.852 16.4122 416.999 16.4101C417.36 16.5166 417.745 16.51 418.102 16.3921C418.459 16.2741 418.772 16.0503 418.999 15.75C419.111 15.6371 419.192 15.4972 419.234 15.3437C419.276 15.1903 419.277 15.0286 419.238 14.8745C419.198 14.7204 419.12 14.579 419.01 14.4643C418.899 14.3496 418.761 14.2651 418.609 14.2197C417.958 13.9204 417.324 13.5866 416.709 13.2197C416.315 12.9557 416.033 12.555 415.919 12.0947C415.804 11.6344 415.865 11.1479 416.089 10.73C416.444 9.9645 417.072 9.35836 417.849 9.02976C418.811 8.52089 419.931 8.3994 420.979 8.68992C421.506 8.84574 421.952 9.20204 422.219 9.68259C422.486 10.1631 422.555 10.7294 422.409 11.2597Z" fill="#38ACE3"/>
<path d="M406.56 14.84H408.31C408.31 14.97 408.31 15.0798 408.31 15.1998C408.282 15.333 408.284 15.4708 408.315 15.6031C408.347 15.7355 408.407 15.8593 408.492 15.9654C408.578 16.0716 408.685 16.1578 408.808 16.2174C408.93 16.277 409.064 16.3087 409.2 16.3102C409.554 16.4066 409.928 16.3921 410.274 16.2687C410.619 16.1453 410.918 15.919 411.13 15.6202C411.239 15.5038 411.316 15.3609 411.354 15.2057C411.391 15.0505 411.387 14.8883 411.343 14.735C411.298 14.5816 411.215 14.4425 411.1 14.3312C410.986 14.2199 410.844 14.1403 410.69 14.1002C410.25 13.9002 409.81 13.7299 409.39 13.5099C409.058 13.3671 408.766 13.146 408.539 12.8653C408.312 12.5847 408.156 12.2532 408.085 11.899C408.014 11.5449 408.03 11.1791 408.132 10.8326C408.234 10.4862 408.419 10.1696 408.67 9.91027C409.036 9.48712 409.482 9.1415 409.984 8.89415C410.486 8.64681 411.032 8.50233 411.59 8.46984C412.271 8.3508 412.971 8.45245 413.59 8.75988C414.025 8.99189 414.363 9.37033 414.546 9.82775C414.729 10.2852 414.745 10.7921 414.59 11.2599H412.8C412.8 11.1199 412.8 11.0102 412.8 10.8902C412.819 10.7162 412.782 10.5407 412.696 10.3883C412.61 10.2359 412.479 10.1142 412.32 10.0402C411.919 9.90699 411.487 9.90383 411.085 10.0314C410.682 10.1589 410.331 10.4105 410.08 10.7501C409.996 10.8445 409.936 10.9581 409.906 11.0812C409.876 11.2042 409.877 11.333 409.909 11.4557C409.94 11.5783 410.002 11.6911 410.087 11.7843C410.173 11.8775 410.28 11.9481 410.4 11.9899C410.87 12.2299 411.4 12.41 411.84 12.65C412.241 12.8116 412.587 13.0872 412.834 13.4425C413.081 13.7978 413.218 14.2175 413.23 14.65C413.212 15.3335 412.954 15.9888 412.5 16.5001C411.838 17.1811 410.97 17.6251 410.03 17.7643C409.091 17.9034 408.131 17.7299 407.3 17.2701C406.938 16.9932 406.672 16.6098 406.54 16.1739C406.407 15.7381 406.414 15.2715 406.56 14.84Z" fill="#38ACE3"/>
<path d="M442.32 52.6L442.69 52.7098L443.94 53.1C443.839 53.6643 443.589 54.1915 443.216 54.6273C442.844 55.0632 442.362 55.392 441.82 55.58C441.204 55.8094 440.54 55.8775 439.891 55.7777C439.242 55.6779 438.628 55.4133 438.11 55.0096C437.513 54.5486 437.087 53.901 436.9 53.1698C436.575 52.0734 436.575 50.9063 436.9 49.8099C437.16 48.9542 437.726 48.2236 438.489 47.7572C439.252 47.2908 440.16 47.1209 441.04 47.2797C441.709 47.3087 442.349 47.561 442.858 47.996C443.368 48.4309 443.717 49.0238 443.85 49.68L442.26 50.0599C442.164 49.8329 442.047 49.6154 441.91 49.41C441.71 49.1275 441.429 48.9116 441.105 48.7904C440.78 48.6692 440.427 48.648 440.09 48.7299C439.752 48.7755 439.433 48.9148 439.169 49.1322C438.906 49.3496 438.709 49.6362 438.6 49.9598C438.301 50.9375 438.301 51.9822 438.6 52.9598C438.713 53.3776 438.964 53.7447 439.313 54.0009C439.662 54.257 440.088 54.3873 440.52 54.37C440.917 54.3663 441.301 54.2261 441.607 53.973C441.913 53.7199 442.122 53.3691 442.2 52.9799C442.25 52.8499 442.28 52.74 442.32 52.6Z" fill="#38ACE3"/>
<path d="M421.15 55.0201V57.8799H419.57V49.6802H421.02V50.4102C421.09 50.4102 421.12 50.4102 421.14 50.4102C421.414 50.0556 421.789 49.7923 422.216 49.6548C422.642 49.5174 423.1 49.5123 423.53 49.6402C423.962 49.7539 424.354 49.9879 424.658 50.3155C424.963 50.643 425.168 51.0501 425.25 51.4898C425.537 52.4563 425.462 53.4947 425.04 54.4102C424.924 54.6882 424.754 54.9405 424.541 55.1529C424.327 55.3652 424.074 55.5332 423.795 55.6475C423.516 55.7617 423.218 55.8197 422.917 55.8184C422.616 55.8171 422.318 55.7568 422.04 55.6402C421.723 55.4643 421.425 55.2564 421.15 55.0201ZM423.77 52.7598C423.77 52.4098 423.71 52.1399 423.66 51.8799C423.619 51.6124 423.494 51.3646 423.304 51.1724C423.114 50.9801 422.867 50.8535 422.6 50.8101C422.353 50.7613 422.096 50.7978 421.873 50.9141C421.649 51.0304 421.472 51.2193 421.37 51.4497C421.17 51.8429 421.073 52.2809 421.089 52.7217C421.105 53.1626 421.232 53.5918 421.46 53.9698C421.573 54.1777 421.749 54.3446 421.963 54.4453C422.177 54.5461 422.418 54.5755 422.65 54.5298C422.866 54.5033 423.068 54.4131 423.232 54.2705C423.396 54.128 423.514 53.9399 423.57 53.73C423.662 53.4113 423.736 53.0872 423.79 52.7598H423.77Z" fill="#38ACE3"/>
<path d="M430.211 53.7703L431.711 54.0203C431.609 54.4411 431.389 54.8238 431.077 55.1248C430.766 55.4257 430.375 55.632 429.951 55.72C429.224 55.8701 428.469 55.815 427.771 55.5603C427.491 55.4525 427.235 55.2886 427.02 55.0789C426.805 54.8691 426.636 54.6177 426.521 54.3401C426.27 53.8068 426.139 53.2245 426.139 52.635C426.139 52.0455 426.27 51.4637 426.521 50.9304C426.775 50.4268 427.184 50.0181 427.689 49.7659C428.193 49.5136 428.766 49.4309 429.321 49.53C429.893 49.578 430.433 49.8154 430.855 50.2048C431.277 50.5943 431.557 51.1138 431.651 51.6804C431.721 52.0004 431.741 52.3304 431.781 52.6804C431.781 52.8204 431.781 52.9601 431.781 53.1301H427.781C427.757 53.4131 427.82 53.6966 427.961 53.9431C428.102 54.1896 428.315 54.3873 428.571 54.51C429.311 54.73 429.781 54.5203 430.211 53.7703ZM430.261 52.1404C430.286 51.8902 430.237 51.6381 430.119 51.4158C430.002 51.1935 429.822 51.0109 429.601 50.8904C429.419 50.7829 429.208 50.7354 428.998 50.7551C428.788 50.7749 428.59 50.8608 428.431 51.0002C428.257 51.1302 428.12 51.3042 428.036 51.5046C427.951 51.7051 427.922 51.9248 427.951 52.1404H430.261Z" fill="#38ACE3"/>
<path d="M408.841 48.7998H406.391V47.4302H412.911V48.7798H410.531V55.6401H408.841V48.7998Z" fill="#38ACE3"/>
<path d="M432.971 53.4399V51.9399H436.041V53.4697L432.971 53.4399Z" fill="#38ACE3"/>
<path d="M425.149 29.7598H440.719C441.113 29.7395 441.507 29.7973 441.879 29.9293C442.251 30.0612 442.593 30.2647 442.886 30.5289C443.179 30.7931 443.417 31.1126 443.586 31.4688C443.756 31.825 443.854 32.2111 443.874 32.6051C443.894 32.999 443.837 33.393 443.705 33.7647C443.573 34.1365 443.369 34.4786 443.105 34.7716C442.841 35.0645 442.521 35.3027 442.165 35.4722C441.809 35.6418 441.423 35.7395 441.029 35.7598H409.489C408.8 35.7965 408.12 35.5947 407.563 35.1886C407.005 34.7824 406.605 34.1966 406.429 33.5299C406.319 33.0972 406.306 32.6457 406.392 32.2076C406.479 31.7695 406.662 31.356 406.928 30.9976C407.194 30.6393 407.537 30.3447 407.932 30.1358C408.327 29.9269 408.763 29.809 409.209 29.7901C411.879 29.7901 414.549 29.7901 417.209 29.7901L425.149 29.7598Z" fill="#38ACE3"/>
<path d="M9.32031 10.3799H136.9" stroke="#38ACE3" stroke-miterlimit="10"/>
<path d="M11.3107 13.2798L0.470703 10.3799L11.3107 7.46973V13.2798Z" fill="#38ACE3"/>
</svg>
