<svg width="477" height="62" viewBox="0 0 477 62" fill="none" xmlns="http://www.w3.org/2000/svg">
<path d="M181.236 7.83802H183.252C183.604 7.83802 183.78 7.99802 183.78 8.31802V19.358C183.78 20.606 183.428 21.574 182.724 22.262C182.036 22.934 181.068 23.27 179.82 23.27H177.18C175.916 23.27 174.94 22.934 174.252 22.262C173.564 21.59 173.22 20.622 173.22 19.358V8.34202C173.22 8.00602 173.388 7.83802 173.724 7.83802H175.764C176.1 7.83802 176.268 8.00602 176.268 8.34202V19.214C176.268 19.726 176.372 20.094 176.58 20.318C176.804 20.526 177.164 20.63 177.66 20.63H179.316C179.828 20.63 180.188 20.526 180.396 20.318C180.62 20.094 180.732 19.726 180.732 19.214V8.34202C180.732 8.00602 180.9 7.83802 181.236 7.83802ZM186.386 19.334V18.854C186.386 18.518 186.554 18.35 186.89 18.35H188.93C189.266 18.35 189.434 18.518 189.434 18.854V19.046C189.434 19.654 189.554 20.07 189.794 20.294C190.034 20.518 190.474 20.63 191.114 20.63H192.242C192.866 20.63 193.298 20.51 193.538 20.27C193.794 20.03 193.922 19.582 193.922 18.926V18.638C193.922 18.174 193.73 17.822 193.346 17.582C192.978 17.326 192.514 17.174 191.954 17.126C191.394 17.078 190.786 16.99 190.13 16.862C189.49 16.718 188.89 16.542 188.33 16.334C187.77 16.11 187.298 15.686 186.914 15.062C186.546 14.422 186.362 13.606 186.362 12.614V11.774C186.362 10.526 186.714 9.55802 187.418 8.87002C188.122 8.18202 189.098 7.83802 190.346 7.83802H192.746C194.01 7.83802 194.994 8.18202 195.698 8.87002C196.402 9.55802 196.754 10.526 196.754 11.774V12.23C196.754 12.566 196.586 12.734 196.25 12.734H194.21C193.874 12.734 193.706 12.566 193.706 12.23V12.086C193.706 11.462 193.586 11.038 193.346 10.814C193.106 10.59 192.666 10.478 192.026 10.478H191.09C190.434 10.478 189.986 10.606 189.746 10.862C189.522 11.102 189.41 11.582 189.41 12.302V12.758C189.41 13.51 190.066 13.942 191.378 14.054C192.738 14.166 193.946 14.438 195.002 14.87C195.562 15.11 196.026 15.542 196.394 16.166C196.778 16.774 196.97 17.558 196.97 18.518V19.334C196.97 20.582 196.618 21.55 195.914 22.238C195.21 22.926 194.234 23.27 192.986 23.27H190.37C189.122 23.27 188.146 22.926 187.442 22.238C186.738 21.55 186.386 20.582 186.386 19.334ZM203.019 20.726H205.707C206.235 20.726 206.611 20.622 206.835 20.414C207.075 20.19 207.195 19.83 207.195 19.334V17.942C207.195 17.446 207.075 17.094 206.835 16.886C206.595 16.678 206.203 16.574 205.659 16.574H203.019C202.843 16.574 202.755 16.662 202.755 16.838V20.462C202.755 20.638 202.843 20.726 203.019 20.726ZM203.019 14.102H205.467C205.979 14.102 206.355 13.998 206.595 13.79C206.835 13.566 206.955 13.206 206.955 12.71V11.774C206.955 11.278 206.835 10.926 206.595 10.718C206.371 10.494 206.003 10.382 205.491 10.382H203.019C202.843 10.382 202.755 10.47 202.755 10.646V13.838C202.755 14.014 202.843 14.102 203.019 14.102ZM199.707 22.766V8.34202C199.707 8.00602 199.875 7.83802 200.211 7.83802H205.971C207.235 7.83802 208.211 8.17402 208.899 8.84602C209.587 9.51802 209.931 10.478 209.931 11.726V12.71C209.931 14.07 209.299 14.95 208.035 15.35C208.675 15.446 209.187 15.71 209.571 16.142C209.955 16.558 210.147 17.158 210.147 17.942V19.382C210.147 20.63 209.803 21.59 209.115 22.262C208.427 22.934 207.459 23.27 206.211 23.27H200.211C199.875 23.27 199.707 23.102 199.707 22.766ZM221.989 14.294H223.213C223.741 14.294 224.117 14.19 224.341 13.982C224.581 13.758 224.701 13.398 224.701 12.902V11.774C224.701 11.278 224.581 10.926 224.341 10.718C224.117 10.494 223.741 10.382 223.213 10.382H222.061C221.549 10.382 221.189 10.494 220.981 10.718C220.773 10.926 220.669 11.278 220.669 11.774V12.374C220.669 12.71 220.501 12.878 220.165 12.878H218.125C217.789 12.878 217.621 12.71 217.621 12.374V11.726C217.621 10.478 217.965 9.51802 218.653 8.84602C219.341 8.17402 220.317 7.83802 221.581 7.83802H223.717C224.981 7.83802 225.957 8.17402 226.645 8.84602C227.333 9.51802 227.677 10.478 227.677 11.726V12.926C227.677 14.27 227.045 15.142 225.781 15.542C227.045 15.814 227.677 16.686 227.677 18.158V19.382C227.677 20.63 227.333 21.59 226.645 22.262C225.957 22.934 224.981 23.27 223.717 23.27H221.581C220.317 23.27 219.341 22.934 218.653 22.262C217.965 21.59 217.621 20.63 217.621 19.382V18.71C217.621 18.358 217.789 18.182 218.125 18.182H220.165C220.501 18.182 220.669 18.358 220.669 18.71V19.334C220.669 19.846 220.773 20.206 220.981 20.414C221.189 20.622 221.549 20.726 222.061 20.726H223.213C223.741 20.726 224.117 20.622 224.341 20.414C224.581 20.19 224.701 19.83 224.701 19.334V18.158C224.701 17.662 224.581 17.31 224.341 17.102C224.117 16.878 223.741 16.766 223.213 16.766H221.989C221.653 16.766 221.485 16.598 221.485 16.262V14.822C221.485 14.47 221.653 14.294 221.989 14.294ZM232.928 19.814V22.766C232.928 23.102 232.776 23.27 232.472 23.27H230.336C230.016 23.27 229.856 23.102 229.856 22.766V19.838C229.856 19.518 230.016 19.358 230.336 19.358H232.472C232.776 19.358 232.928 19.51 232.928 19.814ZM234.971 22.766V20.486C234.971 19.574 235.363 18.798 236.147 18.158L240.563 14.414C241.283 13.822 241.643 13.182 241.643 12.494V11.774C241.643 11.278 241.523 10.926 241.283 10.718C241.059 10.494 240.683 10.382 240.155 10.382H239.315C238.803 10.382 238.443 10.494 238.235 10.718C238.027 10.926 237.923 11.278 237.923 11.774V12.542C237.923 12.894 237.755 13.07 237.419 13.07H235.379C235.043 13.07 234.875 12.894 234.875 12.542V11.726C234.875 10.478 235.219 9.51802 235.907 8.84602C236.595 8.17402 237.571 7.83802 238.835 7.83802H240.659C241.923 7.83802 242.899 8.17402 243.587 8.84602C244.275 9.51802 244.619 10.478 244.619 11.726V12.686C244.619 13.934 244.139 14.966 243.179 15.782L238.667 19.622C238.475 19.798 238.379 19.99 238.379 20.198V20.582H244.115C244.451 20.582 244.619 20.75 244.619 21.086V22.766C244.619 23.102 244.451 23.27 244.115 23.27H235.475C235.139 23.27 234.971 23.102 234.971 22.766ZM258.776 23.27H256.232C254.968 23.27 253.992 22.934 253.304 22.262C252.616 21.59 252.272 20.622 252.272 19.358V11.75C252.272 10.486 252.616 9.51802 253.304 8.84602C253.992 8.17402 254.968 7.83802 256.232 7.83802H258.776C260.024 7.83802 260.992 8.18202 261.68 8.87002C262.368 9.54202 262.712 10.502 262.712 11.75V12.47C262.712 12.822 262.544 12.998 262.208 12.998H260.168C259.832 12.998 259.664 12.822 259.664 12.47V11.894C259.664 11.382 259.56 11.022 259.352 10.814C259.144 10.59 258.784 10.478 258.272 10.478H256.712C256.216 10.478 255.856 10.59 255.632 10.814C255.424 11.022 255.32 11.382 255.32 11.894V19.214C255.32 19.726 255.424 20.094 255.632 20.318C255.856 20.526 256.216 20.63 256.712 20.63H258.272C258.784 20.63 259.144 20.526 259.352 20.318C259.56 20.094 259.664 19.726 259.664 19.214V17.702C259.664 17.526 259.576 17.438 259.4 17.438H257.96C257.624 17.438 257.456 17.27 257.456 16.934V15.302C257.456 14.966 257.624 14.798 257.96 14.798H262.16C262.528 14.798 262.712 14.982 262.712 15.35V19.358C262.712 20.606 262.368 21.574 261.68 22.262C260.992 22.934 260.024 23.27 258.776 23.27ZM274.374 23.27H269.07C267.806 23.27 266.83 22.934 266.142 22.262C265.454 21.59 265.11 20.622 265.11 19.358V14.942C265.11 13.678 265.454 12.71 266.142 12.038C266.83 11.366 267.806 11.03 269.07 11.03H270.966C272.23 11.03 273.206 11.366 273.894 12.038C274.582 12.71 274.926 13.678 274.926 14.942V17.99C274.926 18.326 274.758 18.494 274.422 18.494H268.398C268.206 18.494 268.11 18.582 268.11 18.758V19.286C268.11 19.782 268.214 20.142 268.422 20.366C268.646 20.574 269.014 20.678 269.526 20.678H274.374C274.71 20.678 274.878 20.854 274.878 21.206V22.79C274.878 22.966 274.838 23.094 274.758 23.174C274.694 23.238 274.566 23.27 274.374 23.27ZM268.398 16.454H271.662C271.838 16.454 271.926 16.366 271.926 16.19V15.038C271.926 14.526 271.822 14.166 271.614 13.958C271.406 13.75 271.046 13.646 270.534 13.646H269.526C269.014 13.646 268.654 13.75 268.446 13.958C268.238 14.166 268.134 14.526 268.134 15.038V16.19C268.134 16.366 268.222 16.454 268.398 16.454ZM279.753 23.27H277.713C277.377 23.27 277.209 23.102 277.209 22.766V11.534C277.209 11.198 277.377 11.03 277.713 11.03H279.753C280.089 11.03 280.257 11.198 280.257 11.534V12.326H280.353C280.705 11.462 281.489 11.03 282.705 11.03H283.473C285.985 11.03 287.241 12.334 287.241 14.942V22.766C287.241 23.102 287.065 23.27 286.713 23.27H284.697C284.361 23.27 284.193 23.102 284.193 22.766V15.086C284.193 14.574 284.081 14.214 283.857 14.006C283.649 13.782 283.289 13.67 282.777 13.67H281.913C280.809 13.67 280.257 14.278 280.257 15.494V22.766C280.257 23.102 280.089 23.27 279.753 23.27ZM294.853 22.766V20.486C294.853 19.574 295.245 18.798 296.029 18.158L300.445 14.414C301.165 13.822 301.525 13.182 301.525 12.494V11.774C301.525 11.278 301.405 10.926 301.165 10.718C300.941 10.494 300.565 10.382 300.037 10.382H299.197C298.685 10.382 298.325 10.494 298.117 10.718C297.909 10.926 297.805 11.278 297.805 11.774V12.542C297.805 12.894 297.637 13.07 297.301 13.07H295.261C294.925 13.07 294.757 12.894 294.757 12.542V11.726C294.757 10.478 295.101 9.51802 295.789 8.84602C296.477 8.17402 297.453 7.83802 298.717 7.83802H300.541C301.805 7.83802 302.781 8.17402 303.469 8.84602C304.157 9.51802 304.501 10.478 304.501 11.726V12.686C304.501 13.934 304.021 14.966 303.061 15.782L298.549 19.622C298.357 19.798 298.261 19.99 298.261 20.198V20.582H303.997C304.333 20.582 304.501 20.75 304.501 21.086V22.766C304.501 23.102 304.333 23.27 303.997 23.27H295.357C295.021 23.27 294.853 23.102 294.853 22.766ZM316.427 9.97402H316.355C314.995 9.97402 314.315 10.902 314.315 12.758V20.798C314.315 22.654 315.011 23.582 316.403 23.582H316.427C316.603 23.582 316.723 23.614 316.787 23.678C316.851 23.742 316.883 23.854 316.883 24.014V25.358C316.883 25.502 316.851 25.598 316.787 25.646C316.739 25.694 316.619 25.718 316.427 25.718H316.355C314.947 25.718 313.843 25.286 313.043 24.422C312.259 23.574 311.867 22.238 311.867 20.414V13.142C311.867 11.318 312.267 9.98202 313.067 9.13402C313.867 8.27002 314.971 7.83802 316.379 7.83802H316.451C316.627 7.83802 316.739 7.86202 316.787 7.91002C316.851 7.95802 316.883 8.05402 316.883 8.19802V9.54202C316.883 9.70202 316.851 9.81402 316.787 9.87802C316.723 9.94202 316.603 9.97402 316.427 9.97402ZM318.723 12.134V10.166C318.723 9.89402 318.843 9.68602 319.083 9.54202L321.267 8.17402C321.635 7.95002 321.947 7.83802 322.203 7.83802H324.123C324.459 7.83802 324.627 8.00602 324.627 8.34202V22.766C324.627 22.958 324.587 23.094 324.507 23.174C324.443 23.238 324.323 23.27 324.147 23.27H322.083C321.747 23.27 321.579 23.102 321.579 22.766V11.078L319.227 12.422C318.891 12.566 318.723 12.47 318.723 12.134ZM331.922 20.63H333.338C333.85 20.63 334.21 20.526 334.418 20.318C334.626 20.094 334.73 19.726 334.73 19.214V11.894C334.73 11.382 334.626 11.022 334.418 10.814C334.21 10.59 333.85 10.478 333.338 10.478H331.922C331.41 10.478 331.05 10.59 330.842 10.814C330.634 11.022 330.53 11.382 330.53 11.894V19.214C330.53 19.726 330.634 20.094 330.842 20.318C331.05 20.526 331.41 20.63 331.922 20.63ZM333.818 23.27H331.418C330.154 23.27 329.178 22.934 328.49 22.262C327.802 21.59 327.458 20.622 327.458 19.358V11.75C327.458 10.486 327.802 9.51802 328.49 8.84602C329.178 8.17402 330.154 7.83802 331.418 7.83802H333.818C335.066 7.83802 336.034 8.18202 336.722 8.87002C337.41 9.54202 337.754 10.502 337.754 11.75V19.358C337.754 20.606 337.41 21.574 336.722 22.262C336.034 22.934 335.066 23.27 333.818 23.27ZM346.877 23.27H344.333C343.069 23.27 342.093 22.934 341.405 22.262C340.717 21.59 340.373 20.622 340.373 19.358V11.75C340.373 10.486 340.717 9.51802 341.405 8.84602C342.093 8.17402 343.069 7.83802 344.333 7.83802H346.877C348.125 7.83802 349.093 8.18202 349.781 8.87002C350.469 9.54202 350.813 10.502 350.813 11.75V12.47C350.813 12.822 350.645 12.998 350.309 12.998H348.269C347.933 12.998 347.765 12.822 347.765 12.47V11.894C347.765 11.382 347.661 11.022 347.453 10.814C347.245 10.59 346.885 10.478 346.373 10.478H344.813C344.317 10.478 343.957 10.59 343.733 10.814C343.525 11.022 343.421 11.382 343.421 11.894V19.214C343.421 19.726 343.525 20.094 343.733 20.318C343.957 20.526 344.317 20.63 344.813 20.63H346.373C346.885 20.63 347.245 20.526 347.453 20.318C347.661 20.094 347.765 19.726 347.765 19.214V17.702C347.765 17.526 347.677 17.438 347.501 17.438H346.061C345.725 17.438 345.557 17.27 345.557 16.934V15.302C345.557 14.966 345.725 14.798 346.061 14.798H350.261C350.629 14.798 350.813 14.982 350.813 15.35V19.358C350.813 20.606 350.469 21.574 349.781 22.262C349.093 22.934 348.125 23.27 346.877 23.27ZM356.764 20.63H359.212C359.724 20.63 360.084 20.526 360.292 20.318C360.516 20.094 360.628 19.726 360.628 19.214V15.038C360.628 14.526 360.516 14.166 360.292 13.958C360.084 13.734 359.724 13.622 359.212 13.622H358.156C357.052 13.622 356.5 14.23 356.5 15.446V20.366C356.5 20.542 356.588 20.63 356.764 20.63ZM353.452 22.766V6.90202C353.452 6.56602 353.62 6.39802 353.956 6.39802H355.996C356.332 6.39802 356.5 6.56602 356.5 6.90202V12.302H356.596C356.772 11.87 357.084 11.542 357.532 11.318C357.98 11.094 358.452 10.982 358.948 10.982H359.716C360.98 10.982 361.956 11.318 362.644 11.99C363.332 12.662 363.676 13.63 363.676 14.894V19.358C363.676 20.622 363.332 21.59 362.644 22.262C361.956 22.934 360.98 23.27 359.716 23.27H353.956C353.62 23.27 353.452 23.102 353.452 22.766ZM368.628 26.534H366.588C366.252 26.534 366.084 26.374 366.084 26.054V11.534C366.084 11.198 366.252 11.03 366.588 11.03H368.628C368.964 11.03 369.132 11.198 369.132 11.534V12.326H369.228C369.404 11.894 369.716 11.574 370.164 11.366C370.612 11.142 371.084 11.03 371.58 11.03H372.564C373.796 11.03 374.724 11.366 375.348 12.038C375.988 12.71 376.308 13.678 376.308 14.942V19.358C376.308 20.622 375.988 21.59 375.348 22.262C374.724 22.934 373.796 23.27 372.564 23.27H371.58C371.084 23.27 370.612 23.166 370.164 22.958C369.716 22.734 369.404 22.406 369.228 21.974H369.132V26.054C369.132 26.374 368.964 26.534 368.628 26.534ZM370.788 20.63H371.844C372.356 20.63 372.716 20.526 372.924 20.318C373.148 20.094 373.26 19.726 373.26 19.214V15.086C373.26 14.574 373.148 14.214 372.924 14.006C372.716 13.782 372.356 13.67 371.844 13.67H370.788C369.684 13.67 369.132 14.278 369.132 15.494V18.806C369.132 20.022 369.684 20.63 370.788 20.63ZM383.349 23.27H378.789C378.469 23.27 378.309 23.102 378.309 22.766V21.23C378.309 21.054 378.341 20.934 378.405 20.87C378.469 20.79 378.597 20.75 378.789 20.75H382.797C383.581 20.75 383.973 20.51 383.973 20.03V19.91C383.973 19.526 383.645 19.158 382.989 18.806L380.613 17.486C379.797 17.07 379.197 16.622 378.813 16.142C378.429 15.662 378.237 15.046 378.237 14.294C378.237 13.174 378.533 12.35 379.125 11.822C379.717 11.294 380.645 11.03 381.909 11.03H385.917C386.237 11.03 386.397 11.198 386.397 11.534V13.094C386.397 13.27 386.365 13.398 386.301 13.478C386.237 13.542 386.109 13.574 385.917 13.574H382.581C381.797 13.574 381.405 13.774 381.405 14.174V14.294C381.405 14.646 381.749 15.006 382.437 15.374L384.861 16.814C385.693 17.262 386.277 17.726 386.613 18.206C386.949 18.67 387.117 19.286 387.117 20.054C387.117 22.198 385.861 23.27 383.349 23.27ZM388.953 25.358V24.014C388.953 23.726 389.105 23.582 389.409 23.582H389.433C390.825 23.582 391.521 22.654 391.521 20.798V12.758C391.521 10.902 390.825 9.97402 389.433 9.97402H389.409C389.105 9.97402 388.953 9.83002 388.953 9.54202V8.19802C388.953 8.05402 388.985 7.95802 389.049 7.91002C389.113 7.86202 389.233 7.83802 389.409 7.83802H389.433C390.841 7.83802 391.945 8.27002 392.745 9.13402C393.561 9.98202 393.969 11.318 393.969 13.142V20.414C393.969 22.238 393.561 23.574 392.745 24.422C391.945 25.286 390.841 25.718 389.433 25.718H389.409C389.233 25.718 389.113 25.694 389.049 25.646C388.985 25.598 388.953 25.502 388.953 25.358Z" fill="#38ACE3"/>
<path d="M178.116 52.0698H176.1C175.748 52.0698 175.572 51.9018 175.572 51.5658V39.5418C175.572 39.3658 175.484 39.2778 175.308 39.2778H172.572C172.236 39.2778 172.068 39.1098 172.068 38.7738V37.1418C172.068 36.8058 172.236 36.6378 172.572 36.6378H181.644C181.98 36.6378 182.148 36.8058 182.148 37.1418V38.7738C182.148 39.1098 181.98 39.2778 181.644 39.2778H178.908C178.716 39.2778 178.62 39.3658 178.62 39.5418V51.5658C178.62 51.9018 178.452 52.0698 178.116 52.0698ZM185.733 56.1258H184.197C183.877 56.1258 183.717 55.9498 183.717 55.5978V53.9898C183.717 53.6378 183.877 53.4618 184.197 53.4618H184.701C185.709 53.4618 186.389 53.3178 186.741 53.0298C187.109 52.7578 187.389 52.2218 187.581 51.4218H186.309C186.005 51.4218 185.805 51.2538 185.709 50.9178L182.901 40.3338C182.805 39.9978 182.925 39.8298 183.261 39.8298H185.397C185.717 39.8298 185.917 39.9978 185.997 40.3338L188.061 49.1898H188.157L190.197 40.3338C190.261 39.9978 190.461 39.8298 190.797 39.8298H192.813C193.213 39.8298 193.373 40.0058 193.293 40.3578L190.365 52.0698C190.013 53.3978 189.469 54.4058 188.733 55.0938C187.997 55.7818 186.997 56.1258 185.733 56.1258ZM197.582 55.3338H195.542C195.206 55.3338 195.038 55.1738 195.038 54.8538V40.3338C195.038 39.9978 195.206 39.8298 195.542 39.8298H197.582C197.918 39.8298 198.086 39.9978 198.086 40.3338V41.1258H198.182C198.358 40.6938 198.67 40.3738 199.118 40.1658C199.566 39.9418 200.038 39.8298 200.534 39.8298H201.518C202.75 39.8298 203.678 40.1658 204.302 40.8378C204.942 41.5098 205.262 42.4778 205.262 43.7418V48.1578C205.262 49.4218 204.942 50.3898 204.302 51.0618C203.678 51.7338 202.75 52.0698 201.518 52.0698H200.534C200.038 52.0698 199.566 51.9658 199.118 51.7578C198.67 51.5338 198.358 51.2058 198.182 50.7738H198.086V54.8538C198.086 55.1738 197.918 55.3338 197.582 55.3338ZM199.742 49.4298H200.798C201.31 49.4298 201.67 49.3258 201.878 49.1178C202.102 48.8938 202.214 48.5258 202.214 48.0138V43.8858C202.214 43.3738 202.102 43.0138 201.878 42.8058C201.67 42.5818 201.31 42.4698 200.798 42.4698H199.742C198.638 42.4698 198.086 43.0778 198.086 44.2938V47.6058C198.086 48.8218 198.638 49.4298 199.742 49.4298ZM216.694 52.0698H211.39C210.126 52.0698 209.15 51.7338 208.462 51.0618C207.774 50.3898 207.43 49.4218 207.43 48.1578V43.7418C207.43 42.4778 207.774 41.5098 208.462 40.8378C209.15 40.1658 210.126 39.8298 211.39 39.8298H213.286C214.55 39.8298 215.526 40.1658 216.214 40.8378C216.902 41.5098 217.246 42.4778 217.246 43.7418V46.7898C217.246 47.1258 217.078 47.2938 216.742 47.2938H210.718C210.526 47.2938 210.43 47.3818 210.43 47.5578V48.0858C210.43 48.5818 210.534 48.9418 210.742 49.1658C210.966 49.3738 211.334 49.4778 211.846 49.4778H216.694C217.03 49.4778 217.198 49.6538 217.198 50.0058V51.5898C217.198 51.7658 217.158 51.8938 217.078 51.9738C217.014 52.0378 216.886 52.0698 216.694 52.0698ZM210.718 45.2538H213.982C214.158 45.2538 214.246 45.1658 214.246 44.9898V43.8378C214.246 43.3258 214.142 42.9658 213.934 42.7578C213.726 42.5498 213.366 42.4458 212.854 42.4458H211.846C211.334 42.4458 210.974 42.5498 210.766 42.7578C210.558 42.9658 210.454 43.3258 210.454 43.8378V44.9898C210.454 45.1658 210.542 45.2538 210.718 45.2538ZM226.651 52.0698H224.347C224.059 52.0698 223.963 51.9018 224.059 51.5658L227.851 37.1418C227.963 36.8058 228.203 36.6378 228.571 36.6378H231.763C232.163 36.6378 232.403 36.8058 232.483 37.1418L236.275 51.5658C236.371 51.9018 236.275 52.0698 235.987 52.0698H233.683C233.507 52.0698 233.387 52.0378 233.323 51.9738C233.259 51.8938 233.211 51.7578 233.179 51.5658L232.507 48.9258H227.827L227.155 51.5658C227.123 51.7578 227.067 51.8938 226.987 51.9738C226.923 52.0378 226.811 52.0698 226.651 52.0698ZM230.131 39.5418L228.403 46.4778H231.955L230.227 39.5418H230.131ZM247.732 52.0698H247.156C245.892 52.0698 244.916 51.7338 244.228 51.0618C243.54 50.3898 243.196 49.4218 243.196 48.1578V43.7418C243.196 42.4778 243.54 41.5098 244.228 40.8378C244.916 40.1658 245.892 39.8298 247.156 39.8298H252.7C253.052 39.8298 253.228 39.9978 253.228 40.3338V51.5658C253.228 51.9018 253.052 52.0698 252.7 52.0698H250.684C250.348 52.0698 250.18 51.9018 250.18 51.5658V50.7738H250.084C249.908 51.2058 249.596 51.5338 249.148 51.7578C248.7 51.9658 248.228 52.0698 247.732 52.0698ZM250.18 47.6058V42.7338C250.18 42.5578 250.084 42.4698 249.892 42.4698H247.636C247.124 42.4698 246.764 42.5818 246.556 42.8058C246.348 43.0138 246.244 43.3738 246.244 43.8858V48.0138C246.244 48.5258 246.348 48.8938 246.556 49.1178C246.764 49.3258 247.124 49.4298 247.636 49.4298H248.524C249.628 49.4298 250.18 48.8218 250.18 47.6058ZM258.402 52.0698H256.362C256.026 52.0698 255.858 51.9018 255.858 51.5658V40.3338C255.858 39.9978 256.026 39.8298 256.362 39.8298H258.402C258.738 39.8298 258.906 39.9978 258.906 40.3338V41.1258H259.002C259.354 40.2618 260.138 39.8298 261.354 39.8298H262.122C264.634 39.8298 265.89 41.1338 265.89 43.7418V51.5658C265.89 51.9018 265.714 52.0698 265.362 52.0698H263.346C263.01 52.0698 262.842 51.9018 262.842 51.5658V43.8858C262.842 43.3738 262.73 43.0138 262.506 42.8058C262.298 42.5818 261.938 42.4698 261.426 42.4698H260.562C259.458 42.4698 258.906 43.0778 258.906 44.2938V51.5658C258.906 51.9018 258.738 52.0698 258.402 52.0698ZM272.908 52.0698H271.924C270.692 52.0698 269.756 51.7338 269.116 51.0618C268.492 50.3898 268.18 49.4218 268.18 48.1578V43.7418C268.18 42.4778 268.492 41.5098 269.116 40.8378C269.756 40.1658 270.692 39.8298 271.924 39.8298H272.908C273.404 39.8298 273.876 39.9418 274.324 40.1658C274.772 40.3738 275.084 40.6938 275.26 41.1258H275.356V35.7018C275.356 35.3658 275.524 35.1978 275.86 35.1978H277.9C278.236 35.1978 278.404 35.3658 278.404 35.7018V51.5658C278.404 51.9018 278.236 52.0698 277.9 52.0698H275.86C275.524 52.0698 275.356 51.9018 275.356 51.5658V50.7738H275.26C275.084 51.2058 274.772 51.5338 274.324 51.7578C273.876 51.9658 273.404 52.0698 272.908 52.0698ZM275.356 47.6058V44.2938C275.356 43.0778 274.804 42.4698 273.7 42.4698H272.62C272.108 42.4698 271.748 42.5818 271.54 42.8058C271.332 43.0138 271.228 43.3738 271.228 43.8858V48.0138C271.228 48.5258 271.332 48.8938 271.54 49.1178C271.748 49.3258 272.108 49.4298 272.62 49.4298H273.7C274.804 49.4298 275.356 48.8218 275.356 47.6058ZM291.343 52.0698H289.327C288.975 52.0698 288.799 51.9018 288.799 51.5658V39.5418C288.799 39.3658 288.711 39.2778 288.535 39.2778H285.799C285.463 39.2778 285.295 39.1098 285.295 38.7738V37.1418C285.295 36.8058 285.463 36.6378 285.799 36.6378H294.871C295.207 36.6378 295.375 36.8058 295.375 37.1418V38.7738C295.375 39.1098 295.207 39.2778 294.871 39.2778H292.135C291.943 39.2778 291.847 39.3658 291.847 39.5418V51.5658C291.847 51.9018 291.679 52.0698 291.343 52.0698ZM298.959 56.1258H297.423C297.103 56.1258 296.943 55.9498 296.943 55.5978V53.9898C296.943 53.6378 297.103 53.4618 297.423 53.4618H297.927C298.935 53.4618 299.615 53.3178 299.967 53.0298C300.335 52.7578 300.615 52.2218 300.807 51.4218H299.535C299.231 51.4218 299.031 51.2538 298.935 50.9178L296.127 40.3338C296.031 39.9978 296.151 39.8298 296.487 39.8298H298.623C298.943 39.8298 299.143 39.9978 299.223 40.3338L301.287 49.1898H301.383L303.423 40.3338C303.487 39.9978 303.687 39.8298 304.023 39.8298H306.039C306.439 39.8298 306.599 40.0058 306.519 40.3578L303.591 52.0698C303.239 53.3978 302.695 54.4058 301.959 55.0938C301.223 55.7818 300.223 56.1258 298.959 56.1258ZM310.808 55.3338H308.768C308.432 55.3338 308.264 55.1738 308.264 54.8538V40.3338C308.264 39.9978 308.432 39.8298 308.768 39.8298H310.808C311.144 39.8298 311.312 39.9978 311.312 40.3338V41.1258H311.408C311.584 40.6938 311.896 40.3738 312.344 40.1658C312.792 39.9418 313.264 39.8298 313.76 39.8298H314.744C315.976 39.8298 316.904 40.1658 317.528 40.8378C318.168 41.5098 318.488 42.4778 318.488 43.7418V48.1578C318.488 49.4218 318.168 50.3898 317.528 51.0618C316.904 51.7338 315.976 52.0698 314.744 52.0698H313.76C313.264 52.0698 312.792 51.9658 312.344 51.7578C311.896 51.5338 311.584 51.2058 311.408 50.7738H311.312V54.8538C311.312 55.1738 311.144 55.3338 310.808 55.3338ZM312.968 49.4298H314.024C314.536 49.4298 314.896 49.3258 315.104 49.1178C315.328 48.8938 315.44 48.5258 315.44 48.0138V43.8858C315.44 43.3738 315.328 43.0138 315.104 42.8058C314.896 42.5818 314.536 42.4698 314.024 42.4698H312.968C311.864 42.4698 311.312 43.0778 311.312 44.2938V47.6058C311.312 48.8218 311.864 49.4298 312.968 49.4298ZM329.921 52.0698H324.617C323.353 52.0698 322.377 51.7338 321.689 51.0618C321.001 50.3898 320.657 49.4218 320.657 48.1578V43.7418C320.657 42.4778 321.001 41.5098 321.689 40.8378C322.377 40.1658 323.353 39.8298 324.617 39.8298H326.513C327.777 39.8298 328.753 40.1658 329.441 40.8378C330.129 41.5098 330.473 42.4778 330.473 43.7418V46.7898C330.473 47.1258 330.305 47.2938 329.969 47.2938H323.945C323.753 47.2938 323.657 47.3818 323.657 47.5578V48.0858C323.657 48.5818 323.761 48.9418 323.969 49.1658C324.193 49.3738 324.561 49.4778 325.073 49.4778H329.921C330.257 49.4778 330.425 49.6538 330.425 50.0058V51.5898C330.425 51.7658 330.385 51.8938 330.305 51.9738C330.241 52.0378 330.113 52.0698 329.921 52.0698ZM323.945 45.2538H327.209C327.385 45.2538 327.473 45.1658 327.473 44.9898V43.8378C327.473 43.3258 327.369 42.9658 327.161 42.7578C326.953 42.5498 326.593 42.4458 326.081 42.4458H325.073C324.561 42.4458 324.201 42.5498 323.993 42.7578C323.785 42.9658 323.681 43.3258 323.681 43.8378V44.9898C323.681 45.1658 323.769 45.2538 323.945 45.2538ZM344.606 52.0698H341.99C340.726 52.0698 339.75 51.7338 339.062 51.0618C338.374 50.3898 338.03 49.4218 338.03 48.1578V40.5498C338.03 39.2858 338.374 38.3178 339.062 37.6458C339.75 36.9738 340.726 36.6378 341.99 36.6378H344.606C345.854 36.6378 346.822 36.9818 347.51 37.6698C348.214 38.3418 348.566 39.3018 348.566 40.5498V41.6778C348.566 42.0298 348.39 42.2058 348.038 42.2058H346.022C345.686 42.2058 345.518 42.0298 345.518 41.6778V40.6938C345.518 40.1818 345.406 39.8218 345.182 39.6138C344.974 39.3898 344.614 39.2778 344.102 39.2778H342.47C341.974 39.2778 341.614 39.3898 341.39 39.6138C341.182 39.8218 341.078 40.1818 341.078 40.6938V48.0138C341.078 48.5258 341.182 48.8938 341.39 49.1178C341.614 49.3258 341.974 49.4298 342.47 49.4298H344.102C344.614 49.4298 344.974 49.3258 345.182 49.1178C345.406 48.8938 345.518 48.5258 345.518 48.0138V47.0298C345.518 46.6778 345.686 46.5018 346.022 46.5018H348.038C348.39 46.5018 348.566 46.6778 348.566 47.0298V48.1578C348.566 49.4058 348.214 50.3738 347.51 51.0618C346.822 51.7338 345.854 52.0698 344.606 52.0698Z" fill="#38ACE3"/>
<path d="M159.61 4.16992H154.39V61.4697H159.61V4.16992Z" fill="#38ACE3"/>
<path d="M439.29 58.0698L438.92 57.9497L438.77 56.75H439.4C439.711 56.746 440.01 56.6258 440.238 56.4131C440.465 56.2004 440.605 55.9106 440.63 55.6001C440.626 55.5094 440.602 55.4205 440.56 55.3398C439.88 53.5398 439.19 51.7299 438.56 49.9199L438.44 49.6001H439.32C440.15 49.6001 440.15 49.6001 440.41 50.3901C440.75 51.3901 441.1 52.4397 441.41 53.4697C441.41 53.5597 441.48 53.6501 441.54 53.8101C441.75 53.1701 441.94 52.59 442.14 52.02C442.4 51.28 442.66 50.5398 442.94 49.7998C442.94 49.7198 443.06 49.6099 443.12 49.6099H444.63C444.4 50.2299 444.2 50.8001 443.99 51.3701L442.67 54.9897C442.48 55.4897 442.26 55.99 442.07 56.48C441.959 56.8693 441.742 57.22 441.444 57.4937C441.146 57.7673 440.777 57.9529 440.38 58.0298L439.29 58.0698Z" fill="#38ACE3"/>
<path d="M451.15 43.6499C446.39 43.6499 441.64 43.6499 436.89 43.6499C434.969 43.682 433.072 43.2208 431.38 42.3101C429.946 41.5713 428.701 40.512 427.742 39.2149C426.783 37.9178 426.136 36.4177 425.85 34.8301C425.395 32.6257 425.644 30.3337 426.563 28.2788C427.482 26.224 429.023 24.5102 430.97 23.3799C432.672 22.3541 434.623 21.8145 436.61 21.8199C446.297 21.8199 455.99 21.8199 465.69 21.8199C468.201 21.825 470.634 22.6887 472.586 24.2676C474.538 25.8466 475.891 28.046 476.42 30.5C476.702 31.6309 476.767 32.8051 476.61 33.96C476.332 36.1915 475.38 38.2849 473.881 39.961C472.382 41.637 470.407 42.8158 468.22 43.3399C467.377 43.5356 466.515 43.6329 465.65 43.6299C460.81 43.6599 455.98 43.6499 451.15 43.6499ZM451.15 24.8501C446.41 24.8501 441.67 24.8501 436.92 24.8501C435.765 24.8616 434.628 25.1381 433.596 25.6582C432.565 26.1783 431.666 26.9282 430.97 27.8501C429.777 29.3185 429.162 31.1731 429.243 33.0635C429.324 34.954 430.095 36.7491 431.41 38.1099C432.153 38.8917 433.046 39.5155 434.036 39.9434C435.026 40.3713 436.092 40.5947 437.17 40.6001C446.503 40.6001 455.837 40.6001 465.17 40.6001C465.918 40.594 466.661 40.486 467.38 40.2798C469.198 39.7365 470.758 38.5549 471.774 36.9522C472.79 35.3495 473.192 33.434 472.907 31.5581C472.622 29.6822 471.67 27.9721 470.224 26.7432C468.778 25.5143 466.937 24.8493 465.04 24.8702L451.15 24.8501Z" fill="#38ACE3"/>
<path d="M448.41 11.2597H446.64V10.81C446.648 10.6532 446.609 10.4974 446.529 10.3623C446.449 10.2271 446.331 10.1183 446.19 10.0498C445.755 9.9037 445.284 9.91155 444.854 10.0718C444.424 10.232 444.063 10.5352 443.83 10.9302C443.771 11.0102 443.73 11.1022 443.712 11.2002C443.693 11.2981 443.697 11.3989 443.723 11.4951C443.749 11.5913 443.796 11.6806 443.862 11.7558C443.927 11.8311 444.008 11.8909 444.1 11.9302C444.782 12.4005 445.583 12.6671 446.41 12.6997C446.956 12.6698 447.504 12.6698 448.05 12.6997C448.168 12.7067 448.286 12.684 448.392 12.6333C448.499 12.5826 448.591 12.506 448.66 12.4101C449.42 11.5301 450.2 10.67 450.95 9.76999C451.23 9.43396 451.585 9.16831 451.986 8.9946C452.387 8.8209 452.824 8.74401 453.26 8.76999C454.16 8.76999 455.05 8.76999 455.95 8.76999C456.037 8.7831 456.126 8.76667 456.202 8.72312C456.278 8.67957 456.337 8.6112 456.37 8.52976C456.547 8.19606 456.834 7.93326 457.181 7.78415C457.528 7.63505 457.916 7.60876 458.28 7.70994C458.64 7.80394 458.959 8.01304 459.188 8.30564C459.418 8.59824 459.545 8.9583 459.55 9.33005C459.549 9.69669 459.432 10.0536 459.214 10.3486C458.996 10.6436 458.69 10.861 458.34 10.9697C457.969 11.0904 457.568 11.0801 457.203 10.9399C456.839 10.7997 456.534 10.5381 456.34 10.1997C456.293 10.1426 456.236 10.0959 456.17 10.0615C456.105 10.0271 456.034 10.0061 455.96 9.99998C455.03 9.99998 454.09 9.99998 453.15 9.99998C452.92 9.99619 452.692 10.0435 452.483 10.1386C452.274 10.2338 452.088 10.3741 451.94 10.5498C451.32 11.2598 450.69 11.9599 450.02 12.7099H466.45V11.25L470.02 13.3398L466.48 15.4399V13.9399H454.57L454.75 14.1802C455.37 14.8902 455.99 15.5898 456.6 16.2998C456.747 16.4829 456.935 16.6288 457.148 16.726C457.362 16.8233 457.596 16.8692 457.83 16.8598H460.41V15.73C460.53 15.7223 460.65 15.7223 460.77 15.73H463.64C463.9 15.73 463.99 15.8201 463.99 16.0801C463.99 17.0801 463.99 18.01 463.99 18.98C463.99 19.16 463.99 19.3198 463.73 19.3198H460.62C460.56 19.3252 460.5 19.3252 460.44 19.3198V18.2099H460.05H457.81C457.397 18.2201 456.988 18.1353 456.613 17.9619C456.239 17.7885 455.909 17.5312 455.65 17.2099C455.15 16.6399 454.65 16.0597 454.17 15.4897C453.69 14.9197 453.37 14.5999 452.96 14.1699C452.882 14.0839 452.775 14.0305 452.66 14.02H447.15H446.98C447.094 14.3891 447.124 14.7789 447.068 15.1611C447.013 15.5433 446.874 15.9082 446.66 16.23C446.359 16.6971 445.956 17.0901 445.482 17.3794C445.007 17.6686 444.473 17.8465 443.92 17.8999C442.992 18.0941 442.026 17.945 441.2 17.48C440.79 17.218 440.48 16.8272 440.317 16.3691C440.154 15.911 440.148 15.4115 440.3 14.9497H442.1C442.1 15.0497 442.1 15.1197 442.1 15.1997C442.056 15.3401 442.045 15.4891 442.07 15.6343C442.094 15.7794 442.153 15.917 442.241 16.0351C442.328 16.1533 442.443 16.2488 442.575 16.3139C442.707 16.3791 442.853 16.4122 443 16.4101C443.361 16.5166 443.746 16.51 444.103 16.3921C444.46 16.2741 444.773 16.0503 445 15.75C445.112 15.6371 445.193 15.4972 445.235 15.3437C445.277 15.1903 445.278 15.0286 445.239 14.8745C445.199 14.7204 445.121 14.579 445.011 14.4643C444.9 14.3496 444.762 14.2651 444.61 14.2197C443.959 13.9204 443.325 13.5866 442.71 13.2197C442.316 12.9557 442.034 12.555 441.92 12.0947C441.805 11.6344 441.866 11.1479 442.09 10.73C442.445 9.9645 443.073 9.35836 443.85 9.02976C444.812 8.52089 445.932 8.3994 446.98 8.68992C447.507 8.84574 447.953 9.20204 448.22 9.68259C448.487 10.1631 448.556 10.7294 448.41 11.2597Z" fill="#38ACE3"/>
<path d="M432.56 14.84H434.31C434.31 14.97 434.31 15.0798 434.31 15.1998C434.282 15.333 434.284 15.4708 434.315 15.6031C434.347 15.7355 434.407 15.8593 434.492 15.9654C434.578 16.0716 434.685 16.1578 434.808 16.2174C434.93 16.277 435.064 16.3087 435.2 16.3102C435.554 16.4066 435.928 16.3921 436.274 16.2687C436.619 16.1453 436.918 15.919 437.13 15.6202C437.239 15.5038 437.316 15.3609 437.354 15.2057C437.391 15.0505 437.387 14.8883 437.343 14.735C437.298 14.5816 437.215 14.4425 437.1 14.3312C436.986 14.2199 436.844 14.1403 436.69 14.1002C436.25 13.9002 435.81 13.7299 435.39 13.5099C435.058 13.3671 434.766 13.146 434.539 12.8653C434.312 12.5847 434.156 12.2532 434.085 11.899C434.014 11.5449 434.03 11.1791 434.132 10.8326C434.234 10.4862 434.419 10.1696 434.67 9.91027C435.036 9.48712 435.482 9.1415 435.984 8.89415C436.486 8.64681 437.032 8.50233 437.59 8.46984C438.271 8.3508 438.971 8.45245 439.59 8.75988C440.025 8.99189 440.363 9.37033 440.546 9.82775C440.729 10.2852 440.745 10.7921 440.59 11.2599H438.8C438.8 11.1199 438.8 11.0102 438.8 10.8902C438.819 10.7162 438.782 10.5407 438.696 10.3883C438.61 10.2359 438.479 10.1142 438.32 10.0402C437.919 9.90699 437.487 9.90383 437.085 10.0314C436.682 10.1589 436.331 10.4105 436.08 10.7501C435.996 10.8445 435.936 10.9581 435.906 11.0812C435.876 11.2042 435.877 11.333 435.909 11.4557C435.94 11.5783 436.002 11.6911 436.087 11.7843C436.173 11.8775 436.28 11.9481 436.4 11.9899C436.87 12.2299 437.4 12.41 437.84 12.65C438.241 12.8116 438.587 13.0872 438.834 13.4425C439.081 13.7978 439.218 14.2175 439.23 14.65C439.212 15.3335 438.954 15.9888 438.5 16.5001C437.838 17.1811 436.97 17.6251 436.03 17.7643C435.091 17.9034 434.131 17.7299 433.3 17.2701C432.938 16.9932 432.672 16.6098 432.54 16.1739C432.407 15.7381 432.414 15.2715 432.56 14.84Z" fill="#38ACE3"/>
<path d="M468.32 52.6L468.69 52.7098L469.94 53.1C469.839 53.6643 469.589 54.1915 469.216 54.6273C468.844 55.0632 468.362 55.392 467.82 55.58C467.204 55.8094 466.54 55.8775 465.891 55.7777C465.242 55.6779 464.628 55.4133 464.11 55.0096C463.513 54.5486 463.087 53.901 462.9 53.1698C462.575 52.0734 462.575 50.9063 462.9 49.8099C463.16 48.9542 463.726 48.2236 464.489 47.7572C465.252 47.2908 466.16 47.1209 467.04 47.2797C467.709 47.3087 468.349 47.561 468.858 47.996C469.368 48.4309 469.717 49.0238 469.85 49.68L468.26 50.0599C468.164 49.8329 468.047 49.6154 467.91 49.41C467.71 49.1275 467.429 48.9116 467.105 48.7904C466.78 48.6692 466.427 48.648 466.09 48.7299C465.752 48.7755 465.433 48.9148 465.169 49.1322C464.906 49.3496 464.709 49.6362 464.6 49.9598C464.301 50.9375 464.301 51.9822 464.6 52.9598C464.713 53.3776 464.964 53.7447 465.313 54.0009C465.662 54.257 466.088 54.3873 466.52 54.37C466.917 54.3663 467.301 54.2261 467.607 53.973C467.913 53.7199 468.122 53.3691 468.2 52.9799C468.25 52.8499 468.28 52.74 468.32 52.6Z" fill="#38ACE3"/>
<path d="M447.15 55.0201V57.8799H445.57V49.6802H447.02V50.4102C447.09 50.4102 447.12 50.4102 447.14 50.4102C447.414 50.0556 447.789 49.7923 448.216 49.6548C448.642 49.5174 449.1 49.5123 449.53 49.6402C449.962 49.7539 450.354 49.9879 450.658 50.3155C450.963 50.643 451.168 51.0501 451.25 51.4898C451.537 52.4563 451.462 53.4947 451.04 54.4102C450.924 54.6882 450.754 54.9405 450.541 55.1529C450.327 55.3652 450.074 55.5332 449.795 55.6475C449.516 55.7617 449.218 55.8197 448.917 55.8184C448.616 55.8171 448.318 55.7568 448.04 55.6402C447.723 55.4643 447.425 55.2564 447.15 55.0201ZM449.77 52.7598C449.77 52.4098 449.71 52.1399 449.66 51.8799C449.619 51.6124 449.494 51.3646 449.304 51.1724C449.114 50.9801 448.867 50.8535 448.6 50.8101C448.353 50.7613 448.096 50.7978 447.873 50.9141C447.649 51.0304 447.472 51.2193 447.37 51.4497C447.17 51.8429 447.073 52.2809 447.089 52.7217C447.105 53.1626 447.232 53.5918 447.46 53.9698C447.573 54.1777 447.749 54.3446 447.963 54.4453C448.177 54.5461 448.418 54.5755 448.65 54.5298C448.866 54.5033 449.068 54.4131 449.232 54.2705C449.396 54.128 449.514 53.9399 449.57 53.73C449.662 53.4113 449.736 53.0872 449.79 52.7598H449.77Z" fill="#38ACE3"/>
<path d="M456.21 53.7703L457.71 54.0203C457.608 54.4411 457.388 54.8238 457.076 55.1248C456.765 55.4257 456.374 55.632 455.95 55.72C455.223 55.8701 454.468 55.815 453.77 55.5603C453.49 55.4525 453.234 55.2886 453.019 55.0789C452.804 54.8691 452.635 54.6177 452.52 54.3401C452.269 53.8068 452.138 53.2245 452.138 52.635C452.138 52.0455 452.269 51.4637 452.52 50.9304C452.774 50.4268 453.183 50.0181 453.688 49.7659C454.192 49.5136 454.765 49.4309 455.32 49.53C455.892 49.578 456.432 49.8154 456.854 50.2048C457.276 50.5943 457.556 51.1138 457.65 51.6804C457.72 52.0004 457.74 52.3304 457.78 52.6804C457.78 52.8204 457.78 52.9601 457.78 53.1301H453.78C453.756 53.4131 453.819 53.6966 453.96 53.9431C454.101 54.1896 454.314 54.3873 454.57 54.51C455.31 54.73 455.78 54.5203 456.21 53.7703ZM456.26 52.1404C456.285 51.8902 456.236 51.6381 456.118 51.4158C456.001 51.1935 455.821 51.0109 455.6 50.8904C455.418 50.7829 455.207 50.7354 454.997 50.7551C454.787 50.7749 454.589 50.8608 454.43 51.0002C454.256 51.1302 454.119 51.3042 454.035 51.5046C453.95 51.7051 453.921 51.9248 453.95 52.1404H456.26Z" fill="#38ACE3"/>
<path d="M434.84 48.7998H432.39V47.4302H438.91V48.7798H436.53V55.6401H434.84V48.7998Z" fill="#38ACE3"/>
<path d="M458.97 53.4399V51.9399H462.04V53.4697L458.97 53.4399Z" fill="#38ACE3"/>
<path d="M451.15 29.7598H466.72C467.114 29.7395 467.508 29.7973 467.88 29.9293C468.252 30.0612 468.594 30.2647 468.887 30.5289C469.18 30.7931 469.418 31.1126 469.587 31.4688C469.757 31.825 469.855 32.2111 469.875 32.6051C469.895 32.999 469.838 33.393 469.706 33.7647C469.574 34.1365 469.37 34.4786 469.106 34.7716C468.842 35.0645 468.522 35.3027 468.166 35.4722C467.81 35.6418 467.424 35.7395 467.03 35.7598H435.49C434.801 35.7965 434.121 35.5947 433.564 35.1886C433.006 34.7824 432.606 34.1966 432.43 33.5299C432.32 33.0972 432.307 32.6457 432.393 32.2076C432.48 31.7695 432.663 31.356 432.929 30.9976C433.195 30.6393 433.538 30.3447 433.933 30.1358C434.328 29.9269 434.764 29.809 435.21 29.7901C437.88 29.7901 440.55 29.7901 443.21 29.7901L451.15 29.7598Z" fill="#38ACE3"/>
<path d="M9.32001 10.3799H136.9" stroke="#38ACE3" stroke-miterlimit="10"/>
<path d="M11.31 13.2798L0.470032 10.3799L11.31 7.46973V13.2798Z" fill="#38ACE3"/>
</svg>
