<svg xmlns="http://www.w3.org/2000/svg" viewBox="0 0 491.19 156.85"><defs><style>.cls-1,.cls-2{fill:#595757;}.cls-2{fill-rule:evenodd;}.cls-3{fill:#38ace3;}.cls-4{fill:#fff;}</style></defs><g id="圖層_2" data-name="圖層 2"><g id="p8"><path class="cls-1" d="M393.31,54v-2.8c0-.74-.33-2-2.58-2H389c-2.24,0-2.57,1.23-2.57,2V54c-.46,0-.7.22-.7.58v2.26c0,.39.27.58.83.58h.64c.56,0,.84-.19.84-.58V54.6c0-.35-.24-.54-.69-.57V51.22c0-.31,0-1,1.65-1h1.69c1.66,0,1.66.74,1.66,1V54c-.45,0-.69.22-.69.57v2.26c0,.3.18.48.52.55-.18.23-.57.44-1.42.46,0-.27-.13-.41-.31-.41h-1.25c-.22,0-.32.21-.32.62v.48c0,.41.1.61.32.61h1.25c.17,0,.27-.13.31-.38,1.64,0,2.23-.71,2.43-1.35.52,0,.78-.21.78-.58V54.6C394,54.24,393.77,54.05,393.31,54Z"/><path class="cls-1" d="M342,49.25v5.61c0,.87-.56,1.3-1.68,1.3h-1.17c-1.11,0-1.66-.44-1.66-1.31v-5.6h1.38v5.62c0,.31.21.46.61.46H340c.37,0,.56-.15.56-.46V49.25Z"/><path class="cls-1" d="M345.88,51.11V50.5c0-.27-.2-.41-.61-.41h-.22c-.39,0-.59.14-.59.41v1.15a.28.28,0,0,0,.12.26l.37.17,1.32.47c.29.11.49.2.61.26a.74.74,0,0,1,.29.22.94.94,0,0,1,.1.5V55c0,.78-.56,1.16-1.68,1.16h-.85c-1.11,0-1.67-.42-1.67-1.27v-.34h1.39v.37c0,.27.21.41.62.41h.25c.37,0,.55-.14.55-.41V53.75a.27.27,0,0,0-.12-.26,2.12,2.12,0,0,0-.37-.18l-1.32-.49a4.51,4.51,0,0,1-.63-.26.67.67,0,0,1-.28-.27.93.93,0,0,1-.09-.44V50.44c0-.79.56-1.19,1.67-1.19h.86c1.11,0,1.67.4,1.67,1.19v.67Z"/><path class="cls-1" d="M351.58,52.61c.76.14,1.14.41,1.14.79v1.73c0,.69-.52,1-1.58,1h-2.79V49.25h2.37c1.24,0,1.86.42,1.86,1.25v1.33c0,.4-.34.64-1,.73Zm-1.84-.44h.65c.53,0,.8-.17.8-.5V50.59c0-.33-.21-.5-.63-.5h-.82Zm0,3.16h1c.37,0,.55-.1.55-.3V53.5c0-.33-.27-.49-.82-.49h-.77Z"/><path class="cls-2" d="M272.05,57.53a5.21,5.21,0,0,0,2.61-9.73l-.78,1.35a3.65,3.65,0,1,1-3.66,0l-.78-1.35a5.21,5.21,0,0,0,2.61,9.73Z"/><rect class="cls-1" x="271.27" y="46.71" width="1.56" height="6"/><g id="CIRCLE"><path class="cls-1" d="M272.05,69.28a10.93,10.93,0,1,1-10.92,10.93,10.92,10.92,0,0,1,10.92-10.93m0-.72A11.65,11.65,0,1,0,283.7,80.21a11.66,11.66,0,0,0-11.65-11.65Z"/></g><g id="CIRCLE-2" data-name="CIRCLE"><circle class="cls-1" cx="272.05" cy="80.21" r="8.96"/></g><path class="cls-1" d="M389.89,74.17A9.8,9.8,0,1,1,380.1,84a9.81,9.81,0,0,1,9.79-9.8m0-.73A10.53,10.53,0,1,0,400.41,84a10.52,10.52,0,0,0-10.52-10.53Z"/><path class="cls-1" d="M389.89,78.58a5.37,5.37,0,0,1,5.31,4.66h2.69a8,8,0,0,0-16,0h2.69A5.37,5.37,0,0,1,389.89,78.58Z"/><path class="cls-1" d="M389.89,89.34a5.36,5.36,0,0,1-5.31-4.65h-2.69a8,8,0,0,0,16,0H395.2A5.36,5.36,0,0,1,389.89,89.34Z"/><path class="cls-1" d="M459.57,125.86H409.19c-1.38,0-2.62-1.22-3.08-3l-1.14-4.5a.31.31,0,0,1,0-.23.28.28,0,0,1,.21-.1h58.32a.26.26,0,0,1,.2.1.28.28,0,0,1,.05.23l-1.14,4.5C462.19,124.64,461,125.86,459.57,125.86Zm-54-7.34,1.06,4.18c.4,1.58,1.44,2.64,2.58,2.64h50.38c1.14,0,2.18-1.06,2.58-2.64l1.05-4.18Z"/><path class="cls-1" d="M82,125.86H31.62c-1.38,0-2.61-1.22-3.08-3l-1.14-4.5a.28.28,0,0,1,.05-.23.28.28,0,0,1,.21-.1H86a.28.28,0,0,1,.21.1.28.28,0,0,1,0,.23l-1.14,4.5C84.62,124.64,83.39,125.86,82,125.86Zm-54-7.34,1.06,4.18c.4,1.58,1.44,2.64,2.57,2.64H82c1.13,0,2.17-1.06,2.57-2.64l1.06-4.18Z"/><path class="cls-1" d="M16.53,118.13a.26.26,0,0,1-.26-.26V34.38a.26.26,0,0,1,.26-.26.26.26,0,0,1,.26.26v83.49A.25.25,0,0,1,16.53,118.13Z"/><path class="cls-1" d="M474.66,118.18a.26.26,0,0,1-.26-.26v-84a.26.26,0,0,1,.52,0v84A.26.26,0,0,1,474.66,118.18Z"/><path class="cls-1" d="M446.1,33.11c1.93,0,3.85,0,5.77,0s3.57,0,5.35.07l4.95.13c1.5,0,3,.1,4.49.17,1.35.06,2.69.13,4,.21s2.66.18,4,.28h.09c1.84.15,3.54.32,5.18.52,2,.25,3.84.53,5.55.85a25.31,25.31,0,0,1,4.93,1.37.37.37,0,0,1,.23.35v80.27a.38.38,0,0,1-.38.38H.9a.38.38,0,0,1-.38-.38V37.09a.37.37,0,0,1,.24-.35,25.42,25.42,0,0,1,4.92-1.37c1.71-.32,3.53-.6,5.56-.85,1.63-.2,3.33-.37,5.18-.52h.08c2.12-.17,4.34-.31,6.8-.43,2.05-.1,4.11-.18,6.16-.24,1.88-.06,3.76-.1,5.64-.14,1.68,0,3.37,0,5-.06l4.94,0h401m0-.52h-401l-4.94,0c-1.69,0-3.38,0-5.06.06-1.88,0-3.77.08-5.65.14q-3.07.09-6.17.24-3.4.16-6.81.43h0c-1.77.14-3.53.31-5.29.53s-3.74.5-5.59.85a26.18,26.18,0,0,0-5,1.39.9.9,0,0,0-.56.84v80.27a.9.9,0,0,0,.9.9H490.29a.9.9,0,0,0,.9-.9V37.09a.9.9,0,0,0-.56-.84,25.78,25.78,0,0,0-5-1.39q-2.78-.53-5.59-.85c-1.75-.22-3.52-.39-5.29-.53h0c-1.33-.1-2.67-.2-4-.28l-4-.21c-1.51-.07-3-.12-4.51-.17l-4.95-.13c-1.78,0-3.57-.06-5.35-.07s-3.85,0-5.78,0Z"/><g id="CIRCLE-3" data-name="CIRCLE"><path class="cls-1" d="M272.05,63.94a16.27,16.27,0,1,1-16.27,16.27,16.29,16.29,0,0,1,16.27-16.27m0-.52a16.79,16.79,0,1,0,16.79,16.79,16.79,16.79,0,0,0-16.79-16.79Z"/></g><path class="cls-1" d="M389.89,69.46A14.51,14.51,0,1,1,375.38,84a14.52,14.52,0,0,1,14.51-14.51m0-.52a15,15,0,1,0,15,15,15,15,0,0,0-15-15Z"/><path class="cls-1" d="M364.19,96.18a1,1,0,0,1,1,1v16a1,1,0,0,1-1,1H326a1,1,0,0,1-1-1v-16a1,1,0,0,1,1-1h38.18m0-.52H326a1.5,1.5,0,0,0-1.5,1.5v16a1.51,1.51,0,0,0,1.5,1.51h38.18a1.51,1.51,0,0,0,1.5-1.51v-16a1.5,1.5,0,0,0-1.5-1.5Z"/><path class="cls-1" d="M364.19,69.09a.78.78,0,0,1,.77.78v16a.77.77,0,0,1-.77.77H326a.76.76,0,0,1-.77-.77v-16a.77.77,0,0,1,.77-.78h38.18m0-.73H326a1.51,1.51,0,0,0-1.5,1.51v16a1.5,1.5,0,0,0,1.5,1.5h38.18a1.5,1.5,0,0,0,1.5-1.5v-16a1.51,1.51,0,0,0-1.5-1.51Z"/><rect class="cls-1" x="328.99" y="72.76" width="31.99" height="4.48"/><rect class="cls-1" x="335.51" y="104.23" width="19.19" height="1.92"/><path class="cls-1" d="M354,110.27H336.16a4.89,4.89,0,0,1-4.88-4.88V105a4.89,4.89,0,0,1,4.88-4.88H354A4.89,4.89,0,0,1,358.9,105v.41A4.89,4.89,0,0,1,354,110.27Zm-17.86-9.44A4.15,4.15,0,0,0,332,105v.41a4.15,4.15,0,0,0,4.15,4.15H354a4.15,4.15,0,0,0,4.15-4.15V105a4.15,4.15,0,0,0-4.15-4.15Z"/><path class="cls-3" d="M272.34,43.73a.2.2,0,0,1-.21-.2V20.37a.21.21,0,0,1,.21-.21.21.21,0,0,1,.21.21V43.53A.21.21,0,0,1,272.34,43.73Z"/><path class="cls-3" d="M345.17,43.73a.2.2,0,0,1-.21-.2V20.37a.21.21,0,0,1,.42,0V43.53A.2.2,0,0,1,345.17,43.73Z"/><path class="cls-3" d="M272.05,17.7h0a8.85,8.85,0,0,1-8.85-8.85h0A8.85,8.85,0,0,1,272.05,0h0a8.85,8.85,0,0,1,8.85,8.85h0A8.85,8.85,0,0,1,272.05,17.7Z"/><path class="cls-4" d="M271.75,5.29l-2.41,1.58-.79-1.31,3.34-2.24h1.62V13.64h-1.76Z"/><path class="cls-3" d="M345.17,17.7h0a8.85,8.85,0,0,1-8.85-8.85h0A8.85,8.85,0,0,1,345.17,0h0A8.85,8.85,0,0,1,354,8.85h0A8.85,8.85,0,0,1,345.17,17.7Z"/><path class="cls-4" d="M341.85,12.15l2.53-2.62c1.33-1.36,2.1-2.19,2.1-3.27s-.6-1.55-1.93-1.55A17.07,17.07,0,0,0,342,5l-.11-1.37a11.48,11.48,0,0,1,3-.46c2.28,0,3.33.94,3.33,2.88,0,1.56-.66,2.47-2.25,4l-2.21,2.11h4.66v1.53h-6.64Z"/><path class="cls-3" d="M346.33,156.85h0a8.85,8.85,0,0,1-8.85-8.85h0a8.85,8.85,0,0,1,8.85-8.85h0a8.85,8.85,0,0,1,8.85,8.85h0A8.85,8.85,0,0,1,346.33,156.85Z"/><path class="cls-4" d="M342.88,152.48l.11-1.36a21.78,21.78,0,0,0,3,.31c1.25,0,1.88-.53,1.88-1.64s-.75-1.53-1.77-1.55h-2.08v-1.47h2.08a1.63,1.63,0,0,0,1.55-1.59c0-.92-.53-1.34-1.78-1.34a16.73,16.73,0,0,0-2.77.29l-.14-1.32a10.38,10.38,0,0,1,3-.5c2.59,0,3.48.89,3.48,2.76a2.64,2.64,0,0,1-1.34,2.33,2.16,2.16,0,0,1,1.54,2.34c0,2.14-1,3.22-3.43,3.22A14.29,14.29,0,0,1,342.88,152.48Z"/><path class="cls-3" d="M346.33,136.69a.21.21,0,0,1-.21-.21V115.41a.21.21,0,0,1,.21-.21.2.2,0,0,1,.2.21v21.07A.2.2,0,0,1,346.33,136.69Z"/><path class="cls-3" d="M389.89,156.85h0A8.85,8.85,0,0,1,381,148h0a8.85,8.85,0,0,1,8.85-8.85h0a8.85,8.85,0,0,1,8.85,8.85h0A8.85,8.85,0,0,1,389.89,156.85Z"/><path class="cls-4" d="M390.78,151h-4.64v-1.34l2.72-7.14h1.92l-2.86,6.94h2.86v-3h1.75v3h1.13V151h-1.13v1.83h-1.75Z"/><path class="cls-3" d="M389.89,136.69a.21.21,0,0,1-.21-.21V100.32a.21.21,0,0,1,.21-.21.2.2,0,0,1,.2.21v36.16A.21.21,0,0,1,389.89,136.69Z"/></g></g></svg>