<svg width="471" height="78" viewBox="0 0 471 78" fill="none" xmlns="http://www.w3.org/2000/svg">
<g clip-path="url(#clip0_69_2)">
<path d="M25.3496 47.1499H26.9996V51.3999H31.2896V47.1499H32.9396V57.1499H31.2896V52.8501H26.9996V57.1499H25.3696L25.3496 47.1499Z" fill="#38ACE3"/>
<path d="M35.2002 47.1499H38.6402C41.8802 47.1499 42.6402 48.8502 42.6402 51.9702C42.6402 55.0902 41.9402 57.1299 38.6402 57.1299H35.2002V47.1499ZM38.6402 55.7002C40.6402 55.7002 40.9702 54.1602 40.9702 51.9702C40.9702 49.7802 40.6502 48.5698 38.6402 48.5698H36.8302V55.7002H38.6402Z" fill="#38ACE3"/>
<path d="M44.5402 47.1499H47.3702L49.5803 54.9302L51.8002 47.1499H54.6403V57.1499H53.0002V49H52.7803L50.4202 56.77H48.7302L46.3802 49H46.1602V57.1802H44.5303L44.5402 47.1499Z" fill="#38ACE3"/>
<path d="M56.9297 47.1499H58.5597V57.1499H56.9297V47.1499Z" fill="#38ACE3"/>
<path d="M63.8799 55.75L66.2299 53.2998C67.4799 52.0298 68.2299 51.3 68.2299 50.25C68.2299 49.2 67.6799 48.8101 66.4399 48.8101C65.6445 48.8304 64.852 48.914 64.0699 49.0601L63.9698 47.77C64.8973 47.5057 65.8556 47.3646 66.8199 47.3501C68.9399 47.3501 69.9199 48.2198 69.9199 50.0298C69.9199 51.4898 69.3099 52.33 67.8199 53.73L65.7599 55.73H70.1099V57.1602H63.9199L63.8799 55.75Z" fill="#38ACE3"/>
<path d="M71.9404 55H73.6704V57.1001H71.9404V55Z" fill="#38ACE3"/>
<path d="M75 52.4199C75 48.6499 76.32 47.3501 78.64 47.3501C80.96 47.3501 82.27 48.6299 82.27 52.4199C82.27 56.2099 80.94 57.29 78.64 57.29C76.34 57.29 75 56.0999 75 52.4199ZM80.59 52.4199C80.59 49.5899 80 48.7798 78.59 48.7798C77.18 48.7798 76.59 49.5899 76.59 52.4199C76.59 55.0599 77.24 55.8599 78.59 55.8599C79.94 55.8599 80.57 55.0499 80.57 52.4199H80.59Z" fill="#38ACE3"/>
<path d="M25.3496 2.64014H28.7896C32.0296 2.64014 32.7896 4.35021 32.7896 7.47021C32.7896 10.5902 32.0896 12.6299 28.7896 12.6299H25.3496V2.64014ZM28.7896 11.2002C30.7896 11.2002 31.1296 9.65021 31.1296 7.47021C31.1296 5.29021 30.8096 4.06982 28.7896 4.06982H26.9996V11.2002H28.7896Z" fill="#38ACE3"/>
<path d="M34.2998 7.64014C34.2998 4.03014 35.0598 2.47998 38.0498 2.47998C39.0102 2.50201 39.9656 2.62616 40.8998 2.8501L40.8398 4.16992C39.9897 4.02928 39.1311 3.94576 38.2698 3.91992C36.4298 3.91992 35.9898 4.82014 35.9898 7.64014C35.9898 10.4601 36.3498 11.3301 38.3098 11.3301C39.157 11.3117 40.0022 11.238 40.8398 11.1099V12.4702C39.9043 12.6594 38.954 12.7663 37.9998 12.79C34.9998 12.79 34.2998 11.0501 34.2998 7.64014Z" fill="#38ACE3"/>
<path d="M42 8H46.36V9.45996H42V8Z" fill="#38ACE3"/>
<path d="M48.21 2.41992H49.7999V4.12012H48.21V2.41992ZM48.21 5.33984H49.7999V12.6299H48.21V5.33984Z" fill="#38ACE3"/>
<path d="M51.7402 5.33984H53.3303V5.79004C53.9415 5.43653 54.6257 5.22799 55.3303 5.18018C57.3303 5.18018 57.8502 6.33021 57.8502 8.72021V12.6299H56.2603V8.75977C56.2603 7.31977 56.0802 6.60986 54.9702 6.60986C54.4028 6.61876 53.8438 6.74866 53.3303 6.99023V12.6299H51.7402V5.33984Z" fill="#38ACE3"/>
<path d="M9.44965 17.7402C7.10248 17.7402 4.85141 16.8076 3.19171 15.1479C1.53201 13.4883 0.599609 11.2373 0.599609 8.89014C0.599609 6.54297 1.53201 4.29202 3.19171 2.63232C4.85141 0.972627 7.10248 0.0400391 9.44965 0.0400391C11.7968 0.0400391 14.0478 0.972627 15.7075 2.63232C17.3672 4.29202 18.2996 6.54297 18.2996 8.89014C18.2996 11.2373 17.3672 13.4883 15.7075 15.1479C14.0478 16.8076 11.7968 17.7402 9.44965 17.7402Z" fill="#38ACE3"/>
<path d="M6 13.3198L6.19 11.9902C7.23435 12.1706 8.29048 12.2738 9.34998 12.2998C9.60619 12.3251 9.86485 12.2934 10.1071 12.2061C10.3493 12.1187 10.5689 11.9784 10.75 11.7954C10.9311 11.6124 11.069 11.3911 11.1538 11.1479C11.2386 10.9048 11.268 10.6461 11.24 10.3901C11.24 9.13014 10.61 8.68018 9.5 8.68018C8.75916 8.68886 8.02527 8.82405 7.33002 9.08008L6.23999 8.8501L6.52002 3.35986H12.69V4.91016H7.91998L7.64001 7.60986C8.30533 7.32449 9.01677 7.16188 9.73999 7.12988C11.8 7.12988 13.05 8.02021 13.05 10.2202C13.05 12.4202 11.77 13.8501 9.54999 13.8501C8.35016 13.8111 7.15889 13.633 6 13.3198Z" fill="white"/>
<path d="M9.44965 61.9199C7.10248 61.9199 4.85141 60.9878 3.19171 59.3281C1.53201 57.6684 0.599609 55.417 0.599609 53.0698C0.599609 50.7227 1.53201 48.4717 3.19171 46.812C4.85141 45.1523 7.10248 44.2202 9.44965 44.2202C11.7968 44.2202 14.0478 45.1523 15.7075 46.812C17.3672 48.4717 18.2996 50.7227 18.2996 53.0698C18.2996 55.417 17.3672 57.6684 15.7075 59.3281C14.0478 60.9878 11.7968 61.9199 9.44965 61.9199Z" fill="#38ACE3"/>
<path d="M5.71973 52.6899C5.71973 48.8499 7.34973 47.3701 9.90973 47.3701C10.9192 47.3985 11.9236 47.5225 12.9097 47.7402L12.7598 49.1201C11.8222 48.9856 10.8768 48.9119 9.92975 48.8999C8.34975 48.8999 7.55975 50.01 7.55975 51.79C8.27804 51.5284 9.02794 51.3634 9.78973 51.2998C12.0897 51.2998 13.2897 52.3001 13.2897 54.5801C13.2897 56.8601 11.8998 58.02 9.58978 58.02C6.88978 58 5.71973 55.9999 5.71973 52.6899ZM11.4697 54.5801C11.4697 53.4301 10.7897 52.8501 9.60974 52.8501C8.89339 52.879 8.18699 53.0277 7.51978 53.29C7.51978 55.1 8.04976 56.4902 9.56976 56.4902C9.82676 56.5172 10.0866 56.486 10.33 56.3994C10.5735 56.3128 10.7944 56.1729 10.9767 55.9897C11.1589 55.8065 11.2978 55.5847 11.3831 55.3408C11.4684 55.0969 11.498 54.8369 11.4697 54.5801Z" fill="white"/>
<path d="M147.83 53.9102V47.1499H149.47V53.9399C149.47 55.2799 150.18 55.8599 151.47 55.8599C152.76 55.8599 153.53 55.2799 153.53 53.9399V47.1499H155.16V53.9102C155.16 56.3102 153.88 57.29 151.47 57.29C149.06 57.29 147.83 56.3102 147.83 53.9102Z" fill="#38ACE3"/>
<path d="M157 56.8999L157.16 55.6001C158.02 55.7001 159.41 55.8501 160.16 55.8501C161.38 55.8501 161.96 55.2898 161.96 54.2598C161.96 53.4298 161.51 53.1398 159.96 52.7598C157.79 52.1998 156.87 51.5501 156.87 49.8301C156.87 47.8301 158.2 46.9702 160.19 46.9702C161.254 47.011 162.313 47.1275 163.36 47.3198L163.23 48.6499C162.35 48.5499 160.95 48.3999 160.34 48.3999C159.12 48.3999 158.5 48.85 158.5 49.71C158.5 50.57 159.03 50.8301 160.73 51.3101C162.82 51.9001 163.58 52.4502 163.58 54.1602C163.58 56.3402 162.21 57.29 160.24 57.29C159.152 57.2435 158.068 57.113 157 56.8999Z" fill="#38ACE3"/>
<path d="M165.3 47.1499H169.09C171.09 47.1499 172.09 47.8902 172.09 49.7402C172.162 50.1832 172.096 50.6373 171.901 51.0415C171.706 51.4457 171.391 51.7804 171 52C171.466 52.1656 171.86 52.4866 172.117 52.9092C172.374 53.3318 172.477 53.8299 172.41 54.3198C172.41 56.3198 171.18 57.1499 169.24 57.1499H165.3V47.1499ZM169.06 51.3901C170.06 51.3901 170.48 50.9099 170.48 49.9399C170.48 48.9699 169.99 48.5601 169 48.5601H166.93V51.3901H169.06ZM169.12 55.7202C170.12 55.7202 170.72 55.4102 170.72 54.2202C170.72 53.0302 169.88 52.79 169.09 52.79H166.93V55.7202H169.12Z" fill="#38ACE3"/>
<path d="M177.25 55.75L179.61 53.2998C180.85 52.0298 181.56 51.3 181.56 50.25C181.56 49.2 181.01 48.8101 179.77 48.8101C178.978 48.8303 178.189 48.9139 177.41 49.0601L177.31 47.77C178.234 47.5052 179.189 47.364 180.15 47.3501C182.28 47.3501 183.25 48.2198 183.25 50.0298C183.25 51.4898 182.64 52.33 181.16 53.73L179.1 55.73H183.44V57.1602H177.25V55.75Z" fill="#38ACE3"/>
<path d="M185.32 55H187V57.1001H185.28L185.32 55Z" fill="#38ACE3"/>
<path d="M188.35 52.4199C188.35 48.6499 189.68 47.3501 191.99 47.3501C194.3 47.3501 195.62 48.6299 195.62 52.4199C195.62 56.2099 194.3 57.29 191.99 57.29C189.68 57.29 188.35 56.0999 188.35 52.4199ZM193.95 52.4199C193.95 49.5899 193.35 48.7798 191.95 48.7798C190.55 48.7798 189.95 49.5899 189.95 52.4199C189.95 55.0599 190.61 55.8599 191.95 55.8599C193.29 55.8599 194 55.0499 194 52.4199H193.95Z" fill="#38ACE3"/>
<path d="M201.84 48.4502H199V47H206.28V48.4502H203.47V56.98H201.84V48.4502Z" fill="#38ACE3"/>
<path d="M209.04 56.98H207.78L205.87 49.6899H207.45L208.98 55.6299H209.37L210.92 49.6899H212.49L209.74 60.1201H208.16L209.04 56.98Z" fill="#38ACE3"/>
<path d="M213.73 49.6899H215.32V50.1401C215.883 49.7925 216.52 49.5835 217.18 49.5303C219.08 49.5303 219.97 50.6103 219.97 53.2603C219.97 56.2603 218.97 57.1401 216.72 57.1401C216.251 57.1262 215.783 57.0829 215.32 57.0103V60.1201H213.73V49.6899ZM218.35 53.2603C218.35 51.5703 217.8 50.96 216.91 50.96C216.356 50.9813 215.814 51.1213 215.32 51.3701V55.6401C215.742 55.7155 216.17 55.7558 216.6 55.7603C217.96 55.7603 218.35 55.0403 218.35 53.2603Z" fill="#38ACE3"/>
<path d="M221.2 53.4102C221.2 50.7402 222.35 49.5303 224.37 49.5303C226.39 49.5303 227.43 50.6001 227.43 52.8701L227.32 54.0103H222.84C222.84 55.1703 223.28 55.7402 224.49 55.7402C225.33 55.7402 226.49 55.6699 227.19 55.6099V56.8101C226.201 57.0047 225.198 57.1152 224.19 57.1401C222.05 57.1401 221.2 55.9702 221.2 53.4102ZM225.85 52.7803C225.85 51.3403 225.43 50.8403 224.37 50.8403C223.31 50.8403 222.82 51.4003 222.81 52.7803H225.85Z" fill="#38ACE3"/>
<path d="M228.84 52.3203H233.2V53.77H228.84V52.3203Z" fill="#38ACE3"/>
<path d="M236.84 47H240.09L242.55 57H240.84L240.32 54.8701H236.5L235.96 57H234.33L236.84 47ZM240.06 53.4102L238.84 48.4102H238.11L236.88 53.4102H240.06Z" fill="#38ACE3"/>
<path d="M147.39 70.23C147.47 67.9557 148.029 65.7242 149.03 63.6802H150.53C149.73 65.7783 149.261 67.9878 149.14 70.23C149.246 72.3641 149.716 74.4643 150.53 76.4399H149C147.99 74.5225 147.438 72.3967 147.39 70.23Z" fill="#38ACE3"/>
<path d="M155.89 72.9102H151.56V71.6602L154.1 64.9902H155.89L153.22 71.4702H155.89V68.6499H157.52V71.4702H158.57V72.9102H157.52V74.6099H155.89V72.9102Z" fill="#38ACE3"/>
<path d="M159.57 72.1699C159.531 71.6563 159.643 71.1425 159.892 70.6914C160.14 70.2403 160.515 69.8714 160.97 69.6299C160.566 69.4194 160.233 69.0951 160.013 68.6968C159.793 68.2985 159.694 67.844 159.73 67.3901C159.73 65.7201 161.09 64.8301 163.19 64.8301C165.29 64.8301 166.7 65.7099 166.7 67.3999C166.752 67.8595 166.656 68.3239 166.426 68.7251C166.196 69.1263 165.843 69.4431 165.42 69.6299C165.869 69.8387 166.244 70.1769 166.499 70.6011C166.754 71.0252 166.876 71.5157 166.85 72.0098C166.85 74.0798 165.2 74.7798 163.19 74.7798C161.18 74.7798 159.57 74.1799 159.57 72.1699ZM165.1 71.79C165.1 71.04 164.62 70.6499 163.89 70.3999H162.49C162.159 70.4611 161.86 70.6372 161.646 70.897C161.432 71.1567 161.317 71.4833 161.32 71.8198C161.32 72.8798 162.04 73.2998 163.19 73.2998C164.34 73.2998 165.1 72.9 165.1 71.79ZM163.89 69C164.57 68.68 164.95 68.2899 164.95 67.6299C164.95 66.7299 164.33 66.3101 163.2 66.3101C162.07 66.3101 161.48 66.7299 161.48 67.6299C161.482 67.9343 161.579 68.2307 161.759 68.4766C161.938 68.7225 162.191 68.9055 162.48 69H163.89Z" fill="#38ACE3"/>
<path d="M167.73 69.9102C167.73 66.1302 169.06 64.8301 171.38 64.8301C173.7 64.8301 175.01 66.1202 175.01 69.9102C175.01 73.7002 173.68 74.7798 171.38 74.7798C169.08 74.7798 167.73 73.5802 167.73 69.9102ZM173.331 69.9102C173.331 67.0802 172.731 66.2598 171.331 66.2598C169.931 66.2598 169.331 67.0802 169.331 69.9102C169.331 72.5502 169.991 73.3501 171.331 73.3501C172.671 73.3501 173.331 72.5302 173.331 69.9102Z" fill="#38ACE3"/>
<path d="M176.61 64.6299H179.43L181.65 72.4102L183.86 64.6299H186.71V74.6299H185.07V66.46H184.86L182.49 74.23H180.8L178.46 66.46H178.24V74.6299H176.61V64.6299Z" fill="#38ACE3"/>
<path d="M188.8 74.6001V64.29H190.39V67.6001C190.963 67.351 191.576 67.2052 192.2 67.1699C194.2 67.1699 195.03 68.1701 195.03 70.8701C195.03 73.8701 194.08 74.7798 191.47 74.7798C190.91 74.7798 189.62 74.6701 188.8 74.6001ZM193.41 70.8701C193.41 69.2201 192.98 68.5898 192.01 68.5898C191.46 68.6139 190.916 68.7083 190.39 68.8701V73.29C190.74 73.29 191.25 73.3501 191.47 73.3501C193.09 73.3501 193.41 72.6301 193.41 70.8701Z" fill="#38ACE3"/>
<path d="M196.61 67.3301H198.2V67.7798C198.763 67.4321 199.401 67.2232 200.06 67.1699C201.96 67.1699 202.85 68.2499 202.85 70.8999C202.85 73.8999 201.85 74.7798 199.6 74.7798C199.131 74.7677 198.663 74.7212 198.2 74.6401V77.75H196.61V67.3301ZM201.23 70.8999C201.23 69.2099 200.68 68.5898 199.79 68.5898C199.237 68.6112 198.695 68.7512 198.2 69V73.27C198.623 73.3454 199.051 73.3857 199.48 73.3901C200.84 73.3901 201.23 72.6799 201.23 70.8999Z" fill="#38ACE3"/>
<path d="M204.16 74.4502L204.21 73.1099C204.97 73.2099 206.21 73.3501 206.71 73.3501C207.71 73.3501 208.16 73.13 208.16 72.5C208.16 71.87 207.92 71.8301 206.47 71.6001C204.87 71.3301 204.05 70.9799 204.05 69.4399C204.05 67.8999 205.34 67.1802 206.78 67.1802C207.704 67.2086 208.624 67.3155 209.53 67.5V68.8301C208.665 68.7055 207.793 68.6252 206.92 68.5898C206.04 68.5898 205.66 68.8099 205.66 69.3999C205.66 69.9899 205.97 70.0098 207.38 70.2598C209.13 70.5598 209.77 71 209.77 72.46C209.77 74.16 208.68 74.7798 206.87 74.7798C205.959 74.7456 205.052 74.6356 204.16 74.4502Z" fill="#38ACE3"/>
<path d="M210.76 76.4399C211.565 74.4622 212.032 72.3628 212.14 70.23C212.017 67.989 211.551 65.7803 210.76 63.6802H212.27C213.263 65.7259 213.815 67.9573 213.89 70.23C213.838 72.3975 213.283 74.5233 212.27 76.4399H210.76Z" fill="#38ACE3"/>
<path d="M147.92 2.64014H154.22V4.06982H149.55V6.89014H153.34V8.29004H149.55V11.2002H154.22V12.6299H147.92V2.64014Z" fill="#38ACE3"/>
<path d="M156.08 10.0801V6.7002H155.14V5.33984H156.08V3.22998H157.67V5.33984H159.67V6.7002H157.67V9.8999C157.67 10.9999 157.67 11.3799 158.45 11.3799C158.75 11.3799 159.3 11.3798 159.65 11.3198L159.72 12.6001C159.232 12.7043 158.737 12.7678 158.24 12.79C156.59 12.79 156.08 12.1801 156.08 10.0801Z" fill="#38ACE3"/>
<path d="M161 2.31006H162.59V5.72021C163.213 5.40686 163.894 5.22312 164.59 5.18018C166.59 5.18018 167.11 6.33021 167.11 8.72021V12.6299H165.52V8.77002C165.52 7.32002 165.34 6.60986 164.22 6.60986C163.662 6.622 163.111 6.73057 162.59 6.93018V12.6299H161V2.31006Z" fill="#38ACE3"/>
<path d="M168.56 9.06006C168.56 6.39006 169.72 5.18018 171.73 5.18018C173.74 5.18018 174.79 6.25002 174.79 8.52002L174.69 9.66016H170.18C170.18 10.8202 170.62 11.3901 171.83 11.3901C172.68 11.3901 173.83 11.3198 174.53 11.2598V12.46C173.541 12.6534 172.537 12.7639 171.53 12.79C169.41 12.79 168.56 11.6201 168.56 9.06006ZM173.21 8.43018C173.21 6.99018 172.79 6.49023 171.73 6.49023C170.67 6.49023 170.18 7.05018 170.17 8.43018H173.21Z" fill="#38ACE3"/>
<path d="M176.31 5.33984H177.9V6.2002C178.666 5.74085 179.499 5.40348 180.37 5.2002V6.7998C179.522 6.96829 178.695 7.2232 177.9 7.56006V12.6499H176.31V5.33984Z" fill="#38ACE3"/>
<path d="M181.57 5.33984H183.16V5.79004C183.772 5.43783 184.456 5.22939 185.16 5.18018C187.16 5.18018 187.68 6.33021 187.68 8.72021V12.6299H186.09V8.77002C186.09 7.32002 185.92 6.60986 184.81 6.60986C184.24 6.62035 183.678 6.75014 183.16 6.99023V12.6299H181.57V5.33984Z" fill="#38ACE3"/>
<path d="M189.18 9.06006C189.18 6.39006 190.33 5.18018 192.34 5.18018C194.35 5.18018 195.41 6.25002 195.41 8.52002L195.3 9.66016H190.8C190.8 10.8202 191.23 11.3901 192.45 11.3901C193.29 11.3901 194.45 11.3198 195.14 11.2598V12.46C194.151 12.6546 193.147 12.7651 192.14 12.79C190 12.79 189.18 11.6201 189.18 9.06006ZM193.83 8.43018C193.83 6.99018 193.41 6.49023 192.34 6.49023C191.27 6.49023 190.8 7.05018 190.78 8.43018H193.83Z" fill="#38ACE3"/>
<path d="M197.25 10.0801V6.7002H196.32V5.33984H197.25V3.22998H198.84V5.33984H200.84V6.7002H198.84V9.8999C198.84 10.9999 198.84 11.3799 199.63 11.3799C199.92 11.3799 200.47 11.3798 200.82 11.3198L200.89 12.6001C200.403 12.7051 199.908 12.7686 199.41 12.79C197.76 12.79 197.25 12.1801 197.25 10.0801Z" fill="#38ACE3"/>
<path d="M132 17.7402C129.653 17.7402 127.402 16.8076 125.743 15.1479C124.083 13.4883 123.15 11.2373 123.15 8.89014C123.145 7.72458 123.37 6.56908 123.813 5.49072C124.255 4.41237 124.906 3.43249 125.728 2.60645C126.551 1.78041 127.528 1.1245 128.604 0.677246C129.681 0.229993 130.835 -1.1905e-05 132 4.62162e-10C134.348 4.63981e-10 136.599 0.932588 138.258 2.59229C139.918 4.25198 140.85 6.50293 140.85 8.8501C140.856 10.0157 140.631 11.1707 140.188 12.249C139.746 13.3274 139.095 14.3077 138.273 15.1338C137.45 15.9598 136.473 16.6152 135.396 17.0625C134.32 17.5098 133.166 17.7402 132 17.7402Z" fill="#38ACE3"/>
<path d="M129.86 13.3799L133.53 5.37988V4.93018H128.78V3.3501H135.28V5.43018L131.49 13.8398L129.86 13.3799Z" fill="white"/>
<path d="M132 61.9199C129.653 61.9199 127.402 60.9878 125.742 59.3281C124.083 57.6684 123.15 55.417 123.15 53.0698C123.15 50.7227 124.083 48.4717 125.742 46.812C127.402 45.1523 129.653 44.2202 132 44.2202C134.348 44.2202 136.599 45.1523 138.258 46.812C139.918 48.4717 140.85 50.7227 140.85 53.0698C140.848 55.4162 139.914 57.6661 138.255 59.3252C136.596 60.9843 134.347 61.9173 132 61.9199Z" fill="#38ACE3"/>
<path d="M128.11 55.2202C128.068 54.6714 128.188 54.1222 128.454 53.6406C128.721 53.1591 129.122 52.7658 129.61 52.5098C129.174 52.2854 128.815 51.9365 128.578 51.5073C128.341 51.0782 128.237 50.5884 128.28 50.1001C128.28 48.3201 129.74 47.3701 131.99 47.3701C134.24 47.3701 135.75 48.3001 135.75 50.1201C135.808 50.6128 135.707 51.1111 135.46 51.5415C135.213 51.9719 134.834 52.3113 134.38 52.5098C134.859 52.7324 135.261 53.0933 135.533 53.5459C135.806 53.9985 135.937 54.5221 135.91 55.0498C135.91 57.2698 134.14 58.0498 131.99 58.0498C129.84 58.0498 128.11 57.3802 128.11 55.2202ZM134.03 54.8198C134.03 54.0198 133.52 53.6001 132.74 53.3301H131.24C130.887 53.3978 130.568 53.5867 130.34 53.8643C130.112 54.1419 129.988 54.4907 129.99 54.8501C129.99 55.9901 130.75 56.4399 131.99 56.4399C133.23 56.4399 134 55.9998 134 54.8198H134.03ZM132.74 51.8198C133.47 51.4798 133.88 51.0599 133.88 50.3599C133.88 49.3599 133.21 48.9302 132 48.9302C130.79 48.9302 130.16 49.3899 130.16 50.3599C130.162 50.6863 130.267 51.0037 130.462 51.2661C130.656 51.5285 130.928 51.7223 131.24 51.8198H132.74Z" fill="white"/>
<path d="M339.48 47.1499H342.921C346.151 47.1499 346.921 48.8502 346.921 51.9702C346.921 55.0902 346.221 57.1299 342.921 57.1299H339.48V47.1499ZM342.921 55.7002C344.921 55.7002 345.25 54.1602 345.25 51.9702C345.25 49.7802 344.931 48.5698 342.921 48.5698H341.11V55.7002H342.921Z" fill="#38ACE3"/>
<path d="M348.82 47.1499H352.47C354.75 47.1499 355.87 48.2498 355.87 50.5098C355.87 52.7698 354.75 54.0298 352.47 54.0298H350.47V57.1299H348.84L348.82 47.1499ZM352.46 52.6099C353.66 52.6099 354.21 51.8798 354.21 50.5098C354.21 49.1398 353.66 48.5601 352.46 48.5601H350.46V52.5601L352.46 52.6099Z" fill="#38ACE3"/>
<path d="M363.75 49.3501L361.51 50.8198L360.76 49.5898L363.88 47.5098H365.4V57.1299H363.75V49.3501Z" fill="#38ACE3"/>
<path d="M368.53 55H370.25V57.1001H368.53V55Z" fill="#38ACE3"/>
<path d="M376 55.4302H371.67V54.1699L374.21 47.5098H376L373.33 53.98H376V51.1699H377.63V54H378.63V55.4502H377.63V57.1499H376V55.4302Z" fill="#38ACE3"/>
<path d="M339 70.23C339.078 67.9565 339.633 65.7251 340.63 63.6802H342.13C341.339 65.7803 340.873 67.989 340.75 70.23C340.858 72.3628 341.324 74.4622 342.13 76.4399H340.63C339.613 74.5242 339.055 72.3983 339 70.23Z" fill="#38ACE3"/>
<path d="M343.39 74.3198L343.49 73.0601C344.425 73.2214 345.371 73.3183 346.32 73.3501C347.49 73.3501 348.07 72.8498 348.07 71.8198C348.07 70.7898 347.37 70.3901 346.43 70.3701H344.49V69H346.43C346.812 68.98 347.173 68.8164 347.44 68.542C347.707 68.2676 347.86 67.9027 347.87 67.52C347.87 66.66 347.37 66.2598 346.21 66.2598C345.343 66.2764 344.48 66.3704 343.63 66.54L343.49 65.2998C344.402 65.0077 345.352 64.8496 346.31 64.8301C348.73 64.8301 349.56 65.6602 349.56 67.4102C349.565 67.8521 349.452 68.2875 349.233 68.6709C349.013 69.0543 348.694 69.3716 348.31 69.5898C348.771 69.7202 349.17 70.0124 349.435 70.4126C349.699 70.8128 349.811 71.2944 349.75 71.77C349.75 73.77 348.82 74.77 346.54 74.77C345.475 74.7491 344.417 74.5978 343.39 74.3198Z" fill="#38ACE3"/>
<path d="M351.13 72.1699C351.088 71.6559 351.199 71.1411 351.448 70.6895C351.697 70.2378 352.073 69.8694 352.53 69.6299C352.126 69.4194 351.793 69.0951 351.573 68.6968C351.352 68.2985 351.254 67.844 351.29 67.3901C351.29 65.7201 352.65 64.8301 354.75 64.8301C356.85 64.8301 358.26 65.7099 358.26 67.3999C358.313 67.8609 358.216 68.3269 357.983 68.7285C357.751 69.1302 357.396 69.446 356.97 69.6299C357.418 69.8387 357.794 70.1769 358.049 70.6011C358.304 71.0252 358.426 71.5157 358.4 72.0098C358.4 74.0798 356.76 74.7798 354.75 74.7798C352.74 74.7798 351.13 74.1799 351.13 72.1699ZM356.65 71.79C356.65 71.04 356.17 70.6499 355.44 70.3999H354.05C353.719 70.4611 353.42 70.6372 353.206 70.897C352.992 71.1567 352.876 71.4833 352.88 71.8198C352.88 72.8798 353.59 73.2998 354.75 73.2998C355.91 73.2998 356.65 72.9 356.65 71.79ZM355.44 69C356.13 68.68 356.51 68.2899 356.51 67.6299C356.51 66.7299 355.88 66.3101 354.76 66.3101C353.64 66.3101 353.04 66.7299 353.04 67.6299C353.041 67.9343 353.139 68.2307 353.318 68.4766C353.498 68.7225 353.75 68.9055 354.04 69H355.44Z" fill="#38ACE3"/>
<path d="M363.76 72.9102H359.43V71.6602L362 65H363.79L361.12 71.48H363.79V68.6602H365.43V71.48H366.43V72.9199H365.43V74.6201H363.79L363.76 72.9102Z" fill="#38ACE3"/>
<path d="M367.45 69.9102C367.45 66.1302 368.77 64.8301 371.09 64.8301C373.41 64.8301 374.72 66.1202 374.72 69.9102C374.72 73.7002 373.39 74.7798 371.09 74.7798C368.79 74.7798 367.45 73.5802 367.45 69.9102ZM373.04 69.9102C373.04 67.0802 372.45 66.2598 371.04 66.2598C369.63 66.2598 369.09 67.0802 369.09 69.9102C369.09 72.5502 369.74 73.3501 371.09 73.3501C372.44 73.3501 373 72.5302 373 69.9102H373.04Z" fill="#38ACE3"/>
<path d="M377.54 71L375.43 67.3701H377.14L378.55 69.8701L379.99 67.3701H381.7L379.53 70.9502L381.7 74.6499H380L378.57 72.1602L377.16 74.6499H375.45L377.54 71Z" fill="#38ACE3"/>
<path d="M382.92 73.23L385.28 70.7798C386.52 69.5098 387.28 68.78 387.28 67.73C387.28 66.68 386.73 66.29 385.49 66.29C384.698 66.3153 383.909 66.3989 383.13 66.54L383.03 65.2598C383.953 64.9918 384.908 64.8475 385.87 64.8301C388 64.8301 388.97 65.71 388.97 67.52C388.97 68.97 388.36 69.8202 386.88 71.2202L384.82 73.2202H389.17V74.6401H382.97L382.92 73.23Z" fill="#38ACE3"/>
<path d="M394.37 66.8301L392.13 68.2998L391.38 67.0801L394.5 64.9902H396V74.6099H394.35L394.37 66.8301Z" fill="#38ACE3"/>
<path d="M398.86 69.7998C398.86 66.2198 400.37 64.7998 402.76 64.7998C403.699 64.8335 404.633 64.9507 405.55 65.1499L405.4 66.4399C404.526 66.3139 403.644 66.2438 402.76 66.23C401.29 66.23 400.55 67.2302 400.55 68.9302C401.221 68.6912 401.921 68.5398 402.63 68.48C404.78 68.48 405.9 69.48 405.9 71.54C405.9 73.6 404.6 74.75 402.44 74.75C400 74.78 398.86 72.8998 398.86 69.7998ZM404.22 71.5698C404.24 71.3426 404.207 71.1142 404.125 70.9014C404.043 70.6885 403.914 70.4967 403.748 70.3408C403.581 70.1849 403.382 70.0687 403.164 70.001C402.946 69.9333 402.716 69.9162 402.49 69.9502C401.805 69.9716 401.129 70.1099 400.49 70.3599C400.49 72.0499 400.99 73.3599 402.4 73.3599C402.644 73.3918 402.892 73.3677 403.126 73.2896C403.359 73.2114 403.571 73.0812 403.747 72.9087C403.922 72.7362 404.056 72.5259 404.138 72.2939C404.22 72.062 404.248 71.8143 404.22 71.5698Z" fill="#38ACE3"/>
<path d="M406.86 69.9102C406.86 66.1302 408.18 64.8301 410.5 64.8301C412.82 64.8301 414.13 66.1202 414.13 69.9102C414.13 73.7002 412.8 74.7798 410.5 74.7798C408.2 74.7798 406.86 73.5802 406.86 69.9102ZM412.45 69.9102C412.45 67.0802 411.86 66.2598 410.45 66.2598C409.04 66.2598 408.45 67.0802 408.45 69.9102C408.45 72.5502 409.1 73.3501 410.45 73.3501C411.8 73.3501 412.45 72.5302 412.45 69.9102Z" fill="#38ACE3"/>
<path d="M415.22 70.8101C415.22 66.1001 417.81 64.0298 421.91 64.0298C426.25 64.0298 428.26 66.1299 428.26 70.1699V70.3101C428.26 73.6501 427.26 74.6602 425.57 74.6602C425.213 74.7038 424.851 74.6472 424.524 74.4971C424.198 74.347 423.919 74.1092 423.72 73.8101C423.031 74.2826 422.232 74.5687 421.4 74.6401C419.85 74.6401 418.75 73.87 418.75 70.98C418.75 68.58 419.43 67.2998 421.6 67.2998C422.11 67.3331 422.611 67.4552 423.08 67.6602V67.46H424.66V70.1401C424.66 73.0601 424.74 73.3198 425.57 73.3198C426.4 73.3198 426.68 72.8998 426.68 70.3198V70.1602C426.68 66.8502 425.26 65.4399 421.91 65.4399C418.56 65.4399 416.81 67.2598 416.81 70.8198C416.81 74.6798 418.25 76.23 421.91 76.23C422.42 76.23 423.4 76.1601 423.99 76.1001L424.07 77.5C423.48 77.56 422.49 77.6299 421.91 77.6299C417.6 77.6199 415.22 76.0701 415.22 70.8101ZM423.22 72.75C423.147 72.1026 423.114 71.4512 423.12 70.7998V68.8999C422.742 68.7889 422.353 68.7221 421.96 68.7002C420.67 68.7002 420.4 69.44 420.4 71C420.4 72.56 420.89 73.2402 421.57 73.2402C422.134 73.1853 422.681 73.0185 423.18 72.75H423.22Z" fill="#38ACE3"/>
<path d="M429.38 69.7998C429.38 66.2198 430.9 64.7998 433.29 64.7998C434.225 64.8334 435.155 64.9507 436.07 65.1499L435.92 66.4399C435.049 66.3138 434.17 66.2437 433.29 66.23C431.82 66.23 431.07 67.2302 431.07 68.9302C431.744 68.6905 432.447 68.539 433.16 68.48C435.3 68.48 436.42 69.48 436.42 71.54C436.42 73.6 435.12 74.75 432.97 74.75C430.47 74.78 429.38 72.8998 429.38 69.7998ZM434.74 71.5698C434.751 71.3456 434.713 71.122 434.627 70.9146C434.541 70.7071 434.41 70.5215 434.243 70.3711C434.077 70.2207 433.879 70.1091 433.664 70.0449C433.448 69.9807 433.222 69.9655 433 70C432.314 70.019 431.638 70.1579 431 70.4102C431 72.1002 431.49 73.4102 432.91 73.4102C433.16 73.4477 433.415 73.4255 433.655 73.3462C433.895 73.2668 434.112 73.1323 434.291 72.9531C434.469 72.774 434.602 72.5557 434.68 72.3154C434.758 72.0751 434.779 71.8195 434.74 71.5698Z" fill="#38ACE3"/>
<path d="M437.38 69.9102C437.38 66.1302 438.71 64.8301 441.02 64.8301C443.33 64.8301 444.65 66.1202 444.65 69.9102C444.65 73.7002 443.33 74.7798 441.02 74.7798C438.71 74.7798 437.38 73.5802 437.38 69.9102ZM442.98 69.9102C442.98 67.0802 442.38 66.2598 440.98 66.2598C439.58 66.2598 438.98 67.0802 438.98 69.9102C438.98 72.5502 439.64 73.3501 440.98 73.3501C442.32 73.3501 443 72.5302 443 69.9102H442.98Z" fill="#38ACE3"/>
<path d="M446.25 64.6299H447.88V68.8901H452.17V64.6299H453.82V74.6299H452.17V70.3301H447.88V74.6299H446.25V64.6299Z" fill="#38ACE3"/>
<path d="M455.55 73.1899L459.05 68.7598H455.55V67.3301H461V68.7598L457.51 73.1899H461V74.6099H455.59L455.55 73.1899Z" fill="#38ACE3"/>
<path d="M462 76.4399C462.814 74.4643 463.284 72.3641 463.39 70.23C463.269 67.9878 462.8 65.7783 462 63.6802H463.52C464.513 65.7259 465.065 67.9573 465.14 70.23C465.088 72.3975 464.534 74.5233 463.52 76.4399H462Z" fill="#38ACE3"/>
<path d="M339.39 9.41016V2.64014H341V9.43994C341 10.7799 341.71 11.3599 343 11.3599C344.29 11.3599 345 10.7799 345 9.43994V2.64014H346.63V9.41016C346.63 11.8102 345.35 12.79 342.95 12.79C340.55 12.79 339.39 11.8102 339.39 9.41016Z" fill="#38ACE3"/>
<path d="M348.51 12.3999L348.67 11.1001C349.53 11.2001 350.91 11.3501 351.67 11.3501C352.9 11.3501 353.48 10.7898 353.48 9.75978C353.48 8.92978 353.03 8.63978 351.48 8.25978C349.3 7.69978 348.39 7.05008 348.39 5.33008C348.39 3.33008 349.71 2.47021 351.71 2.47021C352.77 2.51097 353.826 2.62755 354.87 2.81982L354.74 4.1499C353.87 4.0399 352.47 3.8999 351.86 3.8999C350.63 3.8999 350.02 4.34996 350.02 5.20996C350.02 6.06996 350.54 6.33006 352.25 6.81006C354.33 7.40006 355.09 7.95016 355.09 9.66016C355.09 11.8402 353.72 12.79 351.75 12.79C350.661 12.744 349.578 12.6135 348.51 12.3999Z" fill="#38ACE3"/>
<path d="M356.86 2.64014H360.65C362.65 2.64014 363.65 3.39023 363.65 5.24023C363.71 5.6875 363.631 6.14228 363.423 6.54297C363.216 6.94366 362.89 7.27064 362.49 7.47998C362.956 7.64554 363.351 7.96656 363.608 8.38916C363.865 8.81176 363.968 9.30993 363.9 9.7998C363.9 11.7998 362.66 12.6299 360.72 12.6299H356.82L356.86 2.64014ZM360.62 6.89014C361.62 6.89014 362.03 6.40994 362.03 5.43994C362.03 4.46994 361.55 4.06006 360.56 4.06006H358.49V6.89014H360.62ZM360.68 11.2202C361.68 11.2202 362.28 10.9102 362.28 9.72021C362.28 8.53021 361.43 8.29004 360.65 8.29004H358.49V11.2202H360.68Z" fill="#38ACE3"/>
<path d="M368.689 12.3398L368.79 11.0698C369.724 11.2366 370.67 11.3335 371.62 11.3599C372.78 11.3599 373.37 10.8701 373.37 9.83008C373.37 8.79008 372.669 8.40014 371.719 8.39014H369.78V7H371.719C372.103 6.97754 372.463 6.81164 372.73 6.53564C372.997 6.25965 373.15 5.89348 373.16 5.50977C373.16 4.64977 372.67 4.25977 371.5 4.25977C370.633 4.27644 369.77 4.37041 368.92 4.54004L368.79 3.2998C369.697 3.00278 370.645 2.8446 371.599 2.83008C374.019 2.83008 374.849 3.66016 374.849 5.41016C374.855 5.85065 374.741 6.2843 374.521 6.66602C374.301 7.04773 373.983 7.36343 373.599 7.58008C374.063 7.71065 374.464 8.00395 374.728 8.40625C374.993 8.80855 375.103 9.29279 375.04 9.77002C375.04 11.77 374.109 12.77 371.829 12.77C370.77 12.7495 369.716 12.6051 368.689 12.3398Z" fill="#38ACE3"/>
<path d="M376.87 10.5298H378.59V12.6299H376.87V10.5298Z" fill="#38ACE3"/>
<path d="M380.439 11.25L382.8 8.7998C384.04 7.5298 384.8 6.8 384.8 5.75C384.8 4.7 384.24 4.31006 383 4.31006C382.207 4.33093 381.418 4.41453 380.64 4.56006L380.54 3.27002C381.464 3.00656 382.419 2.86543 383.38 2.8501C385.51 2.8501 386.49 3.71979 386.49 5.52979C386.49 6.98979 385.88 7.82998 384.39 9.22998L382.329 11.23H386.68V12.6602H380.479L380.439 11.25Z" fill="#38ACE3"/>
<path d="M391.561 7.64014C391.561 4.15014 392.56 2.47998 395.5 2.47998C396.641 2.50514 397.776 2.63898 398.891 2.87988L398.83 4.18018C397.807 4.03368 396.775 3.95019 395.74 3.93018C393.74 3.93018 393.25 4.83014 393.25 7.64014C393.25 10.4501 393.67 11.3599 395.7 11.3599C396.225 11.3496 396.749 11.313 397.271 11.25V8.83008H396.051V7.37988H398.891V12.46C397.785 12.6416 396.67 12.7519 395.551 12.79C392.381 12.79 391.561 11.0001 391.561 7.64014Z" fill="#38ACE3"/>
<path d="M400.37 9.06006C400.37 6.39006 401.53 5.18018 403.54 5.18018C405.55 5.18018 406.6 6.25002 406.6 8.52002L406.5 9.66016H402C402 10.8202 402.44 11.3901 403.65 11.3901C404.5 11.3901 405.65 11.3198 406.35 11.2598V12.46C405.361 12.6534 404.358 12.7639 403.35 12.79C401.22 12.79 400.37 11.6201 400.37 9.06006ZM405.02 8.43018C405.02 6.99018 404.6 6.49023 403.54 6.49023C402.48 6.49023 401.99 7.05018 401.98 8.43018H405.02Z" fill="#38ACE3"/>
<path d="M408.12 5.33984H409.71V5.79004C410.322 5.43783 411.006 5.22939 411.71 5.18018C413.71 5.18018 414.23 6.33021 414.23 8.72021V12.6299H412.64V8.77002C412.64 7.32002 412.47 6.60986 411.36 6.60986C410.79 6.62035 410.228 6.75014 409.71 6.99023V12.6299H408.12V5.33984Z" fill="#38ACE3"/>
<path d="M416.1 11.25L418.46 8.7998C419.7 7.5298 420.46 6.8 420.46 5.75C420.46 4.7 419.91 4.31006 418.67 4.31006C417.874 4.3304 417.082 4.414 416.3 4.56006L416.2 3.27002C417.127 3.00569 418.085 2.86456 419.05 2.8501C421.17 2.8501 422.15 3.71979 422.15 5.52979C422.15 6.98979 421.54 7.82998 420.05 9.22998L418.05 11.23H422.39V12.6602H416.2L416.1 11.25Z" fill="#38ACE3"/>
<path d="M429.51 4.1001H426.67V2.64014H434V4.1001H431.19V12.6299H429.55L429.51 4.1001Z" fill="#38ACE3"/>
<path d="M436.75 12.6299H435.5L433.59 5.33984H435.16L436.7 11.27H437.09L438.63 5.33984H440.21L437.45 15.7598H435.88L436.75 12.6299Z" fill="#38ACE3"/>
<path d="M441.44 5.33984H443V5.79004C443.567 5.44225 444.207 5.23337 444.87 5.18018C446.76 5.18018 447.65 6.26016 447.65 8.91016C447.65 11.9102 446.65 12.79 444.4 12.79C443.931 12.7751 443.464 12.7318 443 12.6602V15.7598H441.41L441.44 5.33984ZM446.07 8.91016C446.07 7.22016 445.51 6.60986 444.62 6.60986C444.067 6.63511 443.526 6.77487 443.03 7.02002V11.29C443.456 11.3648 443.888 11.4051 444.32 11.4102C445.67 11.4102 446.07 10.6902 446.07 8.91016Z" fill="#38ACE3"/>
<path d="M448.92 9.06006C448.92 6.39006 450.07 5.18018 452.08 5.18018C454.09 5.18018 455.14 6.25002 455.14 8.52002L455.04 9.66016H450.54C450.54 10.8202 450.97 11.3901 452.18 11.3901C453.03 11.3901 454.18 11.3198 454.88 11.2598V12.46C453.891 12.654 452.887 12.7645 451.88 12.79C449.76 12.79 448.92 11.6201 448.92 9.06006ZM453.57 8.43018C453.57 6.99018 453.14 6.49023 452.08 6.49023C451.02 6.49023 450.54 7.05018 450.52 8.43018H453.57Z" fill="#38ACE3"/>
<path d="M456.59 8H461V9.4502H456.64L456.59 8Z" fill="#38ACE3"/>
<path d="M464.52 2.64014H467.78L470.24 12.6401H468.59L468.07 10.5098H464.25L463.71 12.6401H462.07L464.52 2.64014ZM467.74 9.06006L466.52 4.00977H465.79L464.57 9.06006H467.74Z" fill="#38ACE3"/>
<path d="M339 25.73C339.078 23.4565 339.633 21.2251 340.63 19.1802H342.13C341.339 21.2803 340.873 23.489 340.75 25.73C340.858 27.8628 341.324 29.9622 342.13 31.9399H340.63C339.613 30.0242 339.055 27.8983 339 25.73Z" fill="#38ACE3"/>
<path d="M346.8 22.3301L344.56 23.7998L343.82 22.5801L346.94 20.4902H348.45V30.1099H346.8V22.3301Z" fill="#38ACE3"/>
<path d="M351.13 25.4102C351.13 21.6302 352.46 20.3301 354.77 20.3301C357.08 20.3301 358.4 21.6202 358.4 25.4102C358.4 29.2002 357.08 30.27 354.77 30.27C352.46 30.27 351.13 29.0802 351.13 25.4102ZM356.73 25.4102C356.73 22.5802 356.13 21.7598 354.73 21.7598C353.33 21.7598 352.73 22.5802 352.73 25.4102C352.73 28.0502 353.39 28.8501 354.73 28.8501C356.07 28.8501 356.73 28.0002 356.73 25.4102Z" fill="#38ACE3"/>
<path d="M359.58 25.1299C359.58 21.6299 360.58 19.9702 363.52 19.9702C364.66 19.9975 365.794 20.1276 366.91 20.3599L366.85 21.6602C365.826 21.5191 364.794 21.4356 363.76 21.4102C361.76 21.4102 361.27 22.3199 361.27 25.1299C361.27 27.9399 361.69 28.8501 363.72 28.8501C364.245 28.837 364.769 28.7969 365.29 28.73V26.3101H364.07V24.8701H366.91V29.9399C365.805 30.1216 364.689 30.2319 363.57 30.27C360.4 30.27 359.58 28.4399 359.58 25.1299Z" fill="#38ACE3"/>
<path d="M368.74 30.1001V19.79H370.33V23.1001C370.904 22.852 371.516 22.7062 372.14 22.6699C374.14 22.6699 374.97 23.6701 374.97 26.3701C374.97 29.3701 373.97 30.27 371.41 30.27C370.86 30.27 369.56 30.1701 368.74 30.1001ZM373.35 26.3701C373.35 24.7201 372.93 24.0898 371.95 24.0898C371.4 24.1099 370.855 24.2043 370.33 24.3701V28.79C370.68 28.79 371.19 28.8501 371.41 28.8501C373 28.8501 373.35 28.1301 373.35 26.3701Z" fill="#38ACE3"/>
<path d="M376.55 22.8301H378.14V23.2798C378.704 22.9262 379.346 22.7169 380.01 22.6699C381.9 22.6699 382.79 23.7399 382.79 26.3999C382.79 29.3999 381.79 30.27 379.54 30.27C379.071 30.2601 378.603 30.2168 378.14 30.1401V33.25H376.55V22.8301ZM381.17 26.3999C381.17 24.7099 380.62 24.0898 379.73 24.0898C379.177 24.1151 378.636 24.2549 378.14 24.5V28.77C378.562 28.8449 378.991 28.8852 379.42 28.8901C380.78 28.8901 381.17 28.1799 381.17 26.3999Z" fill="#38ACE3"/>
<path d="M384.1 30L384.16 28.6602C384.92 28.7602 386.11 28.8999 386.65 28.8999C387.65 28.8999 388.11 28.6798 388.11 28.0498C388.11 27.4198 387.86 27.3799 386.42 27.1499C384.81 26.8799 384 26.5302 384 24.9902C384 23.4502 385.28 22.73 386.72 22.73C387.647 22.759 388.571 22.8659 389.48 23.0498V24.3799C388.615 24.2553 387.744 24.1755 386.87 24.1401C385.99 24.1401 385.62 24.3599 385.62 24.9399C385.62 25.5199 385.92 25.5601 387.34 25.8101C389.09 26.1101 389.73 26.5498 389.73 28.0098C389.73 29.7098 388.63 30.3198 386.83 30.3198C385.913 30.2902 384.999 30.1833 384.1 30Z" fill="#38ACE3"/>
<path d="M390.7 31.9399C391.511 29.9637 391.977 27.8635 392.08 25.73C391.962 23.4884 391.497 21.2789 390.7 19.1802H392.21C393.203 21.2259 393.755 23.4573 393.83 25.73C393.778 27.8975 393.224 30.0233 392.21 31.9399H390.7Z" fill="#38ACE3"/>
<path d="M323.57 17.7402C322.409 17.7402 321.258 17.5108 320.185 17.0659C319.112 16.621 318.137 15.9694 317.316 15.1475C316.495 14.3255 315.844 13.3496 315.401 12.2759C314.957 11.2022 314.729 10.0519 314.73 8.89014C314.729 7.72841 314.957 6.57758 315.401 5.50391C315.844 4.43023 316.495 3.45474 317.316 2.63281C318.137 1.81088 319.112 1.15874 320.185 0.713867C321.258 0.26899 322.409 0.0400383 323.57 0.0400391C325.918 0.0400391 328.169 0.972627 329.828 2.63232C331.488 4.29202 332.421 6.54297 332.421 8.89014C332.421 11.2373 331.488 13.4883 329.828 15.1479C328.169 16.8076 325.918 17.7402 323.57 17.7402Z" fill="#38ACE3"/>
<path d="M320.09 13.4702L320.25 12.1001C321.188 12.2296 322.133 12.3028 323.08 12.3198C324.69 12.3198 325.47 11.3198 325.47 9.31982C324.741 9.59764 323.977 9.77618 323.2 9.8501C321 9.8501 319.74 8.85012 319.74 6.62012C319.74 4.39012 321.16 3.18018 323.42 3.18018C326.09 3.18018 327.28 5.18023 327.28 8.49023C327.28 12.5402 325.67 13.8398 323.08 13.8398C322.074 13.8101 321.073 13.6866 320.09 13.4702ZM325.49 7.87988C325.49 6.09988 324.94 4.72021 323.42 4.72021C323.165 4.69855 322.908 4.73316 322.667 4.82178C322.427 4.91039 322.209 5.05072 322.028 5.23291C321.848 5.4151 321.71 5.63455 321.624 5.87598C321.538 6.11741 321.506 6.37473 321.53 6.62988C321.53 7.77988 322.19 8.33008 323.34 8.33008C324.076 8.29124 324.801 8.13927 325.49 7.87988Z" fill="white"/>
<path d="M323.57 61.9199C321.225 61.9173 318.977 60.9836 317.319 59.3242C315.662 57.6648 314.73 55.4153 314.73 53.0698C314.729 51.9081 314.957 50.7578 315.401 49.6841C315.844 48.6104 316.495 47.6344 317.316 46.8125C318.137 45.9906 319.112 45.3389 320.185 44.894C321.258 44.4492 322.409 44.2202 323.57 44.2202C325.918 44.2202 328.169 45.1523 329.828 46.812C331.488 48.4717 332.421 50.7227 332.421 53.0698C332.421 55.417 331.488 57.6684 329.828 59.3281C328.169 60.9878 325.918 61.9199 323.57 61.9199Z" fill="#38ACE3"/>
<path d="M319.44 49.5098L317.04 51.0801L316.24 49.77L319.58 47.54H321.21V57.8501H319.44V49.5098Z" fill="white"/>
<path d="M322.52 52.7998C322.52 48.7998 323.94 47.3701 326.42 47.3701C328.9 47.3701 330.31 48.7398 330.31 52.7998C330.31 56.8598 328.89 58.02 326.42 58.02C323.95 58.02 322.52 56.7398 322.52 52.7998ZM328.52 52.7998C328.52 49.7998 327.87 48.8999 326.42 48.8999C324.97 48.8999 324.329 49.7698 324.329 52.7998C324.329 55.6298 325.029 56.4902 326.439 56.4902C327.849 56.4902 328.52 55.6198 328.52 52.7998Z" fill="white"/>
</g>
<defs>
<clipPath id="clip0_69_2">
<rect width="471" height="78" fill="white"/>
</clipPath>
</defs>
</svg>
