<svg width="385" height="78" viewBox="0 0 385 78" fill="none" xmlns="http://www.w3.org/2000/svg">
<path d="M25.2998 2.64014H28.9998C31.2798 2.64014 32.3998 3.74977 32.3998 6.00977C32.3998 8.26977 31.2798 9.52002 28.9998 9.52002H26.9998V12.6299H25.2998V2.64014ZM28.9398 8.10986C30.1398 8.10986 30.6898 7.37977 30.6898 6.00977C30.6898 4.63977 30.1398 4.06006 28.9398 4.06006H26.9398V8.06006L28.9398 8.10986Z" fill="#38ACE3"/>
<path d="M33.3398 8.93994C33.3398 6.57994 34.1498 5.18018 36.5898 5.18018C39.0298 5.18018 39.8398 6.57994 39.8398 8.93994C39.8398 11.2999 39.0998 12.79 36.5898 12.79C34.0798 12.79 33.3398 11.3599 33.3398 8.93994ZM38.2198 8.93994C38.2198 7.25994 37.8698 6.52979 36.5898 6.52979C35.3098 6.52979 34.9498 7.25994 34.9498 8.93994C34.9498 10.6199 35.2498 11.4302 36.5898 11.4302C37.9298 11.4302 38.2198 10.6299 38.2198 8.93994Z" fill="#38ACE3"/>
<path d="M40.8096 5.33984H42.3796L43.5196 11.27H43.8096L45.1996 5.49023H46.8296L48.2196 11.27H48.5096L49.6396 5.33984H51.2196L49.6896 12.6299H47.1496L46.0096 7.62988L44.8796 12.6299H42.3396L40.8096 5.33984Z" fill="#38ACE3"/>
<path d="M52.1904 9.06006C52.1904 6.39006 53.3404 5.18018 55.3504 5.18018C57.3604 5.18018 58.4104 6.24002 58.4104 8.52002L58.3104 9.6499H53.8104C53.8104 10.8199 54.2404 11.3901 55.4604 11.3901C56.3004 11.3901 57.4604 11.3198 58.1504 11.2598V12.4502C57.1627 12.6536 56.1586 12.7672 55.1504 12.79C53.0004 12.79 52.1904 11.6201 52.1904 9.06006ZM56.8404 8.43018C56.8404 6.99018 56.4204 6.49023 55.3504 6.49023C54.2804 6.49023 53.8104 7.04018 53.7904 8.43018H56.8404Z" fill="#38ACE3"/>
<path d="M59.9404 5.33984H61.5304V6.2002C62.2883 5.73079 63.12 5.39271 63.9904 5.2002V6.7998C63.1461 6.96652 62.3216 7.2215 61.5304 7.56006V12.6499H59.9404V5.33984Z" fill="#38ACE3"/>
<path d="M68.5996 2.64014H72.3796C74.3796 2.64014 75.4296 3.39023 75.4296 5.24023C75.4884 5.68859 75.4077 6.14411 75.1983 6.54492C74.989 6.94574 74.6612 7.27211 74.2596 7.47998C74.7274 7.64373 75.1244 7.96394 75.3831 8.38672C75.6419 8.80949 75.7466 9.30868 75.6796 9.7998C75.6796 11.7998 74.4396 12.6299 72.4996 12.6299H68.5996V2.64014ZM72.3596 6.87988C73.3596 6.87988 73.7696 6.39994 73.7696 5.43994C73.7696 4.47994 73.2896 4.06006 72.2996 4.06006H70.2296V6.87988H72.3596ZM72.3596 11.21C73.3596 11.21 73.9696 10.91 73.9696 9.70996C73.9696 8.50996 73.1196 8.27979 72.3296 8.27979H70.1796V11.21H72.3596Z" fill="#38ACE3"/>
<path d="M77.25 9.14014V5.33984H78.84V9.16016C78.84 10.7502 78.96 11.3599 80.06 11.3599C80.6348 11.3594 81.2022 11.2296 81.72 10.98V5.33984H83.31V12.6299H81.74V12.1802C81.0972 12.57 80.3617 12.7805 79.61 12.79C77.69 12.79 77.25 11.5601 77.25 9.14014Z" fill="#38ACE3"/>
<path d="M85.5804 10.0801V6.7002H84.6504V5.33984H85.5804V3.22998H87.1704V5.33984H89.1704V6.7002H87.1704V9.8999C87.1704 10.9999 87.1704 11.3701 87.9604 11.3701C88.2504 11.3701 88.8004 11.3698 89.1504 11.3198L89.2304 12.6001C88.7398 12.7045 88.2415 12.768 87.7404 12.79C86.0904 12.79 85.5804 12.1801 85.5804 10.0801Z" fill="#38ACE3"/>
<path d="M90.8004 10.0801V6.7002H89.8604V5.33984H90.8004V3.22998H92.3904V5.33984H94.3904V6.7002H92.3904V9.8999C92.3904 10.9999 92.3904 11.3701 93.1704 11.3701C93.4704 11.3701 94.0204 11.3698 94.3704 11.3198L94.4404 12.6001C93.9531 12.7043 93.4581 12.7678 92.9604 12.79C91.3104 12.79 90.8004 12.1801 90.8004 10.0801Z" fill="#38ACE3"/>
<path d="M95.3301 8.93994C95.3301 6.57994 96.1401 5.18018 98.5801 5.18018C101.02 5.18018 101.83 6.57994 101.83 8.93994C101.83 11.2999 101.09 12.79 98.5801 12.79C96.0701 12.79 95.3301 11.3599 95.3301 8.93994ZM100.21 8.93994C100.21 7.25994 99.8601 6.52979 98.5801 6.52979C97.3001 6.52979 96.9501 7.25994 96.9501 8.93994C96.9501 10.6199 97.2401 11.4302 98.5801 11.4302C99.9201 11.4302 100.21 10.6299 100.21 8.93994Z" fill="#38ACE3"/>
<path d="M103.4 5.33984H105V5.79004C105.612 5.43653 106.296 5.22799 107 5.18018C109 5.18018 109.52 6.33021 109.52 8.72021V12.6299H107.93V8.75977C107.93 7.31977 107.75 6.60986 106.64 6.60986C106.073 6.61876 105.514 6.74866 105 6.99023V12.6299H103.4V5.33984Z" fill="#38ACE3"/>
<path d="M25.21 53.9102V47.1499H26.84V53.9399C26.84 55.2799 27.55 55.8599 28.84 55.8599C30.13 55.8599 30.84 55.2799 30.84 53.9399V47.1499H32.47V53.9102C32.47 56.3102 31.1899 57.29 28.7899 57.29C26.3899 57.29 25.21 56.3102 25.21 53.9102Z" fill="#38ACE3"/>
<path d="M34.33 56.8999L34.49 55.6001C35.35 55.7001 36.73 55.8501 37.49 55.8501C38.72 55.8501 39.3 55.2898 39.3 54.2598C39.3 53.4298 38.85 53.1398 37.3 52.7598C35.12 52.1998 34.21 51.5501 34.21 49.8301C34.21 47.8301 35.53 46.9702 37.53 46.9702C38.5903 47.011 39.6464 47.1275 40.69 47.3198L40.56 48.6499C39.69 48.5499 38.29 48.3999 37.67 48.3999C36.45 48.3999 35.84 48.85 35.84 49.71C35.84 50.57 36.36 50.8301 38.07 51.3101C40.15 51.9001 40.91 52.4502 40.91 54.1602C40.91 56.3402 39.54 57.29 37.57 57.29C36.4815 57.244 35.3982 57.1135 34.33 56.8999Z" fill="#38ACE3"/>
<path d="M42.6796 47.1499H46.4697C48.4697 47.1499 49.4697 47.8902 49.4697 49.7402C49.5294 50.1875 49.4501 50.6423 49.2426 51.043C49.0351 51.4437 48.7094 51.7706 48.3096 51.98C48.7756 52.1455 49.1703 52.4666 49.4271 52.8892C49.684 53.3118 49.7873 53.8099 49.7197 54.2998C49.7197 56.2998 48.4796 57.1299 46.5396 57.1299H42.6396L42.6796 47.1499ZM46.4397 51.3901C47.4397 51.3901 47.8497 50.9099 47.8497 49.9399C47.8497 48.9699 47.3697 48.5601 46.3797 48.5601H44.3096V51.3901H46.4397ZM46.4996 55.7202C47.4996 55.7202 48.0997 55.4102 48.0997 54.2202C48.0997 53.0302 47.2497 52.79 46.4697 52.79H44.3096V55.7202H46.4996Z" fill="#38ACE3"/>
<path d="M54.5098 56.8398L54.6098 55.5698C55.5446 55.7366 56.4906 55.8335 57.4398 55.8599C58.5998 55.8599 59.1798 55.3701 59.1798 54.3301C59.1798 53.2901 58.4898 52.9001 57.5398 52.8901H55.5998V51.52H57.5398C57.9316 51.5021 58.3015 51.3341 58.5732 51.0513C58.8449 50.7684 58.9976 50.3922 58.9998 50C58.9998 49.14 58.5098 48.75 57.3398 48.75C56.4732 48.7667 55.6098 48.8602 54.7598 49.0298L54.6298 47.79C55.5375 47.493 56.4848 47.3343 57.4398 47.3198C59.8598 47.3198 60.6898 48.1499 60.6898 49.8999C60.6948 50.3404 60.5815 50.774 60.3616 51.1558C60.1417 51.5375 59.8233 51.8532 59.4398 52.0698C59.9032 52.2004 60.304 52.4942 60.5685 52.8965C60.833 53.2988 60.9436 53.7825 60.8798 54.2598C60.8798 56.2598 59.9498 57.2598 57.6698 57.2598C56.6036 57.2441 55.543 57.1032 54.5098 56.8398Z" fill="#38ACE3"/>
<path d="M62.6904 55H64.4104V57.1001H62.6904V55Z" fill="#38ACE3"/>
<path d="M66.2598 55.75L68.6198 53.2998C69.8598 52.0298 70.6198 51.3 70.6198 50.25C70.6198 49.2 70.0598 48.8101 68.8198 48.8101C68.0277 48.8309 67.2386 48.9145 66.4598 49.0601L66.3598 47.77C67.284 47.5066 68.2388 47.3654 69.1998 47.3501C71.3298 47.3501 72.3098 48.2198 72.3098 50.0298C72.3098 51.4898 71.6998 52.33 70.2098 53.73L68.1498 55.73H72.4998V57.1602H66.2998L66.2598 55.75Z" fill="#38ACE3"/>
<path d="M77.3799 52.1499C77.3799 48.6499 78.3799 46.98 81.3199 46.98C82.46 47.0051 83.5952 47.139 84.7099 47.3799L84.6499 48.6802C83.6259 48.5341 82.594 48.4506 81.5599 48.4302C79.5599 48.4302 79.0699 49.3299 79.0699 52.1499C79.0699 54.9699 79.4899 55.8599 81.5199 55.8599C82.0399 55.8599 82.7399 55.79 83.0899 55.75V53.3301H81.8699V51.8799H84.7099V57C83.6048 57.1817 82.4891 57.292 81.3699 57.3301C78.1999 57.2901 77.3799 55.4499 77.3799 52.1499Z" fill="#38ACE3"/>
<path d="M86.1904 53.5601C86.1904 50.8901 87.3504 49.6802 89.3604 49.6802C91.3704 49.6802 92.4204 50.75 92.4204 53.02L92.3204 54.1602H87.8104C87.8104 55.3202 88.2504 55.8901 89.4604 55.8901C90.3104 55.8901 91.4604 55.8198 92.1604 55.7598V56.96C91.1714 57.1534 90.1679 57.2639 89.1604 57.29C87.0004 57.29 86.1904 56.1201 86.1904 53.5601ZM90.8404 52.9302C90.8404 51.4902 90.4204 50.9902 89.3604 50.9902C88.3004 50.9902 87.8104 51.5502 87.8004 52.9302H90.8404Z" fill="#38ACE3"/>
<path d="M93.9404 49.8398H95.5304V50.29C96.1423 49.9378 96.8262 49.7294 97.5304 49.6802C99.5304 49.6802 100.05 50.8302 100.05 53.2202V57.1299H98.4604V53.27C98.4604 51.82 98.2904 51.1099 97.1804 51.1099C96.61 51.1203 96.048 51.2501 95.5304 51.4902V57.1299H93.9404V49.8398Z" fill="#38ACE3"/>
<path d="M101.92 55.75L104.28 53.2998C105.51 52.0298 106.28 51.3 106.28 50.25C106.28 49.2 105.73 48.8101 104.49 48.8101C103.695 48.8304 102.902 48.914 102.12 49.0601L102.02 47.77C102.947 47.5057 103.906 47.3646 104.87 47.3501C106.99 47.3501 107.97 48.2198 107.97 50.0298C107.97 51.4898 107.36 52.33 105.87 53.73L103.81 55.73H108.16V57.1602H101.97L101.92 55.75Z" fill="#38ACE3"/>
<path d="M115.33 48.6001H112.49V47.1499H119.78V48.6001H117V57.1299H115.36L115.33 48.6001Z" fill="#38ACE3"/>
<path d="M122.57 57.1299H121.32L119.41 49.8398H121L122.53 55.7798H122.93L124.47 49.8398H126L123.24 60.27H121.7L122.57 57.1299Z" fill="#38ACE3"/>
<path d="M127.26 49.8398H128.85V50.29C129.416 49.9422 130.057 49.7334 130.72 49.6802C132.61 49.6802 133.5 50.7602 133.5 53.4102C133.5 56.4102 132.5 57.29 130.25 57.29C129.781 57.2751 129.313 57.2318 128.85 57.1602V60.27H127.26V49.8398ZM131.89 53.4102C131.89 51.7202 131.33 51.1099 130.44 51.1099C129.887 51.1351 129.346 51.2749 128.85 51.52V55.79C129.276 55.8648 129.707 55.9051 130.14 55.9102C131.49 55.9102 131.89 55.1902 131.89 53.4102Z" fill="#38ACE3"/>
<path d="M134.74 53.5601C134.74 50.8901 135.89 49.6802 137.9 49.6802C139.91 49.6802 140.96 50.75 140.96 53.02L140.86 54.1602H136.35C136.35 55.3202 136.79 55.8901 138 55.8901C138.85 55.8901 140 55.8198 140.7 55.7598V56.96C139.711 57.154 138.708 57.2645 137.7 57.29C135.58 57.29 134.74 56.1201 134.74 53.5601ZM139.39 52.9302C139.39 51.4902 138.96 50.9902 137.9 50.9902C136.84 50.9902 136.35 51.5502 136.34 52.9302H139.39Z" fill="#38ACE3"/>
<path d="M142.41 52.4702H146.77V53.9199H142.41V52.4702Z" fill="#38ACE3"/>
<path d="M150.34 47.1499H153.59L156.06 57.1499H154.41L153.89 55.02H150.07L149.53 57.1499H147.89L150.34 47.1499ZM153.56 53.5601L152.34 48.5601H151.61L150.39 53.5601H153.56Z" fill="#38ACE3"/>
<path d="M24.7695 70.23C24.8475 67.9565 25.4029 65.7251 26.3995 63.6802H27.8995C27.1081 65.7803 26.6427 67.989 26.5195 70.23C26.6273 72.3628 27.0938 74.4622 27.8995 76.4399H26.3995C25.3825 74.5242 24.8245 72.3983 24.7695 70.23Z" fill="#38ACE3"/>
<path d="M32.6196 66.8301L30.3797 68.2998L29.6396 67.0801L32.7596 64.9902H34.2697V74.6099H32.6196V66.8301Z" fill="#38ACE3"/>
<path d="M37 69.9102C37 66.1302 38.33 64.8301 40.64 64.8301C42.95 64.8301 44.27 66.1202 44.27 69.9102C44.27 73.7002 42.95 74.7798 40.64 74.7798C38.33 74.7798 37 73.5802 37 69.9102ZM42.6 69.9102C42.6 67.0802 42 66.2598 40.6 66.2598C39.2 66.2598 38.6 67.0802 38.6 69.9102C38.6 72.5502 39.26 73.3501 40.6 73.3501C41.94 73.3501 42.55 72.5302 42.55 69.9102H42.6Z" fill="#38ACE3"/>
<path d="M45.4004 69.6299C45.4004 66.1299 46.4004 64.4702 49.3404 64.4702C50.4799 64.4975 51.6145 64.6276 52.7304 64.8599L52.6704 66.1602C51.6459 66.0191 50.6143 65.9356 49.5804 65.9102C47.5804 65.9102 47.0904 66.8199 47.0904 69.6299C47.0904 72.4399 47.5104 73.3501 49.5404 73.3501C50.0654 73.3366 50.5894 73.2965 51.1104 73.23V70.8101H49.8904V69.3701H52.7304V74.4399C51.6255 74.6251 50.5099 74.7385 49.3904 74.7798C46.2204 74.7798 45.4004 72.9399 45.4004 69.6299Z" fill="#38ACE3"/>
<path d="M54.5596 74.6001V64.29H56.1496V67.6001C56.7231 67.352 57.3357 67.2062 57.9596 67.1699C59.9596 67.1699 60.7896 68.1701 60.7896 70.8701C60.7896 73.8701 59.8396 74.7798 57.2296 74.7798C56.6796 74.7798 55.3796 74.6701 54.5596 74.6001ZM59.1696 70.8701C59.1696 69.2201 58.7496 68.5898 57.7696 68.5898C57.22 68.6149 56.6757 68.7092 56.1496 68.8701V73.29C56.4996 73.29 57.0096 73.3501 57.2296 73.3501C58.8496 73.3501 59.1696 72.6301 59.1696 70.8701Z" fill="#38ACE3"/>
<path d="M62.3701 67.3301H64.0001V67.7798C64.5661 67.4306 65.2071 67.2216 65.8701 67.1699C67.7601 67.1699 68.6501 68.2499 68.6501 70.8999C68.6501 73.8999 67.6501 74.7798 65.4001 74.7798C64.9307 74.7671 64.4628 74.7207 64.0001 74.6401V77.75H62.4101L62.3701 67.3301ZM66.9901 70.8999C66.9901 69.2099 66.4401 68.5898 65.5501 68.5898C64.9975 68.6151 64.4561 68.7549 63.9601 69V73.27C64.3828 73.3449 64.8109 73.3852 65.2401 73.3901C66.6001 73.3901 67.0001 72.6799 67.0001 70.8999H66.9901Z" fill="#38ACE3"/>
<path d="M69.9203 74.4502L69.9803 73.1099C70.8055 73.234 71.6366 73.3144 72.4703 73.3501C73.5203 73.3501 73.9303 73.13 73.9303 72.5C73.9303 71.87 73.6803 71.8301 72.2403 71.6001C70.6303 71.3301 69.8203 70.9799 69.8203 69.4399C69.8203 67.8999 71.1003 67.1802 72.5403 67.1802C73.4676 67.2092 74.3909 67.3161 75.3003 67.5V68.8301C74.435 68.7055 73.5638 68.6252 72.6903 68.5898C71.8103 68.5898 71.4403 68.8099 71.4403 69.3999C71.4403 69.9899 71.7403 70.0098 73.1603 70.2598C74.9103 70.5598 75.5503 71 75.5503 72.46C75.5503 74.16 74.4503 74.7798 72.6503 74.7798C71.7326 74.7467 70.8194 74.6368 69.9203 74.4502Z" fill="#38ACE3"/>
<path d="M76.5195 76.4399C77.3299 74.4637 77.7966 72.3635 77.8995 70.23C77.7815 67.9884 77.316 65.7789 76.5195 63.6802H77.9995C78.9924 65.7259 79.5443 67.9573 79.6195 70.23C79.5677 72.3975 79.0131 74.5233 77.9995 76.4399H76.5195Z" fill="#38ACE3"/>
<path d="M9.39005 17.7402C7.04288 17.7402 4.79185 16.8076 3.13216 15.1479C1.47246 13.4883 0.540039 11.2373 0.540039 8.89014C0.540039 6.54297 1.47246 4.29202 3.13216 2.63232C4.79185 0.972627 7.04288 0.0400391 9.39005 0.0400391C11.7372 0.0400391 13.9882 0.972627 15.6479 2.63232C17.3076 4.29202 18.2401 6.54297 18.2401 8.89014C18.2401 11.2373 17.3076 13.4883 15.6479 15.1479C13.9882 16.8076 11.7372 17.7402 9.39005 17.7402Z" fill="#38ACE3"/>
<path d="M8.54007 5.33008L6.13008 6.91016L5.33008 5.6001L8.68007 3.35986H10.3001V13.6802H8.54007V5.33008Z" fill="white"/>
<path d="M9.39005 61.9199C7.04369 61.9173 4.79419 60.9843 3.13507 59.3252C1.47595 57.6661 0.542686 55.4162 0.540039 53.0698C0.540039 50.7227 1.47246 48.4717 3.13216 46.812C4.79185 45.1523 7.04288 44.2202 9.39005 44.2202C11.7372 44.2202 13.9882 45.1523 15.6479 46.812C17.3076 48.4717 18.2401 50.7227 18.2401 53.0698C18.2401 55.417 17.3076 57.6684 15.6479 59.3281C13.9882 60.9878 11.7372 61.9199 9.39005 61.9199Z" fill="#38ACE3"/>
<path d="M6.07031 56.3701L8.60031 53.7402C9.93031 52.3802 10.6903 51.55 10.6903 50.48C10.6903 49.41 10.1003 48.9302 8.77031 48.9302C7.92167 48.9535 7.07597 49.0402 6.24031 49.1899L6.13031 47.8198C7.1234 47.5393 8.14851 47.3883 9.1803 47.3701C11.4603 47.3701 12.5103 48.3002 12.5103 50.2402C12.5103 51.8002 11.8503 52.7102 10.2603 54.2402L8.05031 56.3501H12.7103V57.8799H6.07031V56.3701Z" fill="white"/>
<path d="M227.73 9.41016V2.64014H229.36V9.43994C229.36 10.7799 230.07 11.3599 231.36 11.3599C232.65 11.3599 233.42 10.7799 233.42 9.43994V2.64014H235.05V9.41016C235.05 11.8102 233.77 12.79 231.36 12.79C228.95 12.79 227.73 11.8102 227.73 9.41016Z" fill="#38ACE3"/>
<path d="M236.84 12.3901L237 11.1001C237.86 11.2001 239.25 11.3501 240 11.3501C241.22 11.3501 241.81 10.7898 241.81 9.75977C241.81 8.92977 241.35 8.63 239.81 8.25C237.64 7.7 236.72 7.04008 236.72 5.33008C236.72 3.33008 238.05 2.47021 240.05 2.47021C241.11 2.50656 242.167 2.62317 243.21 2.81982L243.08 4.14014C242.2 4.04014 240.8 3.8999 240.19 3.8999C238.97 3.8999 238.35 4.34996 238.35 5.20996C238.35 6.06996 238.88 6.33006 240.59 6.81006C242.67 7.39006 243.43 7.9499 243.43 9.6499C243.43 11.8399 242.06 12.79 240.09 12.79C238.997 12.7458 237.91 12.6121 236.84 12.3901Z" fill="#38ACE3"/>
<path d="M245.19 2.64014H249C251 2.64014 252 3.39023 252 5.24023C252.059 5.68859 251.978 6.14411 251.769 6.54492C251.56 6.94574 251.232 7.27211 250.83 7.47998C251.297 7.64533 251.693 7.96583 251.951 8.38818C252.21 8.81054 252.315 9.30892 252.25 9.7998C252.25 11.7998 251.01 12.6299 249.07 12.6299H245.16L245.19 2.64014ZM248.95 6.87988C249.95 6.87988 250.37 6.39994 250.37 5.43994C250.37 4.47994 249.89 4.06006 248.89 4.06006H246.83V6.87988H248.95ZM249.01 11.21C250.01 11.21 250.62 10.91 250.62 9.70996C250.62 8.50996 249.77 8.27979 248.98 8.27979H246.83V11.21H249.01Z" fill="#38ACE3"/>
<path d="M257 12.3398L257.1 11.0698C258.035 11.236 258.981 11.333 259.93 11.3599C261.1 11.3599 261.68 10.8601 261.68 9.83008C261.68 8.80008 260.98 8.40014 260.04 8.39014H258.1V7H260.04C260.423 6.97754 260.784 6.81164 261.051 6.53564C261.317 6.25965 261.471 5.89348 261.48 5.50977C261.48 4.64977 260.98 4.25977 259.82 4.25977C258.954 4.27862 258.091 4.36895 257.24 4.52979L257.1 3.29004C258.013 3.00101 258.963 2.8461 259.92 2.83008C262.34 2.83008 263.17 3.66016 263.17 5.41016C263.175 5.85065 263.062 6.2843 262.842 6.66602C262.622 7.04773 262.304 7.36343 261.92 7.58008C262.382 7.71044 262.781 8.00219 263.045 8.40234C263.309 8.8025 263.421 9.28411 263.36 9.75977C263.36 11.7598 262.43 12.7598 260.15 12.7598C259.087 12.7433 258.03 12.6024 257 12.3398Z" fill="#38ACE3"/>
<path d="M265.21 10.5298H266.93V12.6299H265.21V10.5298Z" fill="#38ACE3"/>
<path d="M268.78 11.2402L271.14 8.79004C272.38 7.53004 273.09 6.79004 273.09 5.79004C273.09 4.79004 272.54 4.3501 271.3 4.3501C270.509 4.37232 269.72 4.45228 268.94 4.58984L268.84 3.31006C269.765 3.04659 270.719 2.90547 271.68 2.89014C273.81 2.89014 274.79 3.75982 274.79 5.56982C274.79 7.02982 274.17 7.87002 272.69 9.27002L270.63 11.27H275V12.7002H268.8L268.78 11.2402Z" fill="#38ACE3"/>
<path d="M279.9 7.64014C279.9 4.14014 280.9 2.47998 283.83 2.47998C284.974 2.50499 286.112 2.63883 287.23 2.87988L287.17 4.16992C286.146 4.02883 285.114 3.94536 284.08 3.91992C282.08 3.91992 281.59 4.83014 281.59 7.64014C281.59 10.4501 282.01 11.3599 284.04 11.3599C284.566 11.3514 285.09 11.3117 285.61 11.2402V8.81982H284.39V7.37988H287.23V12.4502C286.126 12.6354 285.01 12.7488 283.89 12.79C280.71 12.79 279.9 11.0001 279.9 7.64014Z" fill="#38ACE3"/>
<path d="M288.71 9.06006C288.71 6.39006 289.86 5.18018 291.88 5.18018C293.9 5.18018 294.94 6.24002 294.94 8.52002L294.83 9.6499H290.33C290.33 10.8199 290.77 11.3901 291.98 11.3901C292.82 11.3901 293.98 11.3198 294.67 11.2598V12.4502C293.682 12.6536 292.678 12.7672 291.67 12.79C289.56 12.79 288.71 11.6201 288.71 9.06006ZM293.36 8.43018C293.36 6.99018 292.94 6.49023 291.88 6.49023C290.82 6.49023 290.33 7.04018 290.31 8.43018H293.36Z" fill="#38ACE3"/>
<path d="M296.46 5.33984H298.05V5.79004C298.661 5.43653 299.345 5.22799 300.05 5.18018C302.05 5.18018 302.57 6.33021 302.57 8.72021V12.6299H301V8.75977C301 7.31977 300.83 6.60986 299.72 6.60986C299.149 6.61886 298.587 6.74873 298.07 6.99023V12.6299H296.48L296.46 5.33984Z" fill="#38ACE3"/>
<path d="M304.43 11.2402L306.79 8.79004C308.03 7.53004 308.79 6.79004 308.79 5.79004C308.79 4.79004 308.23 4.3501 306.99 4.3501C306.198 4.37232 305.409 4.45228 304.63 4.58984L304.53 3.31006C305.454 3.04659 306.409 2.90547 307.37 2.89014C309.5 2.89014 310.48 3.75982 310.48 5.56982C310.48 7.02982 309.86 7.87002 308.38 9.27002L306.32 11.27H310.67V12.7002H304.47L304.43 11.2402Z" fill="#38ACE3"/>
<path d="M317.85 4.1001H315V2.64014H322.29V4.1001H319.47V12.6299H317.84L317.85 4.1001Z" fill="#38ACE3"/>
<path d="M325.09 12.6299H323.84L321.93 5.33984H323.5L325.03 11.27H325.43L326.97 5.33984H328.54L325.79 15.7598H324.21L325.09 12.6299Z" fill="#38ACE3"/>
<path d="M329.78 5.33984H331.37V5.79004C331.936 5.44085 332.577 5.23187 333.24 5.18018C335.13 5.18018 336.02 6.26016 336.02 8.91016C336.02 11.9102 335.02 12.79 332.77 12.79C332.301 12.7756 331.834 12.7323 331.37 12.6602V15.7598H329.78V5.33984ZM334.4 8.91016C334.4 7.22016 333.85 6.60986 332.96 6.60986C332.407 6.63122 331.865 6.77119 331.37 7.02002V11.29C331.793 11.3617 332.221 11.3984 332.65 11.3999C334 11.3999 334.4 10.6902 334.4 8.91016Z" fill="#38ACE3"/>
<path d="M337.25 9.06006C337.25 6.39006 338.41 5.18018 340.42 5.18018C342.43 5.18018 343.48 6.24002 343.48 8.52002L343.38 9.6499H338.87C338.87 10.8199 339.31 11.3901 340.52 11.3901C341.37 11.3901 342.52 11.3198 343.22 11.2598V12.4502C342.232 12.6523 341.228 12.7659 340.22 12.79C338.1 12.79 337.25 11.6201 337.25 9.06006ZM341.9 8.43018C341.9 6.99018 341.48 6.49023 340.42 6.49023C339.36 6.49023 338.87 7.04018 338.86 8.43018H341.9Z" fill="#38ACE3"/>
<path d="M344.93 8H349.29V9.45996H344.93V8Z" fill="#38ACE3"/>
<path d="M350.93 7.64014C350.93 4.03014 351.69 2.47998 354.68 2.47998C355.643 2.50213 356.602 2.62627 357.54 2.8501L357.48 4.16992C356.626 4.02978 355.764 3.94626 354.9 3.91992C353.06 3.91992 352.63 4.82014 352.63 7.64014C352.63 10.4601 352.99 11.3301 354.94 11.3301C355.79 11.3117 356.639 11.238 357.48 11.1099V12.4702C356.544 12.66 355.594 12.7669 354.64 12.79C351.63 12.79 350.93 11.0501 350.93 7.64014Z" fill="#38ACE3"/>
<path d="M227.29 25.7202C227.369 23.4501 227.925 21.222 228.92 19.1802H230.42C229.623 21.2754 229.158 23.4818 229.04 25.7202C229.141 27.854 229.607 29.9546 230.42 31.9302H228.92C227.9 30.0155 227.342 27.8889 227.29 25.7202Z" fill="#38ACE3"/>
<path d="M235.14 22.3301L232.9 23.7998L232.15 22.5801L235.27 20.4902H236.79V30.1099H235.14V22.3301Z" fill="#38ACE3"/>
<path d="M239.47 25.3999C239.47 21.6299 240.79 20.3301 243.11 20.3301C245.43 20.3301 246.74 21.6099 246.74 25.3999C246.74 29.1899 245.41 30.27 243.11 30.27C240.81 30.27 239.47 29.0799 239.47 25.3999ZM245.06 25.3999C245.06 22.5799 244.47 21.7598 243.11 21.7598C241.75 21.7598 241.16 22.5799 241.16 25.3999C241.16 28.0399 241.81 28.8398 243.16 28.8398C244.51 28.8398 245.06 27.9999 245.06 25.3999Z" fill="#38ACE3"/>
<path d="M247.92 25.1299C247.92 21.6299 248.92 19.9702 251.85 19.9702C252.993 19.9977 254.131 20.1279 255.25 20.3599L255.19 21.6602C254.165 21.5191 253.134 21.4356 252.1 21.4102C250.1 21.4102 249.61 22.3099 249.61 25.1299C249.61 27.9499 250.03 28.8398 252.06 28.8398C252.58 28.8398 253.28 28.77 253.63 28.73V26.3101H252.41V24.8599H255.25V29.9399C254.145 30.1216 253.029 30.2319 251.91 30.27C248.73 30.27 247.92 28.4399 247.92 25.1299Z" fill="#38ACE3"/>
<path d="M257.08 30.1001V19.79H258.67V23.1001C259.243 22.8475 259.855 22.6986 260.48 22.6602C262.48 22.6602 263.31 23.6601 263.31 26.3701C263.31 29.3701 262.36 30.27 259.75 30.27C259.19 30.27 257.9 30.1701 257.08 30.1001ZM261.69 26.3701C261.69 24.7201 261.26 24.0898 260.29 24.0898C259.74 24.1084 259.195 24.2029 258.67 24.3701V28.79C259.02 28.79 259.53 28.8398 259.75 28.8398C261.37 28.8398 261.69 28.1301 261.69 26.3701Z" fill="#38ACE3"/>
<path d="M264.89 22.8198H266.48V23.27C267.043 22.9223 267.68 22.7134 268.34 22.6602C270.24 22.6602 271.13 23.7401 271.13 26.3901C271.13 29.3901 270.13 30.27 267.88 30.27C267.41 30.2606 266.943 30.2173 266.48 30.1401V33.25H264.89V22.8198ZM269.51 26.3901C269.51 24.7001 268.96 24.0898 268.07 24.0898C267.516 24.1112 266.974 24.2512 266.48 24.5V28.77C266.902 28.8454 267.33 28.8857 267.76 28.8901C269.12 28.8901 269.51 28.1701 269.51 26.3901Z" fill="#38ACE3"/>
<path d="M272.44 30L272.49 28.6602C273.25 28.7602 274.49 28.8901 274.99 28.8901C276.04 28.8901 276.44 28.6698 276.44 28.0498C276.44 27.4298 276.2 27.3801 274.75 27.1401C273.15 26.8801 272.33 26.5302 272.33 24.9902C272.33 23.4502 273.62 22.73 275.06 22.73C275.987 22.759 276.911 22.8659 277.82 23.0498V24.3799C276.955 24.2503 276.084 24.1705 275.21 24.1401C274.33 24.1401 273.95 24.3599 273.95 24.9399C273.95 25.5199 274.26 25.5598 275.67 25.7998C277.42 26.1098 278.06 26.5498 278.06 28.0098C278.06 29.7098 276.97 30.3198 275.16 30.3198C274.246 30.2896 273.336 30.1827 272.44 30Z" fill="#38ACE3"/>
<path d="M279 31.9302C279.808 29.9531 280.275 27.8534 280.38 25.7202C280.257 23.4825 279.792 21.2768 279 19.1802H280.51C281.502 21.2229 282.053 23.4509 282.13 25.7202C282.081 27.8881 281.526 30.0145 280.51 31.9302H279Z" fill="#38ACE3"/>
<path d="M283.42 25.7202C283.499 23.4501 284.055 21.222 285.05 19.1802H286.55C285.758 21.2768 285.293 23.4825 285.17 25.7202C285.275 27.8534 285.742 29.9531 286.55 31.9302H285.05C284.03 30.0155 283.472 27.8889 283.42 25.7202Z" fill="#38ACE3"/>
<path d="M287.82 29.7798L287.99 28.54C288.965 28.7078 289.951 28.8048 290.94 28.8301C291.179 28.8539 291.42 28.824 291.646 28.7427C291.872 28.6613 292.076 28.5305 292.245 28.3599C292.414 28.1892 292.542 27.983 292.621 27.7563C292.7 27.5297 292.727 27.2883 292.7 27.0498C292.7 25.8698 292.12 25.4502 291.08 25.4502C290.397 25.462 289.72 25.5904 289.08 25.8301L288.08 25.6099L288.34 20.4902H294.1V21.9399H289.65L289.39 24.46C290.007 24.1881 290.668 24.0322 291.34 24C293.27 24 294.43 24.8401 294.43 26.8901C294.43 28.9401 293.24 30.27 291.17 30.27C290.038 30.241 288.913 30.0762 287.82 29.7798Z" fill="#38ACE3"/>
<path d="M295.45 20.1299H297.16L299.16 28.6802H299.88L301.88 20.1299H303.6L301.15 30.1299H297.95L295.45 20.1299Z" fill="#38ACE3"/>
<path d="M303.69 30L307.84 19.7202L309.24 20.23L305.08 30.5098L303.69 30Z" fill="#38ACE3"/>
<path d="M310.53 29.8198L310.63 28.5498C311.565 28.716 312.511 28.813 313.46 28.8398C314.63 28.8398 315.21 28.3501 315.21 27.3101C315.21 26.2701 314.51 25.8801 313.56 25.8701H311.63V24.5H313.56C313.945 24.4774 314.307 24.3103 314.574 24.0322C314.841 23.7541 314.993 23.3855 315 23C315 22.14 314.5 21.75 313.33 21.75C312.467 21.7672 311.607 21.8607 310.76 22.0298L310.62 20.79C311.531 20.4922 312.482 20.3335 313.44 20.3198C315.86 20.3198 316.69 21.1499 316.69 22.8999C316.696 23.3418 316.583 23.777 316.361 24.1592C316.139 24.5414 315.817 24.8561 315.43 25.0698C315.896 25.1984 316.299 25.4911 316.565 25.8936C316.832 26.2961 316.944 26.7812 316.88 27.2598C316.88 29.2598 315.94 30.2598 313.67 30.2598C312.61 30.2359 311.556 30.0883 310.53 29.8198Z" fill="#38ACE3"/>
<path d="M320.57 20.1299H323.82L326.29 30.1299H324.64L324.11 28H320.29L319.76 30.1299H318.12L320.57 20.1299ZM323.79 26.54L322.57 21.54H321.84L320.62 26.54H323.79Z" fill="#38ACE3"/>
<path d="M327 31.9302C327.816 29.9552 328.286 27.8546 328.39 25.7202C328.269 23.4813 327.8 21.2748 327 19.1802H328.52C329.508 21.2236 330.057 23.4516 330.13 25.7202C330.083 27.8872 329.532 30.0135 328.52 31.9302H327Z" fill="#38ACE3"/>
<path d="M227.82 47.1499H229.45V51.3999H233.73V47.1499H235.38V57.1499H233.73V52.8501H229.45V57.1499H227.82V47.1499Z" fill="#38ACE3"/>
<path d="M237 53.5601C237 50.8901 238.15 49.6802 240.16 49.6802C242.17 49.6802 243.22 50.75 243.22 53.02L243.12 54.1602H238.61C238.61 55.3202 239.05 55.8901 240.26 55.8901C241.11 55.8901 242.26 55.8198 242.96 55.7598V56.96C241.971 57.154 240.967 57.2645 239.96 57.29C237.88 57.29 237 56.1201 237 53.5601ZM241.65 52.9302C241.65 51.4902 241.22 50.9902 240.16 50.9902C239.1 50.9902 238.61 51.5502 238.6 52.9302H241.65Z" fill="#38ACE3"/>
<path d="M244.32 55C244.32 53.46 245.17 52.9298 246.73 52.7998L248.59 52.6401V52.1201C248.59 51.3301 248.26 51.1201 247.59 51.1201C246.92 51.1201 245.59 51.21 244.85 51.27L244.79 50.1299C245.752 49.9066 246.733 49.7794 247.72 49.75C249.5 49.75 250.23 50.5002 250.23 52.1602V55.48C250.23 55.92 250.45 56.0799 250.87 56.1499V57.3599C250.472 57.3791 250.073 57.3321 249.69 57.2202C249.412 57.1418 249.153 57.0051 248.93 56.8198C248.188 57.1469 247.391 57.3301 246.58 57.3599C245.05 57.2899 244.32 56.49 244.32 55ZM248.59 55.6899V53.7798L246.92 53.9302C246.26 54.0002 245.92 54.3002 245.92 54.9302C245.92 55.5602 246.18 55.9902 246.8 55.9902C247.409 55.9649 248.012 55.8537 248.59 55.6602V55.6899Z" fill="#38ACE3"/>
<path d="M251.84 53.5C251.84 50.86 252.84 49.6802 254.84 49.6802C255.397 49.7061 255.951 49.7695 256.5 49.8701V46.8101H258.09V57.1299H256.52V56.75C255.897 57.0649 255.216 57.2488 254.52 57.29C252.71 57.29 251.84 56.3 251.84 53.5ZM256.53 55.5V51.2002C256.02 51.1228 255.506 51.0759 254.99 51.0601C253.91 51.0601 253.46 51.8302 253.46 53.4902C253.46 55.3402 253.95 55.8501 254.84 55.8501C255.418 55.8341 255.99 55.7187 256.53 55.5098V55.5Z" fill="#38ACE3"/>
<path d="M260 49.8398H261.59V50.29C262.156 49.9409 262.797 49.7319 263.46 49.6802C265.35 49.6802 266.24 50.7602 266.24 53.4102C266.24 56.4102 265.24 57.29 262.99 57.29C262.521 57.2751 262.054 57.2318 261.59 57.1602V60.27H260V49.8398ZM264.62 53.4102C264.62 51.7202 264.07 51.1099 263.18 51.1099C262.627 51.1324 262.085 51.2724 261.59 51.52V55.79C262.013 55.8654 262.441 55.9057 262.87 55.9102C264.27 55.9102 264.66 55.1902 264.66 53.4102H264.62Z" fill="#38ACE3"/>
<path d="M267.86 46.8101H269.45V50.2202C270.075 49.9094 270.755 49.7258 271.45 49.6802C273.45 49.6802 273.97 50.8302 273.97 53.2202V57.1299H272.39V53.27C272.39 51.82 272.21 51.1099 271.09 51.1099C270.53 51.1271 269.976 51.2355 269.45 51.4302V57.1299H267.86V46.8101Z" fill="#38ACE3"/>
<path d="M275.47 53.4399C275.47 51.0799 276.29 49.6802 278.72 49.6802C281.15 49.6802 281.97 51.0799 281.97 53.4399C281.97 55.7999 281.23 57.29 278.72 57.29C276.21 57.29 275.47 55.8599 275.47 53.4399ZM280.35 53.4399C280.35 51.7699 280 51.04 278.72 51.04C277.44 51.04 277.09 51.7699 277.09 53.4399C277.09 55.1099 277.38 55.9399 278.72 55.9399C280.06 55.9399 280.35 55.1299 280.35 53.4399Z" fill="#38ACE3"/>
<path d="M283.54 49.8398H285.13V50.29C285.741 49.9365 286.426 49.728 287.13 49.6802C289.13 49.6802 289.65 50.8302 289.65 53.2202V57.1299H288.06V53.27C288.06 51.82 287.89 51.1099 286.78 51.1099C286.21 51.1203 285.648 51.2501 285.13 51.4902V57.1299H283.54V49.8398Z" fill="#38ACE3"/>
<path d="M291.15 53.5601C291.15 50.8901 292.3 49.6802 294.31 49.6802C296.32 49.6802 297.37 50.75 297.37 53.02L297.27 54.1602H292.77C292.77 55.3202 293.2 55.8901 294.41 55.8901C295.26 55.8901 296.41 55.8198 297.11 55.7598V56.96C296.121 57.154 295.118 57.2645 294.11 57.29C292 57.29 291.15 56.1201 291.15 53.5601ZM295.8 52.9302C295.8 51.4902 295.38 50.9902 294.31 50.9902C293.24 50.9902 292.77 51.5502 292.75 52.9302H295.8Z" fill="#38ACE3"/>
<path d="M301.61 57L305.76 46.7202L307.16 47.23L303 57.5098L301.61 57Z" fill="#38ACE3"/>
<path d="M312 47.1499H314.83L317.05 54.9302L319.26 47.1499H322.1V57.1499H320.47V49H320.25L317.89 56.77H316.2L313.8 49H313.58V57.1802H312V47.1499Z" fill="#38ACE3"/>
<path d="M324.15 46.9302H325.74V48.6201H324.15V46.9302ZM324.15 49.8398H325.74V57.1299H324.15V49.8398Z" fill="#38ACE3"/>
<path d="M327.35 53.3799C327.35 50.7799 328.23 49.6802 330.35 49.6802C331.082 49.7168 331.811 49.8102 332.53 49.96L332.48 51.23C331.98 51.23 331.18 51.1099 330.77 51.1099C329.26 51.1099 328.92 51.7199 328.92 53.3799C328.92 55.2499 329.21 55.8599 330.79 55.8599C331.19 55.8599 332 55.79 332.49 55.75V57.0298C331.76 57.1715 331.022 57.2587 330.28 57.29C328.13 57.29 327.35 56.1799 327.35 53.3799Z" fill="#38ACE3"/>
<path d="M334.11 49.8398H335.7V50.7002C336.464 50.2425 337.294 49.9052 338.16 49.7002V51.3101C337.316 51.4712 336.491 51.7227 335.7 52.0601V57.1499H334.11V49.8398Z" fill="#38ACE3"/>
<path d="M339 53.4399C339 51.0799 339.82 49.6802 342.26 49.6802C344.7 49.6802 345.51 51.0799 345.51 53.4399C345.51 55.7999 344.76 57.29 342.26 57.29C339.76 57.29 339 55.8599 339 53.4399ZM343.89 53.4399C343.89 51.7699 343.54 51.04 342.26 51.04C340.98 51.04 340.62 51.7699 340.62 53.4399C340.62 55.1099 340.91 55.9399 342.26 55.9399C343.61 55.9399 343.85 55.1299 343.85 53.4399H343.89Z" fill="#38ACE3"/>
<path d="M347 49.8398H348.59V50.29C349.157 49.9422 349.797 49.7334 350.46 49.6802C352.35 49.6802 353.24 50.7602 353.24 53.4102C353.24 56.4102 352.24 57.29 349.99 57.29C349.521 57.2751 349.054 57.2318 348.59 57.1602V60.27H347V49.8398ZM351.63 53.4102C351.63 51.7202 351.07 51.1099 350.18 51.1099C349.627 51.1351 349.086 51.2749 348.59 51.52V55.79C349.016 55.8648 349.447 55.9051 349.88 55.9102C351.26 55.9102 351.66 55.1902 351.66 53.4102H351.63Z" fill="#38ACE3"/>
<path d="M354.86 46.8101H356.45V50.2202C357.074 49.9069 357.754 49.7231 358.45 49.6802C360.45 49.6802 360.97 50.8302 360.97 53.2202V57.1299H359.38V53.27C359.38 51.82 359.2 51.1099 358.08 51.1099C357.523 51.1269 356.973 51.2353 356.45 51.4302V57.1299H354.86V46.8101Z" fill="#38ACE3"/>
<path d="M362.46 53.4399C362.46 51.0799 363.28 49.6802 365.72 49.6802C368.16 49.6802 368.97 51.0799 368.97 53.4399C368.97 55.7999 368.22 57.29 365.72 57.29C363.22 57.29 362.46 55.8599 362.46 53.4399ZM367.35 53.4399C367.35 51.7699 367 51.04 365.72 51.04C364.44 51.04 364.08 51.7699 364.08 53.4399C364.08 55.1099 364.37 55.9399 365.72 55.9399C367.07 55.9399 367.35 55.1299 367.35 53.4399Z" fill="#38ACE3"/>
<path d="M370.53 49.8398H372.12V50.29C372.733 49.9394 373.416 49.7311 374.12 49.6802C376.12 49.6802 376.64 50.8302 376.64 53.2202V57.1299H375.06V53.27C375.06 51.82 374.88 51.1099 373.77 51.1099C373.2 51.1203 372.638 51.2501 372.12 51.4902V57.1299H370.53V49.8398Z" fill="#38ACE3"/>
<path d="M378.14 53.5601C378.14 50.8901 379.29 49.6802 381.31 49.6802C383.33 49.6802 384.37 50.75 384.37 53.02L384.26 54.1602H379.76C379.76 55.3202 380.2 55.8901 381.41 55.8901C382.25 55.8901 383.41 55.8198 384.1 55.7598V56.96C383.111 57.1546 382.107 57.2651 381.1 57.29C379 57.29 378.14 56.1201 378.14 53.5601ZM382.79 52.9302C382.79 51.4902 382.37 50.9902 381.31 50.9902C380.25 50.9902 379.76 51.5502 379.74 52.9302H382.79Z" fill="#38ACE3"/>
<path d="M211.91 17.7402C209.562 17.7402 207.311 16.8076 205.652 15.1479C203.992 13.4883 203.06 11.2373 203.06 8.89014C203.06 6.54297 203.992 4.29202 205.652 2.63232C207.311 0.972627 209.562 0.0400391 211.91 0.0400391C214.257 0.0400391 216.508 0.972627 218.167 2.63232C219.827 4.29202 220.76 6.54297 220.76 8.89014C220.76 11.2373 219.827 13.4883 218.167 15.1479C216.508 16.8076 214.257 17.7402 211.91 17.7402Z" fill="#38ACE3"/>
<path d="M208.46 13.3599L208.57 12C209.561 12.1805 210.563 12.2872 211.57 12.3198C212.82 12.3198 213.45 11.7802 213.45 10.6802C213.45 9.58018 212.7 9.13988 211.68 9.12988H209.6V7.66016H211.68C212.091 7.64005 212.48 7.4649 212.768 7.16992C213.055 6.87494 213.22 6.48167 213.23 6.06982C213.23 5.13982 212.7 4.72021 211.45 4.72021C210.52 4.73808 209.593 4.83828 208.68 5.02002L208.54 3.68994C209.51 3.37688 210.521 3.20841 211.54 3.18994C214.13 3.18994 215.02 4.07996 215.02 5.95996C215.026 6.43146 214.905 6.89587 214.669 7.3042C214.433 7.71252 214.091 8.04945 213.68 8.27979C214.175 8.4233 214.604 8.73877 214.888 9.16943C215.172 9.60009 215.293 10.1179 215.23 10.6299C215.23 12.7699 214.23 13.8501 211.79 13.8501C210.665 13.8189 209.547 13.6542 208.46 13.3599Z" fill="white"/>
<path d="M211.91 61.9199C209.562 61.9199 207.311 60.9878 205.652 59.3281C203.992 57.6684 203.06 55.417 203.06 53.0698C203.06 50.7227 203.992 48.4717 205.652 46.812C207.311 45.1523 209.562 44.2202 211.91 44.2202C214.257 44.2202 216.508 45.1523 218.167 46.812C219.827 48.4717 220.76 50.7227 220.76 53.0698C220.76 55.417 219.827 57.6684 218.167 59.3281C216.508 60.9878 214.257 61.9199 211.91 61.9199Z" fill="#38ACE3"/>
<path d="M212.81 56H208.17V54.6602L210.88 47.52H212.81L209.95 54.46H212.81V51.46H214.56V54.46H215.68V56H214.56V57.8301H212.81V56Z" fill="white"/>
</svg>
