<svg xmlns="http://www.w3.org/2000/svg" viewBox="0 0 491.19 156.85"><defs><style>.cls-1,.cls-2{fill:#595757;}.cls-2{fill-rule:evenodd;}.cls-3{fill:#9e9e9f;}.cls-4{fill:#38ace3;}.cls-5{fill:#fff;}</style></defs><g id="圖層_2" data-name="圖層 2"><g id="p8"><path class="cls-1" d="M486.08,116.36H5.11a.26.26,0,0,1-.26-.26.26.26,0,0,1,.26-.26h481a.25.25,0,0,1,.26.26A.26.26,0,0,1,486.08,116.36Z"/><path class="cls-1" d="M459.58,124.47H409.19c-1.39,0-2.62-1.34-3.08-3.34l-1.14-5a.26.26,0,0,1,0-.22.25.25,0,0,1,.2-.09h58.32a.25.25,0,0,1,.2.09.26.26,0,0,1,.05.22l-1.14,5C462.2,123.13,461,124.47,459.58,124.47Zm-54-8.11,1.07,4.65c.4,1.76,1.43,2.94,2.57,2.94h50.39c1.13,0,2.16-1.18,2.56-2.94l1.07-4.65Z"/><path class="cls-1" d="M82,124.47H31.62c-1.38,0-2.62-1.34-3.08-3.34l-1.14-5a.3.3,0,0,1,.05-.22.27.27,0,0,1,.21-.09H86a.27.27,0,0,1,.21.09.3.3,0,0,1,0,.22l-1.14,5C84.63,123.13,83.39,124.47,82,124.47Zm-54-8.11L29.05,121c.4,1.76,1.44,2.94,2.57,2.94H82c1.14,0,2.17-1.18,2.57-2.94l1.07-4.65Z"/><path class="cls-1" d="M446.1,31.72c2.37,0,4.73,0,7.09,0l3.36,0,3.09.07,2.86.08,2.64.1,2.44.11,2.25.11,2.08.13,1.92.14,1.77.14,1.63.15,1.51.16,1.4.16,1.29.16,1.2.17,1.1.17,1,.18.93.18.86.18.8.19c.24,0,.48.12.72.18l.67.19.6.18.54.19.57.22a.38.38,0,0,1,.23.35V116a.38.38,0,0,1-.38.38H486.6V39.28a1.11,1.11,0,0,0-.87-1.09l-.52-.12-2-.37c-2.07-.34-4.4-.63-7.12-.88l-1.33-.12-.8-.06c-1.73-.14-3.48-.25-5.24-.34-2.35-.13-4.79-.23-7.48-.31-4.58-.13-9.53-.2-15.14-.2h-401c-5.6,0-10.55.07-15.14.2-2.68.08-5.13.18-7.48.31-1.75.09-3.5.2-5.23.34l-.81.06-1.33.12c-2.72.25-5,.54-7.11.88l-2,.37-.52.12a1.1,1.1,0,0,0-.88,1.09v77.08H.9A.38.38,0,0,1,.52,116V35.7a.38.38,0,0,1,.24-.35l.12-.05.47-.18L1.87,35a5.22,5.22,0,0,1,.56-.18l.63-.18.68-.18.75-.17.81-.18.87-.17,1-.17,1-.16,1.11-.17,1.2-.16,1.29-.15,1.39-.16,1.49-.14,1.61-.14L18,32.5l1.88-.12c.67-.05,1.35-.09,2-.12l2.19-.12,2.36-.1L29,32l2.75-.07,3-.07,3.2,0,3.46,0H446.1m0-.52H41.35l-3.46,0-3.2.05-3,.07L29,31.43l-2.55.09-2.37.1-2.19.12q-1,0-2,.12L17.93,32l-1.74.14-1.62.14-1.5.15-1.39.15-1.3.16-1.2.16L8.06,33l-1,.17-1,.17-.89.17-.81.18-.76.18-.7.18-.63.18-.59.18-.53.18-.48.19-.13,0A.9.9,0,0,0,0,35.7V116a.9.9,0,0,0,.9.9H5.11V39.28a.62.62,0,0,1,.47-.59l.51-.11q1-.19,2-.36c2.27-.38,4.66-.66,7.08-.88l1.32-.12.81-.06c1.73-.14,3.47-.25,5.22-.34q3.7-.2,7.47-.3c5-.15,10.05-.21,15.12-.21h401c5.07,0,10.12.06,15.13.21q3.75.1,7.47.3c1.75.09,3.49.2,5.22.34l.8.06,1.32.12c2.42.22,4.82.5,7.08.88.67.11,1.34.23,2,.36l.51.11a.61.61,0,0,1,.47.59v77.6h4.21a.9.9,0,0,0,.9-.9V35.7a.9.9,0,0,0-.56-.83l-.08,0-.5-.19-.56-.19-.62-.19-.67-.19-.74-.19-.81-.19-.87-.18-.94-.18-1-.18L482.7,33l-1.2-.17-1.3-.17-1.4-.16-1.52-.16-1.63-.15L473.87,32,472,31.89c-.7,0-1.39-.09-2.09-.12s-1.5-.09-2.25-.12l-2.45-.11-2.64-.1-2.86-.08-3.1-.07-3.36-.05c-2.37,0-4.73,0-7.1,0Z"/><g id="LINE"><path class="cls-1" d="M414.84,49.5a.26.26,0,0,1-.26-.26v-3a.26.26,0,0,1,.52,0v3A.26.26,0,0,1,414.84,49.5Z"/></g><g id="LINE-2" data-name="LINE"><path class="cls-1" d="M412.43,46.5a.27.27,0,0,1-.26-.27v-2.4a.27.27,0,0,1,.53,0v2.4A.27.27,0,0,1,412.43,46.5Z"/></g><g id="LINE-3" data-name="LINE"><path class="cls-1" d="M412.43,51.91a.26.26,0,0,1-.26-.26V49.24a.27.27,0,0,1,.53,0v2.41A.27.27,0,0,1,412.43,51.91Z"/></g><g id="LINE-4" data-name="LINE"><path class="cls-1" d="M409.43,51.91a.26.26,0,0,1-.26-.26V49.24a.26.26,0,0,1,.26-.26.26.26,0,0,1,.26.26v2.41A.26.26,0,0,1,409.43,51.91Z"/></g><g id="LINE-5" data-name="LINE"><path class="cls-1" d="M409.43,46.5a.26.26,0,0,1-.26-.27v-2.4a.25.25,0,0,1,.26-.26.26.26,0,0,1,.26.26v2.4A.27.27,0,0,1,409.43,46.5Z"/></g><g id="LINE-6" data-name="LINE"><path class="cls-1" d="M407,49.5a.26.26,0,0,1-.26-.26v-3A.26.26,0,0,1,407,46a.26.26,0,0,1,.26.26v3A.25.25,0,0,1,407,49.5Z"/></g><g id="LINE-7" data-name="LINE"><path class="cls-1" d="M412.43,44.09h-3a.26.26,0,0,1-.26-.26.25.25,0,0,1,.26-.26h3a.26.26,0,0,1,.27.26A.27.27,0,0,1,412.43,44.09Z"/></g><g id="LINE-8" data-name="LINE"><path class="cls-1" d="M409.43,46.5H407a.27.27,0,0,1,0-.53h2.41a.27.27,0,0,1,0,.53Z"/></g><g id="LINE-9" data-name="LINE"><path class="cls-1" d="M414.84,46.5h-2.41a.27.27,0,0,1,0-.53h2.41a.27.27,0,0,1,0,.53Z"/></g><g id="LINE-10" data-name="LINE"><path class="cls-1" d="M414.84,49.5h-2.41a.26.26,0,0,1-.26-.26.26.26,0,0,1,.26-.26h2.41a.26.26,0,0,1,.26.26A.26.26,0,0,1,414.84,49.5Z"/></g><g id="LINE-11" data-name="LINE"><path class="cls-1" d="M409.43,49.5H407a.26.26,0,0,1-.26-.26A.26.26,0,0,1,407,49h2.41a.26.26,0,0,1,.26.26A.26.26,0,0,1,409.43,49.5Z"/></g><g id="LINE-12" data-name="LINE"><path class="cls-1" d="M412.43,51.91h-3a.26.26,0,0,1-.26-.26.25.25,0,0,1,.26-.26h3a.26.26,0,0,1,.27.26A.27.27,0,0,1,412.43,51.91Z"/></g><g id="CIRCLE"><path class="cls-1" d="M410.93,55.51a7.78,7.78,0,1,1,7.78-7.77A7.78,7.78,0,0,1,410.93,55.51Zm0-15a7.26,7.26,0,1,0,7.26,7.26A7.26,7.26,0,0,0,410.93,40.48Z"/></g><g id="LINE-13" data-name="LINE"><path class="cls-1" d="M81.77,44.09h-3a.26.26,0,0,1-.26-.26.26.26,0,0,1,.26-.26h3a.26.26,0,0,1,.26.26A.26.26,0,0,1,81.77,44.09Z"/></g><g id="LINE-14" data-name="LINE"><path class="cls-1" d="M78.76,46.5h-2.4a.27.27,0,0,1,0-.53h2.4a.27.27,0,0,1,0,.53Z"/></g><g id="LINE-15" data-name="LINE"><path class="cls-1" d="M84.17,46.5h-2.4a.27.27,0,0,1,0-.53h2.4a.27.27,0,0,1,0,.53Z"/></g><g id="LINE-16" data-name="LINE"><path class="cls-1" d="M84.17,49.5h-2.4a.25.25,0,0,1-.26-.26.26.26,0,0,1,.26-.26h2.4a.26.26,0,0,1,.26.26A.26.26,0,0,1,84.17,49.5Z"/></g><g id="LINE-17" data-name="LINE"><path class="cls-1" d="M78.76,49.5h-2.4a.25.25,0,0,1-.26-.26.26.26,0,0,1,.26-.26h2.4a.26.26,0,0,1,.26.26A.26.26,0,0,1,78.76,49.5Z"/></g><g id="LINE-18" data-name="LINE"><path class="cls-1" d="M81.77,51.91h-3a.26.26,0,0,1-.26-.26.26.26,0,0,1,.26-.26h3a.26.26,0,0,1,.26.26A.26.26,0,0,1,81.77,51.91Z"/></g><g id="LINE-19" data-name="LINE"><path class="cls-1" d="M84.17,49.5a.26.26,0,0,1-.26-.26v-3a.26.26,0,0,1,.52,0v3A.26.26,0,0,1,84.17,49.5Z"/></g><g id="LINE-20" data-name="LINE"><path class="cls-1" d="M81.77,46.5a.26.26,0,0,1-.26-.27v-2.4a.25.25,0,0,1,.26-.26.26.26,0,0,1,.26.26v2.4A.27.27,0,0,1,81.77,46.5Z"/></g><g id="LINE-21" data-name="LINE"><path class="cls-1" d="M81.77,51.91a.26.26,0,0,1-.26-.26V49.24a.26.26,0,0,1,.26-.26.26.26,0,0,1,.26.26v2.41A.26.26,0,0,1,81.77,51.91Z"/></g><g id="LINE-22" data-name="LINE"><path class="cls-1" d="M78.76,51.91a.26.26,0,0,1-.26-.26V49.24a.26.26,0,0,1,.52,0v2.41A.26.26,0,0,1,78.76,51.91Z"/></g><g id="LINE-23" data-name="LINE"><path class="cls-1" d="M78.76,46.5a.27.27,0,0,1-.26-.27v-2.4a.26.26,0,0,1,.52,0v2.4A.27.27,0,0,1,78.76,46.5Z"/></g><g id="LINE-24" data-name="LINE"><path class="cls-1" d="M76.36,49.5a.25.25,0,0,1-.26-.26v-3a.26.26,0,0,1,.26-.26.26.26,0,0,1,.26.26v3A.26.26,0,0,1,76.36,49.5Z"/></g><g id="CIRCLE-2" data-name="CIRCLE"><path class="cls-1" d="M80.26,55.51A7.78,7.78,0,1,1,88,47.74,7.78,7.78,0,0,1,80.26,55.51Zm0-15a7.26,7.26,0,1,0,7.26,7.26A7.26,7.26,0,0,0,80.26,40.48Z"/></g><g id="CIRCLE-3" data-name="CIRCLE"><path class="cls-1" d="M56.21,59.5A14.51,14.51,0,1,1,41.7,74,14.53,14.53,0,0,1,56.21,59.5m0-.52a15,15,0,1,0,15,15,15,15,0,0,0-15-15Z"/></g><g id="CIRCLE-4" data-name="CIRCLE"><path class="cls-1" d="M56.21,64.22A9.79,9.79,0,1,1,46.42,74a9.81,9.81,0,0,1,9.79-9.79m0-.73A10.52,10.52,0,1,0,66.74,74,10.52,10.52,0,0,0,56.21,63.49Z"/></g><g id="LINE-25" data-name="LINE"><path class="cls-1" d="M49.18,81a.36.36,0,0,1-.32-.18.37.37,0,0,1,.13-.5l1.55-.89a.36.36,0,0,1,.5.13.37.37,0,0,1-.13.5L49.36,81A.41.41,0,0,1,49.18,81Z"/></g><g id="LINE-26" data-name="LINE"><path class="cls-1" d="M64,72.51a.37.37,0,0,1-.32-.19.35.35,0,0,1,.14-.49l1.54-.9a.37.37,0,0,1,.37.63l-1.55.9A.41.41,0,0,1,64,72.51Z"/></g><g id="LINE-27" data-name="LINE"><path class="cls-1" d="M61.7,68.6a.34.34,0,0,1-.31-.18.37.37,0,0,1,.13-.5L63.07,67a.37.37,0,0,1,.5.13.37.37,0,0,1-.14.5l-1.54.89A.41.41,0,0,1,61.7,68.6Z"/></g><g id="LINE-28" data-name="LINE"><path class="cls-1" d="M46.92,77.14A.37.37,0,0,1,46.6,77a.35.35,0,0,1,.14-.49l1.55-.9a.36.36,0,0,1,.36.63l-1.55.9A.41.41,0,0,1,46.92,77.14Z"/></g><g id="LINE-29" data-name="LINE"><path class="cls-1" d="M65.51,77.14a.41.41,0,0,1-.19,0l-1.54-.9a.36.36,0,0,1-.14-.5.37.37,0,0,1,.5-.13l1.55.9a.36.36,0,0,1,.13.49A.35.35,0,0,1,65.51,77.14Z"/></g><g id="LINE-30" data-name="LINE"><path class="cls-1" d="M50.72,68.6a.41.41,0,0,1-.18,0L49,67.66a.37.37,0,1,1,.37-.63l1.55.89a.37.37,0,0,1,.13.5A.36.36,0,0,1,50.72,68.6Z"/></g><g id="LINE-31" data-name="LINE"><path class="cls-1" d="M63.25,81a.41.41,0,0,1-.18-.05l-1.55-.89a.37.37,0,0,1-.13-.5.36.36,0,0,1,.5-.13l1.54.89a.36.36,0,0,1-.18.68Z"/></g><g id="LINE-32" data-name="LINE"><path class="cls-1" d="M48.47,72.51a.37.37,0,0,1-.18-.05l-1.55-.9a.36.36,0,0,1-.14-.5.37.37,0,0,1,.5-.13l1.55.9a.35.35,0,0,1,.13.49A.35.35,0,0,1,48.47,72.51Z"/></g><g id="LINE-33" data-name="LINE"><path class="cls-1" d="M58.47,66.73a.36.36,0,0,1-.36-.36V64.58a.36.36,0,0,1,.72,0v1.79A.36.36,0,0,1,58.47,66.73Z"/></g><g id="LINE-34" data-name="LINE"><path class="cls-1" d="M58.47,83.8a.36.36,0,0,1-.36-.36V81.65a.36.36,0,0,1,.72,0v1.79A.36.36,0,0,1,58.47,83.8Z"/></g><g id="LINE-35" data-name="LINE"><path class="cls-1" d="M54,83.8a.37.37,0,0,1-.37-.36V81.65a.37.37,0,0,1,.37-.36.36.36,0,0,1,.36.36v1.79A.36.36,0,0,1,54,83.8Z"/></g><g id="LINE-36" data-name="LINE"><path class="cls-1" d="M54,66.73a.37.37,0,0,1-.37-.36V64.58a.37.37,0,0,1,.37-.36.36.36,0,0,1,.36.36v1.79A.36.36,0,0,1,54,66.73Z"/></g><g id="CIRCLE-5" data-name="CIRCLE"><path class="cls-1" d="M56.21,66.77A7.24,7.24,0,1,1,49,74a7.25,7.25,0,0,1,7.23-7.24m0-.73a8,8,0,1,0,8,8,8,8,0,0,0-8-8Z"/></g><g id="CIRCLE-6" data-name="CIRCLE"><circle class="cls-1" cx="56.21" cy="74.01" r="3.76"/></g><polygon class="cls-2" points="98.02 95.04 100.08 95.04 100.08 100.33 98.02 100.33 98.02 98.44 94.37 98.44 94.37 100.33 92.29 100.33 92.29 95.04 94.37 95.04 94.37 97.17 98.02 97.17 98.02 95.04"/><path class="cls-2" d="M101,97.17h1.92V99h3.83V96.36H101V95h6.41a1.45,1.45,0,0,1,1.39,1.43v2.36a1.44,1.44,0,0,1-1.39,1.5H101V97.17Z"/><path class="cls-2" d="M109.62,95H118a1.32,1.32,0,0,1,1.43,1.32v4h-2v-4h-1.9v4h-2v-4h-1.94v4h-2V95Z"/><rect class="cls-1" x="120.28" y="95.04" width="2.06" height="5.29"/><polygon class="cls-2" points="172.27 95.04 174.33 95.04 174.33 100.33 172.27 100.33 172.27 98.44 168.62 98.44 168.62 100.33 166.54 100.33 166.54 95.04 168.62 95.04 168.62 97.17 172.27 97.17 172.27 95.04"/><path class="cls-2" d="M175.25,97.17h1.92V99H181V96.36h-5.75V95h6.41a1.45,1.45,0,0,1,1.39,1.43v2.36a1.44,1.44,0,0,1-1.39,1.5h-6.41V97.17Z"/><path class="cls-2" d="M183.87,95h8.38a1.32,1.32,0,0,1,1.43,1.32v4h-2v-4h-1.9v4h-2v-4h-1.94v4h-2V95Z"/><rect class="cls-1" x="194.53" y="95.04" width="2.06" height="5.29"/><path class="cls-1" d="M247.63,96.51H246.2v-.86h1.94v-.87H243v-.86h1.42c.65,0,1-.46,1-1.36V91.47c0-.91-.32-1.37-1-1.37h-3.73q-1,0-1,1.38v1.06q0,1.38,1,1.38h1.43v.86H237v.87H239v.86h-1.42c-.64,0-1,.46-1,1.36V99c0,.91.33,1.37,1,1.37h3.73q1,0,1-1.38V97.89q0-1.38-1-1.38h-1.43v-.86h5.46v.86H243.9c-.65,0-1,.46-1,1.36V99c0,.91.32,1.37,1,1.37h3.73q1,0,1-1.38V97.89Q248.59,96.51,247.63,96.51Zm-7-4.05v-.82c0-.48.11-.72.31-.72h3.36c.21,0,.31.24.31.71v.75c0,.48-.1.72-.31.72h-3.36C240.71,93.1,240.6,92.88,240.6,92.46Zm.81,5.51v.82c0,.48-.1.71-.31.71h-3.36c-.21,0-.31-.23-.31-.7v-.75c0-.48.1-.72.31-.72h3.36C241.31,97.33,241.41,97.55,241.41,98Zm6.34.82c0,.48-.1.71-.31.71h-3.36c-.21,0-.31-.23-.31-.7v-.75c0-.48.1-.72.31-.72h3.36c.21,0,.31.22.31.64Z"/><path class="cls-1" d="M323.62,93.41V99c0,.87-.56,1.31-1.68,1.31h-1.17c-1.11,0-1.66-.44-1.66-1.32v-5.6h1.39V99c0,.31.2.46.6.46h.57c.38,0,.56-.15.56-.46V93.41Z"/><path class="cls-1" d="M327.51,95.27v-.61c0-.27-.2-.41-.61-.41h-.21c-.4,0-.6.14-.6.41v1.15a.28.28,0,0,0,.12.26,4.15,4.15,0,0,0,.38.17l1.31.47c.29.11.5.2.62.26a.78.78,0,0,1,.28.22.85.85,0,0,1,.1.5v1.47c0,.78-.56,1.16-1.68,1.16h-.85c-1.11,0-1.66-.42-1.66-1.27v-.34h1.38v.37c0,.27.21.41.63.41H327c.37,0,.55-.14.55-.41V97.91a.28.28,0,0,0-.11-.26c-.08-.05-.21-.1-.38-.18L325.7,97a5.11,5.11,0,0,1-.63-.26.73.73,0,0,1-.28-.27.94.94,0,0,1-.08-.44V94.6c0-.79.55-1.19,1.66-1.19h.87c1.11,0,1.66.4,1.66,1.19v.67Z"/><path class="cls-1" d="M333.21,96.77c.76.14,1.14.41,1.14.79v1.73c0,.69-.52,1-1.57,1H330V93.41h2.37c1.23,0,1.85.42,1.85,1.25V96c0,.4-.33.64-1,.73Zm-1.84-.44H332c.53,0,.8-.17.8-.5V94.75c0-.33-.21-.5-.62-.5h-.83Zm0,3.16h1.05c.36,0,.55-.1.55-.3V97.66c0-.33-.28-.49-.83-.49h-.77Z"/><path class="cls-1" d="M409.07,100.33V93.41h2.42c1.3,0,1.95.44,1.95,1.33v4.58c0,.67-.56,1-1.66,1Zm1.39-.84h1c.37,0,.55-.11.55-.31V94.75c0-.33-.21-.5-.62-.5h-1Z"/><path class="cls-1" d="M414.6,93.41h2.53c1.12,0,1.67.4,1.67,1.19v2.05c0,.78-.55,1.17-1.66,1.17H416v2.51H414.6ZM416,97h.89c.36,0,.55-.13.55-.4V94.65c0-.27-.21-.4-.63-.4H416Z"/><path class="cls-1" d="M29.39,76.18a.17.17,0,0,1-.1-.21l.55-1.87h-1.1a.18.18,0,0,1-.1,0,.17.17,0,0,1,0-.24l2.16-2.76A.16.16,0,0,1,31,71a.18.18,0,0,1,.11.21l-.55,1.87H31.6a.17.17,0,0,1,.1,0,.18.18,0,0,1,0,.24l-2.16,2.76Z"/><path class="cls-1" d="M31.82,78.92c-.92,0-.92-.28-.92-.47V78h.17c1.49,0,2.23-.5,2.23-1.5V70.72c0-.74-.42-1.2-1.26-1.39V67.87H30.81v1.36H29.65V67.87H28.42v1.44c-.91.18-1.37.64-1.37,1.41V76.5c0,1,.75,1.5,2.24,1.5h.38v.45c0,.51.21,1.7,2.15,1.7h2.45V78.92Zm-3.73-2.5V70.81c0-.34.41-.51,1.22-.51h1.57q1.38,0,1.38.51v5.61c0,.35-.45.52-1.34.52H29.47C28.55,76.94,28.09,76.77,28.09,76.42Z"/><path class="cls-1" d="M318.8,42.72a.78.78,0,0,1,.77.78v16a.78.78,0,0,1-.78.78H280.62a.78.78,0,0,1-.78-.78v-16a.78.78,0,0,1,.78-.78H318.8m0-.72H280.62a1.51,1.51,0,0,0-1.51,1.5v16a1.51,1.51,0,0,0,1.51,1.5h38.17a1.51,1.51,0,0,0,1.51-1.5v-16a1.5,1.5,0,0,0-1.5-1.5Z"/><rect class="cls-1" x="283.6" y="46.39" width="31.99" height="4.48"/><path class="cls-1" d="M318.8,68.28a.77.77,0,0,1,.77.77V85a.78.78,0,0,1-.78.78H280.62a.78.78,0,0,1-.78-.78v-16a.77.77,0,0,1,.78-.77H318.8m0-.73H280.62a1.51,1.51,0,0,0-1.51,1.5V85a1.52,1.52,0,0,0,1.51,1.51h38.17A1.52,1.52,0,0,0,320.3,85v-16a1.5,1.5,0,0,0-1.5-1.5Z"/><rect class="cls-1" x="283.6" y="71.94" width="31.99" height="4.48"/><path class="cls-1" d="M372.84,42.72a.78.78,0,0,1,.78.78v16a.78.78,0,0,1-.78.78H334.67a.78.78,0,0,1-.78-.78v-16a.78.78,0,0,1,.78-.78h38.17m0-.72H334.67a1.51,1.51,0,0,0-1.51,1.5v16a1.51,1.51,0,0,0,1.51,1.5h38.17a1.51,1.51,0,0,0,1.51-1.5v-16a1.51,1.51,0,0,0-1.51-1.5Z"/><rect class="cls-1" x="337.65" y="46.39" width="31.99" height="4.48"/><path class="cls-1" d="M372.84,68.28a.77.77,0,0,1,.78.77V85a.78.78,0,0,1-.78.78H334.67a.78.78,0,0,1-.78-.78v-16a.77.77,0,0,1,.78-.77h38.17m0-.73H334.67a1.51,1.51,0,0,0-1.51,1.5V85a1.52,1.52,0,0,0,1.51,1.51h38.17A1.52,1.52,0,0,0,374.35,85v-16a1.51,1.51,0,0,0-1.51-1.5Z"/><rect class="cls-1" x="337.65" y="71.94" width="31.99" height="4.48"/><path class="cls-1" d="M126.86,71.49a2.58,2.58,0,0,1,2.57,2.58v6.41a2.57,2.57,0,0,1-1.82,2.46l-1.13.35a1.65,1.65,0,0,0-.74.47L126,84l0,0-.19-.17-2.36,2.68a2.61,2.61,0,0,1-1.94.87H93.19a2.59,2.59,0,0,1-1.93-.87L88.9,83.77a1.59,1.59,0,0,0-.72-.47h0L87,82.94a2.57,2.57,0,0,1-1.82-2.46V74.07a2.59,2.59,0,0,1,2.58-2.58h39.08m0-.73H87.78a3.31,3.31,0,0,0-3.31,3.31v6.41a3.31,3.31,0,0,0,2.34,3.16L88,84h0a1,1,0,0,1,.4.26l2.35,2.68a3.32,3.32,0,0,0,2.48,1.12h28.25a3.34,3.34,0,0,0,2.49-1.12l2.35-2.68h0a.85.85,0,0,1,.41-.26l1.14-.35a3.3,3.3,0,0,0,2.33-3.16V74.07a3.31,3.31,0,0,0-3.3-3.31Z"/><polygon class="cls-1" points="91.1 80.02 91.1 76.82 123.5 76.82 123.44 79.82 91.1 80.02"/><path class="cls-1" d="M201.11,71.49a2.59,2.59,0,0,1,2.58,2.58v6.41a2.58,2.58,0,0,1-1.83,2.46l-1.13.35a1.65,1.65,0,0,0-.74.47h0l-2.35,2.67a2.61,2.61,0,0,1-1.94.87H167.44a2.59,2.59,0,0,1-1.93-.87l-2.36-2.68a1.55,1.55,0,0,0-.67-.46h0l-1.16-.36a2.57,2.57,0,0,1-1.82-2.46V74.07A2.59,2.59,0,0,1,162,71.49h39.08m0-.73H162a3.31,3.31,0,0,0-3.31,3.31v6.41a3.31,3.31,0,0,0,2.34,3.16l1.16.35h0a1,1,0,0,1,.42.26L165,86.93a3.32,3.32,0,0,0,2.48,1.12h28.25a3.34,3.34,0,0,0,2.49-1.12l2.35-2.68h0a.85.85,0,0,1,.41-.26l1.14-.35a3.3,3.3,0,0,0,2.33-3.16V74.07a3.31,3.31,0,0,0-3.3-3.31Z"/><polygon class="cls-1" points="165.35 80.02 165.35 76.82 197.75 76.82 197.69 79.82 165.35 80.02"/><path class="cls-1" d="M250.56,46.78a.77.77,0,0,1,.77.78v1.5a2.24,2.24,0,0,0,2.24,2.23h9.31a.78.78,0,0,1,.78.78V80.62a.78.78,0,0,1-.78.78H222a.77.77,0,0,1-.77-.78V52.07a.77.77,0,0,1,.77-.78h9.32a2.23,2.23,0,0,0,2.23-2.23v-1.5a.78.78,0,0,1,.78-.78h16.23m0-.73H234.33a1.52,1.52,0,0,0-1.51,1.51v1.5a1.5,1.5,0,0,1-1.5,1.5H222a1.51,1.51,0,0,0-1.5,1.51V80.62a1.51,1.51,0,0,0,1.5,1.51h40.88a1.51,1.51,0,0,0,1.51-1.51V52.07a1.51,1.51,0,0,0-1.51-1.51h-9.31a1.51,1.51,0,0,1-1.51-1.5v-1.5a1.51,1.51,0,0,0-1.5-1.51Z"/><rect class="cls-1" x="223.96" y="53.98" width="6.4" height="3.51"/><rect class="cls-1" x="254.53" y="53.98" width="6.4" height="3.51"/><rect class="cls-1" x="230.99" y="71.99" width="1.43" height="6.81"/><rect class="cls-1" x="234.06" y="71.99" width="1.43" height="6.81"/><rect class="cls-1" x="237.13" y="71.99" width="1.43" height="6.81"/><rect class="cls-1" x="240.2" y="71.99" width="1.43" height="6.81"/><rect class="cls-1" x="243.26" y="71.99" width="1.43" height="6.81"/><rect class="cls-1" x="246.33" y="71.99" width="1.43" height="6.81"/><rect class="cls-1" x="249.4" y="71.99" width="1.43" height="6.81"/><rect class="cls-1" x="252.47" y="71.99" width="1.43" height="6.81"/><path class="cls-1" d="M249.72,53.79V60.1a.73.73,0,0,0,.73.72H260.8V78.68H224.08V60.82h10.35a.72.72,0,0,0,.73-.72V53.79h14.56m.73-.73h-16v7H223.35V79.41h38.18V60.1H250.45v-7Z"/><path class="cls-1" d="M437.23,70.14a2,2,0,0,1,2,2V84.62a2,2,0,0,1-2,2H395a2,2,0,0,1-1.4-.58l-4.4-4.4a2,2,0,0,1-.58-1.4V72.11a2,2,0,0,1,2-2h46.59m0-.73H390.64a2.7,2.7,0,0,0-2.71,2.7v8.11a2.73,2.73,0,0,0,.79,1.91l4.41,4.4a2.68,2.68,0,0,0,1.91.8h42.19a2.71,2.71,0,0,0,2.71-2.71V72.11a2.7,2.7,0,0,0-2.71-2.7Z"/><polygon class="cls-3" points="431.43 80.11 431.43 78.39 399.37 78.39 399.37 80.11 398.89 80.11 398.89 77.91 431.91 77.91 431.91 80.11 431.43 80.11"/><polygon class="cls-1" points="432.95 76.87 430.39 76.87 400.41 76.87 397.85 76.87 397.85 79.43 397.85 81.15 400.41 81.15 400.41 79.43 430.39 79.43 430.39 81.15 432.95 81.15 432.95 79.43 432.95 76.87 432.95 76.87"/><path class="cls-4" d="M56.21,56.31a.2.2,0,0,1-.2-.21V20.37a.2.2,0,0,1,.2-.21.21.21,0,0,1,.21.21V56.1A.21.21,0,0,1,56.21,56.31Z"/><path class="cls-4" d="M181.57,65.14a.2.2,0,0,1-.21-.2V46.32H107.52V64.94a.2.2,0,0,1-.2.2.2.2,0,0,1-.21-.2V46.12a.21.21,0,0,1,.21-.21h74.25a.21.21,0,0,1,.21.21V64.94A.21.21,0,0,1,181.57,65.14Z"/><path class="cls-4" d="M144.44,46.33a.2.2,0,0,1-.2-.21V20.37a.2.2,0,0,1,.2-.2.2.2,0,0,1,.21.2V46.12A.21.21,0,0,1,144.44,46.33Z"/><path class="cls-4" d="M353.83,41.65a.21.21,0,0,1-.21-.21V29.08H300V41.44a.21.21,0,0,1-.21.21.21.21,0,0,1-.21-.21V28.87a.2.2,0,0,1,.21-.2h54.05a.21.21,0,0,1,.21.2V41.44A.21.21,0,0,1,353.83,41.65Z"/><path class="cls-4" d="M326.8,29.08a.2.2,0,0,1-.2-.2V20.37a.2.2,0,0,1,.2-.21.21.21,0,0,1,.21.21v8.51A.2.2,0,0,1,326.8,29.08Z"/><path class="cls-4" d="M326.8,17.7h0A8.85,8.85,0,0,1,318,8.85h0A8.85,8.85,0,0,1,326.8,0h0a8.85,8.85,0,0,1,8.85,8.85h0A8.85,8.85,0,0,1,326.8,17.7Z"/><path class="cls-5" d="M322.9,11.64a2.82,2.82,0,0,1,1.5-2.72,2.47,2.47,0,0,1-1.33-2.41c0-1.78,1.46-2.73,3.71-2.73s3.76.94,3.76,2.75a2.31,2.31,0,0,1-1.37,2.39,2.66,2.66,0,0,1,1.53,2.55c0,2.22-1.77,3-3.92,3S322.9,13.79,322.9,11.64Zm5.92-.41c0-.79-.51-1.22-1.29-1.48H326a1.51,1.51,0,0,0-1.25,1.51c0,1.14.76,1.6,2,1.6S328.82,12.42,328.82,11.23Zm-1.29-3c.73-.35,1.14-.77,1.14-1.47,0-1-.68-1.42-1.88-1.42S325,5.81,325,6.78A1.57,1.57,0,0,0,326,8.25Z"/><path class="cls-4" d="M56.21,17.7h0a8.85,8.85,0,0,1-8.85-8.85h0A8.85,8.85,0,0,1,56.21,0h0a8.85,8.85,0,0,1,8.85,8.85h0A8.85,8.85,0,0,1,56.21,17.7Z"/><path class="cls-5" d="M52.72,13.9l.19-1.32a21.55,21.55,0,0,0,3.15.31A1.72,1.72,0,0,0,58,11c0-1.26-.62-1.72-1.73-1.72a6.46,6.46,0,0,0-2.17.41L53,9.44,53.23,4h6.18V5.5H54.64l-.28,2.7a6,6,0,0,1,2.09-.48c2.07,0,3.32.89,3.32,3.09s-1.29,3.63-3.5,3.63A15,15,0,0,1,52.72,13.9Z"/><path class="cls-4" d="M144.88,17.7h0A8.85,8.85,0,0,1,136,8.85h0A8.85,8.85,0,0,1,144.88,0h0a8.85,8.85,0,0,1,8.85,8.85h0A8.85,8.85,0,0,1,144.88,17.7Z"/><path class="cls-5" d="M140.84,9.11c0-3.84,1.63-5.33,4.19-5.33a16,16,0,0,1,3,.38l-.16,1.37A23.65,23.65,0,0,0,145,5.31c-1.58,0-2.37,1.11-2.37,2.89a9.39,9.39,0,0,1,2.23-.48c2.3,0,3.5,1,3.5,3.28s-1.39,3.44-3.7,3.44C142,14.44,140.84,12.42,140.84,9.11ZM146.59,11c0-1.16-.68-1.73-1.85-1.73a6.77,6.77,0,0,0-2.1.43c0,1.82.53,3.21,2.05,3.21A1.73,1.73,0,0,0,146.59,11Z"/><path class="cls-4" d="M353.65,156.85h0A8.85,8.85,0,0,1,344.8,148h0a8.85,8.85,0,0,1,8.85-8.85h0A8.85,8.85,0,0,1,362.5,148h0A8.85,8.85,0,0,1,353.65,156.85Z"/><path class="cls-5" d="M350.17,152.77l.15-1.38a21.88,21.88,0,0,0,2.83.22c1.61,0,2.39-1,2.39-3a8.59,8.59,0,0,1-2.26.53c-2.21,0-3.47-1-3.47-3.23s1.42-3.44,3.69-3.44c2.67,0,3.86,2,3.86,5.31,0,4-1.61,5.34-4.21,5.34A16.05,16.05,0,0,1,350.17,152.77Zm5.39-5.59c0-1.79-.55-3.16-2.06-3.16a1.75,1.75,0,0,0-1.89,1.91c0,1.15.65,1.7,1.81,1.7A7.43,7.43,0,0,0,355.56,147.18Z"/><path class="cls-4" d="M353.83,136.68a.2.2,0,0,1-.21-.2V87.32a.2.2,0,0,1,.21-.2.21.21,0,0,1,.21.2v49.16A.21.21,0,0,1,353.83,136.68Z"/><path class="cls-4" d="M414.84,156.85h0A8.85,8.85,0,0,1,406,148h0a8.85,8.85,0,0,1,8.85-8.85h0a8.85,8.85,0,0,1,8.85,8.85h0A8.85,8.85,0,0,1,414.84,156.85Z"/><path class="cls-5" d="M410.25,144.8l-2.4,1.57-.8-1.31,3.34-2.23H412v10.31h-1.77Z"/><path class="cls-5" d="M413.33,148.09c0-4,1.42-5.43,3.9-5.43s3.89,1.37,3.89,5.43-1.42,5.22-3.89,5.22S413.33,152,413.33,148.09Zm6,0c0-3-.64-3.9-2.1-3.9s-2.09.87-2.09,3.9c0,2.83.7,3.69,2.11,3.69S419.33,150.91,419.33,148.09Z"/><path class="cls-4" d="M414.84,136.69a.21.21,0,0,1-.21-.21V104.17a.2.2,0,0,1,.21-.2.2.2,0,0,1,.2.2v32.31A.21.21,0,0,1,414.84,136.69Z"/><path class="cls-4" d="M242.59,156.85h0a8.85,8.85,0,0,1-8.85-8.85h0a8.85,8.85,0,0,1,8.85-8.85h0a8.85,8.85,0,0,1,8.85,8.85h0A8.85,8.85,0,0,1,242.59,156.85Z"/><path class="cls-5" d="M240.44,153l3.67-8v-.46h-4.75V143h6.5v2.08l-3.8,8.41Z"/><path class="cls-4" d="M242.59,136.69a.21.21,0,0,1-.21-.21V104.17a.21.21,0,0,1,.42,0v32.31A.21.21,0,0,1,242.59,136.69Z"/><path class="cls-4" d="M299.6,156.85h0a8.85,8.85,0,0,1-8.85-8.85h0a8.85,8.85,0,0,1,8.85-8.85h0a8.85,8.85,0,0,1,8.85,8.85h0A8.85,8.85,0,0,1,299.6,156.85Z"/><path class="cls-5" d="M295.69,150.53a2.82,2.82,0,0,1,1.5-2.72,2.47,2.47,0,0,1-1.33-2.41c0-1.78,1.46-2.73,3.71-2.73s3.76.94,3.76,2.75a2.31,2.31,0,0,1-1.37,2.39,2.66,2.66,0,0,1,1.53,2.55c0,2.22-1.77,3-3.92,3S295.69,152.69,295.69,150.53Zm5.92-.41c0-.79-.51-1.22-1.29-1.48h-1.5a1.52,1.52,0,0,0-1.25,1.51c0,1.15.76,1.6,2,1.6S301.61,151.31,301.61,150.12Zm-1.29-3c.73-.34,1.14-.77,1.14-1.47,0-1-.67-1.42-1.88-1.42s-1.84.45-1.84,1.42a1.56,1.56,0,0,0,1.08,1.47Z"/><path class="cls-4" d="M299.78,136.68a.2.2,0,0,1-.21-.2V87.32a.2.2,0,0,1,.21-.2.21.21,0,0,1,.21.2v49.16A.21.21,0,0,1,299.78,136.68Z"/></g></g></svg>