<svg width="1857" height="209" viewBox="0 0 1857 209" fill="none" xmlns="http://www.w3.org/2000/svg">
<path d="M16.9311 201.08H0V196.196L9.93071 170.149H16.9311L6.51194 195.463H16.9311V184.475H23.2802V195.463H27.3502V201.08H23.2802V207.754H16.9311V201.08Z" fill="#212529"/>
<path d="M34.4316 168.684H40.7808V186.265L46.5601 185.777L54.4559 168.603H61.7818L52.1767 188.219L62.1888 207.672H54.7815L46.6415 191.393L40.8622 191.882V207.754H34.4316V168.684Z" fill="#212529"/>
<path d="M80.4229 195.138V168.684H86.772V195.219C86.772 200.428 89.5396 202.707 94.6677 202.707C99.8773 202.707 102.726 200.428 102.726 195.219V168.684H109.075V195.138C109.075 204.579 104.029 208.324 94.6677 208.324C85.3882 208.405 80.4229 204.579 80.4229 195.138Z" fill="#212529"/>
<path d="M117.622 167.382H123.808V207.754H117.622V167.382Z" fill="#212529"/>
<path d="M133.413 197.742V184.556H129.75V179.266H133.413V170.963H139.599V179.266H147.414V184.556H139.599V197.091C139.599 201.405 139.681 202.87 142.692 202.87C143.832 202.87 146.03 202.789 147.332 202.626L147.658 207.673C146.03 207.998 143.344 208.405 141.878 208.405C135.367 208.405 133.413 205.963 133.413 197.742Z" fill="#212529"/>
<path d="M152.786 179.265H158.972V182.603C161.007 181.3 165.159 179.265 168.578 178.614V184.882C164.833 185.533 160.845 186.998 158.972 187.812V207.672H152.786V179.265Z" fill="#212529"/>
<path d="M171.834 199.289C171.834 193.265 175.171 191.149 181.276 190.661L188.602 190.01V188.056C188.602 184.963 187.3 183.986 184.532 183.986C181.765 183.986 176.799 184.312 173.788 184.556L173.543 180.079C176.23 179.428 181.195 178.614 185.021 178.614C191.94 178.614 194.87 181.544 194.87 188.056V201.079C195.033 202.789 195.765 203.44 197.393 203.684L197.231 208.405C195.277 208.405 193.893 208.324 192.591 207.835C191.533 207.51 190.556 207.021 189.66 206.289C187.625 207.184 183.881 208.405 180.462 208.405C174.602 208.405 171.834 205.231 171.834 199.289ZM188.521 201.975V194.486L181.927 195.056C179.404 195.382 178.02 196.521 178.02 199.126C178.02 201.649 179.079 203.277 181.52 203.277C183.8 203.277 186.811 202.544 188.521 201.975Z" fill="#212529"/>
<path d="M216.359 168.684H222.709V185.37H239.477V168.684H245.907V207.754H239.477V190.905H222.709V207.754H216.359V168.684Z" fill="#212529"/>
<path d="M255.187 168.684H268.617C281.234 168.684 284.327 175.358 284.327 187.568C284.327 200.021 281.56 207.754 268.617 207.754H255.187V168.684ZM268.617 202.138C276.513 202.138 277.734 196.114 277.734 187.568C277.734 179.021 276.513 174.3 268.617 174.3H261.536V202.138H268.617Z" fill="#212529"/>
<path d="M201.382 89.1611L191.939 72.9634H199.591L205.94 84.1959L212.371 72.9634H220.022L210.336 88.9983L220.022 105.522H212.371L206.022 94.3704L199.672 105.522H192.021L201.382 89.1611Z" fill="#212529"/>
<path d="M227.022 103.731L227.674 95.8357C231.906 96.5682 239.721 97.6264 245.175 97.6264C252.419 97.6264 256.001 94.5333 256.001 88.1031C256.001 82.1613 251.686 79.231 245.744 79.1496H233.697V70.6845H245.744C249.977 70.6845 254.698 66.6961 254.698 61.4868C254.698 56.1147 251.605 53.6729 244.361 53.6729C238.825 53.6729 231.988 54.6496 228.325 55.3822L227.511 47.731C231.255 46.4287 238.337 44.8008 244.93 44.8008C259.908 44.8008 265.117 49.9287 265.117 60.8357C265.117 68.4868 260.559 72.1496 257.303 74.3473C262.757 76.8705 266.257 79.231 266.257 87.9403C266.257 100.312 260.478 106.58 246.395 106.58C239.802 106.498 231.499 104.952 227.022 103.731Z" fill="#212529"/>
<path d="M138.378 127.091C138.134 127.091 137.89 127.01 137.646 126.929C127.796 123.022 117.377 121.719 107.609 120.824C95.9694 119.766 84.1665 119.847 72.5264 120.824C62.9212 121.719 52.6649 123.022 43.0598 126.847C41.9202 127.254 40.6992 126.766 40.2922 125.789C39.8852 124.731 40.3736 123.591 41.4318 123.103C51.6067 119.033 62.1887 117.731 72.038 116.836C83.9223 115.777 95.9694 115.777 107.854 116.836C117.947 117.731 128.692 119.115 139.03 123.184C140.088 123.591 140.576 124.812 140.169 125.789C139.925 126.603 139.192 127.091 138.378 127.091Z" fill="#212529"/>
<path d="M72.8526 77.7658V69.789H56.0029V63.1146L72.3642 40.1611H81.3995V62.8704H86.3649V69.7076H81.3995V77.6844H72.8526V77.7658ZM63.7359 62.9518H72.8526V50.01L63.7359 62.9518Z" fill="#212529"/>
<path d="M91.7373 77.7658V40.1611H100.773V55.0565L113.715 40.1611H123.971L109.727 55.9518L124.623 77.6844H114.448L103.784 61.8937L100.773 65.2309V77.6844H91.7373V77.7658Z" fill="#212529"/>
<path d="M164.671 18.3471V98.7657H15.8727V18.3471H164.671ZM168.741 14.2773H11.8027V102.835H168.659V14.2773H168.741Z" fill="#212529"/>
<path d="M370.529 187.161C370.529 173.161 376.471 167.708 385.832 167.708C389.333 167.708 394.135 168.521 396.74 169.091L396.17 174.138C393.809 173.812 389.333 173.324 385.832 173.324C380.053 173.324 377.204 177.394 377.204 183.824C377.204 183.905 382.088 182.033 385.344 182.033C393.728 182.033 398.124 185.777 398.124 193.998C398.124 202.301 393.077 206.533 384.611 206.533C374.843 206.615 370.529 199.289 370.529 187.161ZM391.53 194.08C391.53 189.847 389.007 187.731 384.774 187.731C382.169 187.731 378.832 188.626 377.123 189.359C377.204 195.952 379.076 201.08 384.611 201.08C389.007 201.08 391.53 198.556 391.53 194.08Z" fill="#212529"/>
<path d="M417.415 193.429V166.975H423.764V193.51C423.764 198.719 426.532 200.998 431.66 200.998C436.869 200.998 439.718 198.719 439.718 193.51V166.975H446.068V193.429C446.068 202.87 441.021 206.615 431.66 206.615C422.38 206.615 417.415 202.789 417.415 193.429Z" fill="#212529"/>
<path d="M453.312 205.068L453.963 200.021C457.301 200.428 462.755 200.998 465.685 200.998C470.488 200.998 472.767 198.8 472.767 194.812C472.767 191.556 470.976 190.417 465.034 188.952C456.568 186.754 452.905 184.231 452.905 177.475C452.905 169.58 458.115 166.324 465.929 166.324C469.511 166.324 475.127 167.138 478.302 167.707L477.813 172.917C474.395 172.51 468.941 171.94 466.499 171.94C461.696 171.94 459.336 173.731 459.336 177.068C459.336 180.649 461.371 181.463 468.046 183.335C476.185 185.614 479.197 187.812 479.197 194.487C479.197 203.033 473.825 206.777 466.173 206.777C462.429 206.614 456.65 205.719 453.312 205.068Z" fill="#212529"/>
<path d="M486.279 166.975H501.093C508.826 166.975 512.978 169.905 512.978 177.15C512.978 181.87 511.512 184.231 508.419 185.94C511.757 187.243 513.954 189.684 513.954 194.975C513.954 202.952 509.152 206.045 501.5 206.045H486.197V166.975H486.279ZM501.012 183.58C504.919 183.58 506.547 181.708 506.547 177.963C506.547 174.138 504.675 172.51 500.768 172.51H492.709V183.58H501.012ZM501.256 200.51C505.163 200.51 507.524 199.289 507.524 194.65C507.524 190.254 504.187 189.033 501.093 189.033H492.628V200.51H501.256Z" fill="#212529"/>
<path d="M534.224 166.975H548.55C557.422 166.975 561.818 171.289 561.818 180.161C561.818 188.952 557.422 193.917 548.55 193.917H540.654V206.045H534.305V166.975H534.224ZM548.55 188.301C553.19 188.301 555.387 185.452 555.387 180.08C555.387 174.708 553.19 172.429 548.55 172.429H540.654V188.301H548.55Z" fill="#212529"/>
<path d="M566.539 186.673C566.539 173.649 570.283 166.324 582.412 166.324C594.622 166.324 598.285 173.568 598.285 186.673C598.285 199.94 594.622 206.614 582.412 206.614C570.121 206.614 566.539 199.859 566.539 186.673ZM591.61 186.673C591.61 177.068 589.819 171.94 582.412 171.94C574.923 171.94 573.132 176.987 573.132 186.673C573.132 196.44 574.842 200.998 582.412 200.998C589.901 201.08 591.61 196.521 591.61 186.673Z" fill="#212529"/>
<path d="M605.855 166.975H620.67C629.298 166.975 633.856 170.801 633.856 179.429C633.856 184.963 631.658 188.789 627.507 190.743L633.856 206.045H626.856L621.239 192.126H612.123V206.045H605.773V166.975H605.855ZM620.832 186.591C625.553 186.591 627.344 183.417 627.344 179.429C627.344 175.033 625.146 172.51 620.67 172.51H612.204V186.673H620.832V186.591Z" fill="#212529"/>
<path d="M648.508 172.673H637.356V166.975H665.846V172.673H654.857V206.045H648.508V172.673Z" fill="#212529"/>
<path d="M669.672 205.068L670.323 200.021C673.66 200.428 679.114 200.998 682.044 200.998C686.847 200.998 689.126 198.8 689.126 194.812C689.126 191.556 687.335 190.417 681.393 188.952C672.928 186.754 669.265 184.231 669.265 177.475C669.265 169.58 674.474 166.324 682.289 166.324C685.87 166.324 691.487 167.138 694.661 167.707L694.173 172.917C690.754 172.51 685.3 171.94 682.858 171.94C678.056 171.94 675.695 173.731 675.695 177.068C675.695 180.649 677.73 181.463 684.405 183.335C692.545 185.614 695.557 187.812 695.557 194.487C695.557 203.033 690.184 206.777 682.533 206.777C678.788 206.614 673.009 205.719 669.672 205.068Z" fill="#212529"/>
<path d="M592.506 89.1611L583.063 72.9634H590.715L597.064 84.1959L603.495 72.9634H611.146L601.46 88.9983L611.146 105.522H603.495L597.146 94.3704L590.796 105.522H583.145L592.506 89.1611Z" fill="#212529"/>
<path d="M616.6 75.6496C616.6 53.4287 626.042 44.8008 640.857 44.8008C646.392 44.8008 653.962 46.1031 658.113 46.9985L657.218 54.9752C653.392 54.4054 646.392 53.6729 640.857 53.6729C631.74 53.6729 627.1 60.1031 627.1 70.4403C627.1 70.5217 634.752 67.6729 640.043 67.6729C653.311 67.6729 660.311 73.6147 660.311 86.638C660.311 99.824 652.252 106.498 638.903 106.498C623.356 106.498 616.6 94.8589 616.6 75.6496ZM649.811 86.638C649.811 79.9636 645.822 76.6264 639.066 76.6264C634.914 76.6264 629.623 78.0915 626.937 79.1496C627.019 89.6496 630.031 97.7078 638.822 97.7078C645.822 97.6264 649.811 93.638 649.811 86.638Z" fill="#212529"/>
<path d="M557.097 38.5331C558.073 38.5331 558.887 39.3471 558.887 40.3238V102.917C558.887 103.894 558.073 104.708 557.097 104.708H407.729C406.752 104.708 405.938 103.894 405.938 102.917V40.4052C405.938 39.4285 406.752 38.6145 407.729 38.6145H557.097M557.097 34.4634C557.015 34.4634 557.015 34.4634 557.097 34.4634H407.729C404.473 34.4634 401.868 37.068 401.868 40.3238V102.917C401.868 106.173 404.473 108.777 407.729 108.777H557.097C560.353 108.777 562.957 106.173 562.957 102.917V40.4052C562.957 37.1494 560.271 34.4634 557.097 34.4634Z" fill="#212529"/>
<path d="M544.561 51.7192H419.369V69.2192H544.561V51.7192Z" fill="#212529"/>
<path d="M783.387 166.975H794.457L803.085 197.417L811.714 166.975H822.865V206.045H816.435V174.056H815.621L806.423 204.417H799.829L790.631 174.056H789.817V206.045H783.468V166.975H783.387Z" fill="#212529"/>
<path d="M831.087 197.824H837.843V206.045H831.087V197.824Z" fill="#212529"/>
<path d="M845.332 200.591L854.53 190.987C859.414 186.022 862.182 183.01 862.182 179.103C862.182 174.789 859.984 173.487 855.181 173.487C852.251 173.487 848.262 174.057 845.983 174.463L845.576 169.417C847.937 168.684 852.658 167.789 856.728 167.789C865.031 167.789 868.856 171.208 868.856 178.289C868.856 183.987 866.496 187.324 860.635 192.777L852.577 200.51H869.589V206.126H845.332V200.591Z" fill="#212529"/>
<path d="M890.997 166.975H915.254V172.591H897.428V185.696H912.242V191.312H897.428V206.045H891.078V166.975H890.997Z" fill="#212529"/>
<path d="M919.486 186.673C919.486 173.649 923.231 166.324 935.359 166.324C947.569 166.324 951.232 173.568 951.232 186.673C951.232 199.94 947.569 206.614 935.359 206.614C923.149 206.614 919.486 199.859 919.486 186.673ZM944.639 186.673C944.639 177.068 942.848 171.94 935.441 171.94C927.952 171.94 926.161 176.987 926.161 186.673C926.161 196.44 927.87 200.998 935.441 200.998C942.929 201.08 944.639 196.521 944.639 186.673Z" fill="#212529"/>
<path d="M958.883 166.975H973.698C982.326 166.975 986.884 170.801 986.884 179.429C986.884 184.963 984.687 188.789 980.535 190.743L986.884 206.045H979.884L974.268 192.126H965.151V206.045H958.802V166.975H958.883ZM973.779 186.591C978.5 186.591 980.291 183.417 980.291 179.429C980.291 175.033 978.093 172.51 973.616 172.51H965.151V186.673H973.779V186.591Z" fill="#212529"/>
<path d="M1005.44 205.068L1006.1 200.021C1009.43 200.428 1014.89 200.998 1017.82 200.998C1022.62 200.998 1024.9 198.8 1024.9 194.812C1024.9 191.556 1023.11 190.417 1017.17 188.952C1008.7 186.754 1005.04 184.231 1005.04 177.475C1005.04 169.58 1010.25 166.324 1018.06 166.324C1021.64 166.324 1027.26 167.138 1030.43 167.707L1029.95 172.917C1026.53 172.51 1021.07 171.94 1018.63 171.94C1013.83 171.94 1011.47 173.731 1011.47 177.068C1011.47 180.649 1013.5 181.463 1020.18 183.335C1028.32 185.614 1031.33 187.812 1031.33 194.487C1031.33 203.033 1025.96 206.777 1018.31 206.777C1014.56 206.614 1008.78 205.719 1005.44 205.068Z" fill="#212529"/>
<path d="M1036.7 205.068L1037.35 200.021C1040.69 200.428 1046.14 200.998 1049.07 200.998C1053.88 200.998 1056.16 198.8 1056.16 194.812C1056.16 191.556 1054.36 190.417 1048.42 188.952C1039.96 186.754 1036.29 184.231 1036.29 177.475C1036.29 169.58 1041.5 166.324 1049.32 166.324C1052.9 166.324 1058.52 167.138 1061.69 167.707L1061.2 172.917C1057.78 172.51 1052.33 171.94 1049.89 171.94C1045.09 171.94 1042.72 173.731 1042.72 177.068C1042.72 180.649 1044.76 181.463 1051.43 183.335C1059.57 185.614 1062.59 187.812 1062.59 194.487C1062.59 203.033 1057.21 206.777 1049.56 206.777C1045.74 206.614 1040.04 205.719 1036.7 205.068Z" fill="#212529"/>
<path d="M1069.67 166.975H1083.1C1095.72 166.975 1098.81 173.65 1098.81 185.859C1098.81 198.312 1096.04 206.045 1083.1 206.045H1069.67V166.975ZM1083.1 200.429C1090.99 200.429 1092.22 194.405 1092.22 185.859C1092.22 177.312 1090.99 172.591 1083.1 172.591H1076.02V200.429H1083.1Z" fill="#212529"/>
<path d="M1000.15 89.1611L990.711 72.9634H998.362L1004.71 84.1959L1011.14 72.9634H1018.79L1009.11 88.9983L1018.79 105.522H1011.14L1004.79 94.3704L998.444 105.522H990.792L1000.15 89.1611Z" fill="#212529"/>
<path d="M1026.53 96.8938L1041.18 81.6729C1048.83 73.7775 1053.31 69.0566 1053.31 62.7892C1053.31 55.9519 1049.89 53.8357 1042.16 53.8357C1037.52 53.8357 1031.08 54.731 1027.5 55.3822L1026.85 47.4054C1030.68 46.2659 1038.09 44.8008 1044.52 44.8008C1057.7 44.8008 1063.81 50.2543 1063.81 61.4054C1063.81 70.4403 1059.98 75.731 1050.78 84.3589L1038 96.5682H1064.95V105.44H1026.53V96.8938Z" fill="#212529"/>
<path d="M834.18 133.928C833.936 133.928 833.61 133.928 833.366 133.847C832.633 133.603 831.982 133.114 831.656 132.463L820.586 112.033L822.377 111.056C823.11 110.649 823.679 109.998 823.924 109.103C824.168 108.289 824.086 107.393 823.679 106.661C822.784 105.114 820.83 104.545 819.284 105.359L817.493 106.335L807.155 87.3702C805.934 85.1725 806.748 82.4051 808.946 81.2656L952.616 3.20742C953.267 2.88184 954.081 2.80044 954.814 2.96323C955.546 3.20742 956.116 3.69579 956.523 4.34695L981.838 50.9051C982.571 52.2888 982.082 54.0795 980.699 54.8121L835.564 133.603C835.157 133.766 834.668 133.928 834.18 133.928ZM825.959 113.335L834.668 129.452L977.687 51.8004L953.511 7.27719L810.9 84.6842C810.656 84.7656 810.574 85.0911 810.737 85.3353L819.284 101.045C822.377 100.393 825.714 101.777 827.261 104.707C828.156 106.417 828.401 108.37 827.831 110.242C827.505 111.382 826.854 112.44 825.959 113.335Z" fill="#212529"/>
<path d="M966.21 12.5682C965.314 10.9403 965.965 8.90543 967.512 8.09147L971.745 5.8124L968.814 0.440311C968.57 0.0333347 968.082 -0.129456 967.675 0.11473L955.465 6.70775L979.152 50.3357L991.362 43.7426C991.769 43.4985 991.932 43.0101 991.688 42.6031L988.757 37.231L984.524 39.5101C982.896 40.4054 980.861 39.7543 980.047 38.2078C979.152 36.5798 979.803 34.545 981.35 33.731L985.583 31.4519L974.838 11.6729L970.605 13.9519C969.14 14.8473 967.105 14.1961 966.21 12.5682Z" fill="#212529"/>
<path d="M859.251 99.5799L849.972 82.5683L855.1 79.7194L864.949 89.8125L861.856 76.0567L866.74 73.3706L876.019 90.3822L872.601 92.2543L865.845 79.8008L869.019 94.2078L866.17 95.7543L855.832 85.2543L862.589 97.7078L859.251 99.5799Z" fill="#212529"/>
<path d="M879.031 88.9173L876.996 85.0917L880.496 83.1382L882.531 86.9638L879.031 88.9173Z" fill="#212529"/>
<path d="M884.811 85.7427L883.59 83.4636C881.962 80.3706 881.799 77.766 884.648 74.0218C886.357 71.8241 886.357 70.9288 885.625 69.545L885.543 69.4636C884.974 68.4055 883.915 67.7543 882.776 68.4055C881.473 69.1381 881.311 70.359 882.125 71.9869L878.543 73.9404C876.834 70.359 877.648 67.1846 881.066 65.3125C884.322 63.5218 887.578 64.7427 889.044 67.4288L889.125 67.5916C890.346 69.7892 890.59 71.9869 888.23 75.3241C886.195 78.0916 886.195 79.0683 886.846 80.452L894.009 76.545L895.8 79.8009L884.811 85.7427Z" fill="#212529"/>
<path d="M898.242 71.6613L901.823 69.7078C902.963 71.1729 904.509 71.3357 906.3 70.3589C907.765 69.545 908.498 68.3241 907.928 67.1845L907.847 67.0217C907.277 65.9636 906.219 65.8008 903.044 66.7775C898.974 68.0799 896.614 67.4287 895.067 64.6613L894.904 64.4171C893.195 61.3241 894.579 57.9055 898.079 56.0334C901.661 54.0799 904.998 54.731 907.196 57.8241L903.614 59.7775C902.637 58.5566 901.335 58.3124 899.707 59.2078C898.16 60.0217 897.835 61.2427 898.405 62.2194L898.486 62.3822C898.974 63.3589 899.707 63.6031 902.963 62.545C906.87 61.2427 909.556 61.6496 911.184 64.5799L911.347 64.8241C913.138 68.0799 911.591 71.5799 907.928 73.5334C903.94 75.731 900.44 74.9171 898.242 71.6613Z" fill="#212529"/>
<path d="M912.486 63.9288L916.068 61.9754C917.207 63.4405 918.754 63.6033 920.545 62.6265C922.01 61.8126 922.743 60.5916 922.173 59.4521L922.091 59.2893C921.522 58.2312 920.463 58.0684 917.289 59.0451C913.219 60.3474 910.858 59.6963 909.312 56.9288L909.149 56.6847C907.439 53.5916 908.905 50.173 912.323 48.3009C915.905 46.3474 919.242 46.9986 921.44 50.0916L917.859 52.0451C916.882 50.8242 915.579 50.58 913.951 51.4754C912.405 52.2893 912.079 53.5102 912.649 54.487L912.73 54.6498C913.219 55.6265 913.951 55.8707 917.126 54.8126C921.033 53.5102 923.801 53.9172 925.347 56.8474L925.51 57.0916C927.301 60.3474 925.754 63.8474 922.091 65.8009C918.184 67.9986 914.684 67.1847 912.486 63.9288Z" fill="#212529"/>
<path d="M930.557 60.917L921.277 43.9054L927.138 40.731C931.859 38.2077 936.662 39.3473 939.511 44.7194L939.755 45.2077C942.685 50.4984 940.976 55.2194 936.336 57.7426L930.557 60.917ZM932.348 55.6263L934.383 54.4868C937.069 53.0217 938.046 50.7426 936.092 47.1612L935.848 46.6729C933.894 43.0915 931.452 42.6031 928.766 44.0682L926.731 45.2077L932.348 55.6263Z" fill="#212529"/>
<path d="M1834.93 67.4535H1827.77V41.0814C1827.77 25.6977 1816.78 13.1628 1803.18 13.1628C1789.67 13.1628 1778.68 25.6977 1778.68 41.0814V66.8023H1771.52V41.0814C1771.52 21.7093 1785.76 6 1803.26 6C1820.77 6 1835.01 21.7093 1835.01 41.0814L1834.93 67.4535Z" fill="#212529"/>
<path d="M1839.65 61.1045H1768.51C1765.9 61.1045 1763.7 63.2208 1763.7 65.9068V122.314C1763.7 124.918 1765.82 127.116 1768.51 127.116H1839.65C1842.25 127.116 1844.45 125 1844.45 122.314V65.9068C1844.37 63.3022 1842.25 61.1045 1839.65 61.1045ZM1808.31 93.8254V113.686H1801.64V93.9068C1797 92.6859 1793.58 89.0231 1793.58 84.6277C1793.58 79.2556 1798.62 74.8603 1804.89 74.8603C1811.16 74.8603 1816.21 79.2556 1816.21 84.6277C1816.21 88.8603 1812.87 92.5231 1808.31 93.8254Z" fill="#212529"/>
<path d="M1760.15 174.314H1749V168.616H1777.49V174.314H1766.5V207.686H1760.15V174.314Z" fill="#212529"/>
<path d="M1783.11 168.616H1797.43C1806.31 168.616 1810.7 172.93 1810.7 181.802C1810.7 190.593 1806.31 195.558 1797.43 195.558H1789.54V207.686H1783.19V168.616H1783.11ZM1797.35 189.942C1801.99 189.942 1804.19 187.093 1804.19 181.721C1804.19 176.349 1801.99 174.07 1797.35 174.07H1789.46V189.942H1797.35Z" fill="#212529"/>
<path d="M1817.05 168.616H1828.12L1836.75 199.058L1845.38 168.616H1856.53V207.686H1850.1V175.698H1849.28L1840.09 206.058H1833.49L1824.29 175.698H1823.48V207.686H1817.13V168.616H1817.05Z" fill="#212529"/>
<path d="M1221.57 168.546L1213.83 207.616H1203.58L1196.9 176.279L1190.23 207.616H1179.89L1172.24 168.546H1178.91L1184.53 202.081H1185.75L1193.16 168.709H1200.65L1208.05 202.081H1209.19L1214.81 168.546H1221.57Z" fill="#212529"/>
<path d="M1226.86 167.651H1233.04V174.244H1226.86V167.651ZM1226.86 179.046H1233.04V207.535H1226.86V179.046Z" fill="#212529"/>
<path d="M1241.67 168.546H1265.93V174.163H1248.1V187.267H1262.92V192.884H1248.1V207.616H1241.75V168.546H1241.67Z" fill="#212529"/>
<path d="M1271.38 167.651H1277.57V174.244H1271.38V167.651ZM1271.38 179.046H1277.57V207.535H1271.38V179.046Z" fill="#212529"/>
<path d="M1296.86 188.732C1296.86 174.732 1302.8 169.279 1312.16 169.279C1315.66 169.279 1320.47 170.093 1323.07 170.663L1322.5 175.709C1320.14 175.383 1315.66 174.895 1312.16 174.895C1306.38 174.895 1303.54 178.965 1303.54 185.395C1303.54 185.476 1308.42 183.604 1311.67 183.604C1320.06 183.604 1324.45 187.349 1324.45 195.57C1324.45 203.872 1319.41 208.104 1310.94 208.104C1301.09 208.186 1296.86 200.86 1296.86 188.732ZM1317.78 195.651C1317.78 191.418 1315.26 189.302 1311.02 189.302C1308.42 189.302 1305.08 190.197 1303.37 190.93C1303.45 197.523 1305.33 202.651 1310.86 202.651C1315.34 202.651 1317.78 200.128 1317.78 195.651Z" fill="#212529"/>
<path d="M1311.76 33.9186C1295.97 22.1163 1277.89 15.1977 1257.95 13.407C1254.78 13.0814 1251.6 13 1248.51 13C1237.93 13 1227.43 14.6279 1217.17 17.8023C1201.14 22.7674 1186.81 31.3953 1174.6 43.3605C1172.24 45.7209 1171.51 48.2442 1172.32 51.093C1173.13 53.8605 1175.09 55.5698 1178.02 56.1395C1180.46 56.6279 1182.66 55.814 1184.77 53.7791C1190.63 48.0814 1196.66 43.4419 1203.17 39.7791C1221.57 29.2791 1241.51 25.6163 1262.59 28.7093C1276.19 30.7442 1288.56 35.6279 1299.47 43.1977C1303.21 45.8023 1306.79 48.8954 1310.21 51.907L1312.65 54.0233C1315.66 56.6279 1318.92 57.0349 1321.85 55.2442C1323.64 54.1047 1324.54 52.3953 1325.27 50.6047V47.593C1325.02 47.186 1324.78 46.6977 1324.54 46.2907C1323.97 45.2326 1323.4 44.1744 1322.66 43.4419C1319.65 40.4302 1315.83 36.9302 1311.76 33.9186Z" fill="#212529"/>
<path d="M1246.39 45.2324C1245.66 45.3138 1244.76 45.3952 1243.71 45.558C1240.94 45.8836 1237.03 46.2092 1233.37 47.0231C1219.69 49.872 1207.57 56.3836 1197.39 66.3952C1195.44 68.3487 1194.62 70.465 1195.03 72.8254C1195.52 75.5115 1197.23 77.7092 1199.59 78.6045C1202.03 79.4999 1204.8 79.0115 1206.91 77.2208C1207.73 76.5696 1208.54 75.8371 1209.27 75.1045C1210.17 74.2906 1211.07 73.4766 1212.04 72.6627C1220.18 66.2324 1229.38 62.1627 1239.47 60.5347C1242.57 60.0464 1245.66 59.8022 1248.67 59.8022C1252.5 59.8022 1256.24 60.2092 1259.99 60.9417C1269.18 62.7324 1277.57 66.6394 1284.81 72.4185C1285.87 73.2324 1286.85 74.1278 1287.83 75.0231C1288.8 75.9185 1289.78 76.7324 1290.76 77.5464C1293.03 79.3371 1295.48 79.6627 1298.16 78.3603C1300.36 77.3022 1301.83 75.4301 1302.23 73.151C1302.64 70.7092 1301.74 68.1859 1299.71 66.2324C1285.55 52.2324 1268.53 45.558 1246.39 45.2324Z" fill="#212529"/>
<path d="M1248.02 77.0581L1246.88 77.1395C1245.82 77.2209 1244.52 77.3023 1243.22 77.4651C1234.35 78.6046 1226.45 82.5116 1219.69 89.0232C1217.5 91.1395 1216.85 94.3953 1218.15 97.1628C1219.45 100.012 1222.14 101.558 1225.39 101.395C1227.67 101.314 1229.22 99.9302 1231.09 98.3023C1236.3 93.8255 1242.16 91.5465 1248.59 91.5465C1250.63 91.5465 1252.66 91.7907 1254.78 92.1976C1259.34 93.1744 1263.57 95.4534 1268.13 99.5232C1271.06 102.209 1275.53 102.046 1278.22 99.1162C1280.99 96.1046 1280.83 91.7093 1277.89 88.8604C1269.67 81.1279 1259.91 77.2209 1248.02 77.0581Z" fill="#212529"/>
<path d="M1248.92 108.314C1248.84 108.314 1248.75 108.314 1248.67 108.314C1243.06 108.314 1238.9 112.465 1238.74 118.326C1238.66 120.849 1239.64 123.209 1241.43 125.163C1243.3 127.198 1245.99 128.337 1248.67 128.419C1248.75 128.419 1248.75 128.419 1248.84 128.419C1251.36 128.419 1253.88 127.36 1255.75 125.57C1257.71 123.698 1258.77 121.174 1258.77 118.488C1258.77 112.709 1254.61 108.477 1248.92 108.314Z" fill="#212529"/>
<path d="M1398 168.562H1404.35V201.934H1419.9V207.631H1398V168.562Z" fill="#212529"/>
<path d="M1422.99 188.259C1422.99 175.236 1426.73 167.91 1438.86 167.91C1451.07 167.91 1454.74 175.154 1454.74 188.259C1454.74 201.526 1451.07 208.201 1438.86 208.201C1426.65 208.201 1422.99 201.445 1422.99 188.259ZM1448.14 188.259C1448.14 178.654 1446.35 173.526 1438.94 173.526C1431.45 173.526 1429.66 178.573 1429.66 188.259C1429.66 198.026 1431.37 202.585 1438.94 202.585C1446.43 202.666 1448.14 198.108 1448.14 188.259Z" fill="#212529"/>
<path d="M1508.46 168.562L1500.73 207.631H1490.47L1483.79 176.294L1477.12 207.631H1466.78L1459.13 168.562H1465.81L1471.42 202.096H1472.64L1480.05 168.724H1487.54L1494.95 202.096H1496.17L1501.78 168.562H1508.46Z" fill="#212529"/>
<path d="M1527.34 168.562H1538.5L1550.3 202.015H1551.11V168.562H1557.46V207.631H1546.55L1534.51 174.178H1533.69V207.631H1527.34V168.562Z" fill="#212529"/>
<path d="M1564.95 188.259C1564.95 175.236 1568.69 167.91 1580.82 167.91C1593.03 167.91 1596.7 175.154 1596.7 188.259C1596.7 201.526 1593.03 208.201 1580.82 208.201C1568.61 208.201 1564.95 201.445 1564.95 188.259ZM1590.1 188.259C1590.1 178.654 1588.31 173.526 1580.9 173.526C1573.42 173.526 1571.62 178.573 1571.62 188.259C1571.62 198.026 1573.33 202.585 1580.9 202.585C1588.39 202.666 1590.1 198.108 1590.1 188.259Z" fill="#212529"/>
<path d="M1604.35 168.562H1610.7V207.631H1604.35V168.562Z" fill="#212529"/>
<path d="M1618.27 206.654L1618.92 201.608C1622.25 202.015 1627.71 202.585 1630.64 202.585C1635.44 202.585 1637.72 200.387 1637.72 196.399C1637.72 193.143 1635.93 192.003 1629.99 190.538C1621.52 188.34 1617.86 185.817 1617.86 179.061C1617.86 171.166 1623.07 167.91 1630.88 167.91C1634.46 167.91 1640.08 168.724 1643.26 169.294L1642.77 174.503C1639.35 174.096 1633.89 173.526 1631.45 173.526C1626.65 173.526 1624.29 175.317 1624.29 178.654C1624.29 182.236 1626.32 183.05 1633 184.922C1641.14 187.201 1644.15 189.399 1644.15 196.073C1644.15 204.619 1638.78 208.364 1631.13 208.364C1627.3 208.201 1621.52 207.306 1618.27 206.654Z" fill="#212529"/>
<path d="M1651.15 168.562H1675.82V174.178H1657.58V185.166H1672.4V190.62H1657.58V202.015H1675.82V207.631H1651.15V168.562Z" fill="#212529"/>
<path d="M1535.81 124.283C1535.81 124.283 1535.97 124.364 1536.13 124.364C1535.97 124.364 1535.81 124.364 1535.81 124.283Z" fill="#212529"/>
<path d="M1484.77 70.3985C1483.71 71.0497 1482.33 70.6427 1481.84 69.5846C1480.62 67.0613 1479.97 64.2939 1479.89 61.4451C1479.81 58.5962 1480.38 55.8288 1481.52 53.2241C1482 52.0846 1483.39 51.6776 1484.45 52.2474C1485.34 52.7358 1485.75 53.8753 1485.34 54.852C1484.45 56.8869 1484.04 59.0846 1484.12 61.3637C1484.2 63.5613 1484.69 65.759 1485.67 67.7939C1485.99 68.6892 1485.67 69.8288 1484.77 70.3985Z" fill="#212529"/>
<path d="M1477.93 80.4106C1476.96 81.1431 1475.65 80.8989 1475 79.9222C1471.42 74.3873 1469.55 68.0385 1469.55 61.3641C1469.55 54.6896 1471.42 48.3408 1475 42.8059C1475.65 41.8292 1477.04 41.585 1477.93 42.3175C1478.83 42.9687 1478.99 44.1896 1478.42 45.085C1475.25 49.8873 1473.62 55.5036 1473.62 61.3641C1473.62 67.2245 1475.25 72.7594 1478.42 77.6431C1479.07 78.5385 1478.83 79.678 1477.93 80.4106Z" fill="#212529"/>
<path d="M1474.76 94.5732C1474.03 95.4685 1472.64 95.5499 1471.75 94.7359C1462.39 86.108 1457.1 74.0615 1457.1 61.2825C1457.1 48.5034 1462.39 36.4569 1471.75 27.829C1472.64 27.015 1473.95 27.0964 1474.76 27.9918C1475.49 28.8057 1475.41 30.108 1474.6 30.8406C1466.05 38.6546 1461.25 49.6429 1461.25 61.2825C1461.25 72.922 1466.13 83.9104 1474.6 91.7243C1475.41 92.4569 1475.49 93.7592 1474.76 94.5732Z" fill="#212529"/>
<path d="M1587.09 70.3985C1588.15 71.0497 1589.53 70.6427 1590.02 69.5846C1591.24 67.0613 1591.89 64.2939 1591.97 61.4451C1592.06 58.5962 1591.49 55.8288 1590.35 53.2241C1589.86 52.0846 1588.47 51.6776 1587.42 52.2474C1586.52 52.7358 1586.11 53.8753 1586.52 54.852C1587.42 56.8869 1587.82 59.0846 1587.74 61.3637C1587.66 63.5613 1587.17 65.759 1586.2 67.7939C1585.79 68.6892 1586.2 69.8288 1587.09 70.3985Z" fill="#212529"/>
<path d="M1587.09 70.3985C1588.15 71.0497 1589.53 70.6427 1590.02 69.5846C1591.24 67.0613 1591.89 64.2939 1591.97 61.4451C1592.06 58.5962 1591.49 55.8288 1590.35 53.2241C1589.86 52.0846 1588.47 51.6776 1587.42 52.2474C1586.52 52.7358 1586.11 53.8753 1586.52 54.852C1587.42 56.8869 1587.82 59.0846 1587.74 61.3637C1587.66 63.5613 1587.17 65.759 1586.2 67.7939C1585.79 68.6892 1586.2 69.8288 1587.09 70.3985Z" fill="#212529"/>
<path d="M1593.93 80.4106C1594.91 81.1431 1596.21 80.8989 1596.86 79.9222C1600.44 74.3873 1602.31 68.0385 1602.31 61.3641C1602.31 54.6896 1600.44 48.3408 1596.86 42.8059C1596.21 41.8292 1594.82 41.585 1593.93 42.3175C1593.03 42.9687 1592.87 44.1896 1593.44 45.085C1596.61 49.8873 1598.24 55.5036 1598.24 61.3641C1598.24 67.2245 1596.61 72.7594 1593.44 77.6431C1592.79 78.5385 1593.03 79.678 1593.93 80.4106Z" fill="#212529"/>
<path d="M1597.1 94.5732C1597.84 95.4685 1599.22 95.5499 1600.11 94.7359C1609.48 86.108 1614.77 74.0615 1614.77 61.2825C1614.77 48.5034 1609.48 36.4569 1600.11 27.829C1599.22 27.015 1597.92 27.0964 1597.1 27.9918C1596.37 28.8057 1596.45 30.108 1597.27 30.8406C1605.81 38.6546 1610.62 49.6429 1610.62 61.2825C1610.62 72.922 1605.81 83.9104 1597.27 91.7243C1596.45 92.4569 1596.37 93.7592 1597.1 94.5732Z" fill="#212529"/>
<path d="M1562.1 50.5381C1562.51 48.2591 1562.91 46.0614 1563.08 43.7823C1563.24 41.5033 1563.16 39.2242 1562.83 37.0265C1562.35 33.5265 1560.96 30.1893 1558.84 27.3405C1556.65 24.4916 1553.96 21.9684 1550.71 20.4219C1547.53 18.8753 1544.11 18.1428 1540.61 18.0614C1534.51 17.8986 1528.73 20.1777 1524.09 24.0033C1522.05 25.6312 1520.34 27.7474 1518.96 29.9451C1517.74 31.98 1516.76 34.2591 1516.35 36.6195C1515.95 39.1428 1515.95 41.666 1516.84 44.1079C1517.33 45.4102 1517.98 46.5498 1518.8 47.7707C1519.69 48.9916 1520.59 50.1312 1521.32 51.3521C1521.73 51.9219 1522.05 52.573 1522.3 53.2242C1522.22 52.98 1522.05 52.6544 1521.97 52.4102C1522.38 53.387 1522.62 54.3637 1522.79 55.4219C1522.7 55.0963 1522.7 54.7707 1522.62 54.5265C1522.79 55.7474 1522.79 56.887 1522.62 58.1079C1522.62 57.7823 1522.7 57.5381 1522.79 57.2126C1522.54 59.0847 1521.89 60.8753 1521.16 62.666C1521.24 62.4219 1521.4 62.0963 1521.48 61.8521C1520.75 63.48 1519.94 65.1079 1519.2 66.7358C1518.31 68.7707 1517.49 70.8056 1517.58 73.0033C1517.66 77.8056 1520.91 82.2823 1525.55 83.5847C1530.03 84.8056 1535 83.3405 1538.58 80.6544C1542.08 78.0498 1544.76 74.4684 1545.9 70.2358C1547.29 65.2707 1546.55 59.7358 1544.03 55.1777C1543.13 53.6312 1540.86 52.8986 1539.31 53.9567C1537.76 55.0149 1537.11 56.9684 1538.09 58.6777C1538.41 59.2474 1538.66 59.8172 1538.9 60.387C1538.82 60.1428 1538.66 59.8172 1538.58 59.573C1539.15 60.9567 1539.55 62.3405 1539.72 63.8056C1539.63 63.48 1539.63 63.1544 1539.55 62.9102C1539.72 64.294 1539.72 65.6777 1539.55 67.0614C1539.63 66.7358 1539.63 66.4102 1539.72 66.166C1539.55 67.5498 1539.15 68.9335 1538.58 70.2358C1538.66 69.9916 1538.82 69.666 1538.9 69.4219C1538.5 70.3172 1538.09 71.2126 1537.52 72.0265C1537.36 72.1893 1537.27 72.4335 1537.11 72.5963C1537.03 72.6777 1536.95 72.7591 1536.87 72.8405C1537.44 72.0265 1537.19 72.4335 1537.03 72.5963C1536.7 73.0033 1536.38 73.3288 1536.05 73.6544C1535.73 73.98 1535.4 74.3056 1535.08 74.6312C1534.99 74.7126 1534.83 74.794 1534.75 74.8753C1534.67 74.9567 1534.34 75.2009 1534.75 74.8753C1535.24 74.4684 1534.59 74.9567 1534.51 75.0381C1533.69 75.6079 1532.72 76.0963 1531.82 76.5033C1532.06 76.4219 1532.39 76.2591 1532.63 76.1777C1531.58 76.666 1530.44 76.9102 1529.22 77.073C1529.54 76.9916 1529.79 76.9916 1530.11 76.9102C1529.22 76.9916 1528.32 76.9916 1527.42 76.9102C1527.75 76.9916 1528.08 76.9916 1528.32 77.073C1527.59 76.9916 1526.94 76.7474 1526.29 76.5033C1526.53 76.5846 1526.86 76.7474 1527.1 76.8288C1526.69 76.666 1526.37 76.5033 1526.04 76.2591C1525.96 76.1777 1525.88 76.0963 1525.8 76.0963C1525.88 76.0963 1526.45 76.666 1526.12 76.3405C1525.96 76.1777 1525.8 76.0149 1525.63 75.8521C1525.47 75.6893 1525.31 75.5265 1525.23 75.3637C1524.98 75.0381 1525.72 76.0149 1525.47 75.6893C1525.39 75.6079 1525.31 75.5265 1525.31 75.4451C1525.06 75.0381 1524.82 74.6312 1524.66 74.1428C1524.74 74.387 1524.9 74.7126 1524.98 74.9567C1524.74 74.3056 1524.49 73.6544 1524.41 72.9219C1524.49 73.2474 1524.49 73.573 1524.58 73.8172C1524.49 73.166 1524.49 72.5149 1524.58 71.8637C1524.58 72.1893 1524.49 72.5149 1524.41 72.7591C1524.58 71.6195 1524.98 70.6428 1525.39 69.5847C1525.31 69.8288 1525.15 70.1544 1525.06 70.3986C1525.88 68.5265 1526.77 66.6544 1527.59 64.7823C1528.56 62.5033 1529.22 60.3056 1529.54 57.8637C1529.79 55.666 1529.54 53.3056 1528.81 51.1893C1528.16 49.3172 1527.18 47.6893 1526.04 46.1428C1525.06 44.7591 1523.84 43.3753 1523.19 41.8288C1523.27 42.073 1523.44 42.3986 1523.52 42.6428C1523.19 41.8288 1522.95 41.0149 1522.87 40.1195C1522.95 40.4451 1522.95 40.7707 1523.03 41.0149C1522.87 39.9567 1522.87 38.98 1523.03 37.9219C1522.95 38.2474 1522.95 38.4916 1522.87 38.8172C1523.03 37.5149 1523.44 36.2126 1523.92 34.9916C1523.84 35.2358 1523.68 35.5614 1523.6 35.8056C1524.09 34.666 1524.66 33.5265 1525.39 32.5498C1525.55 32.3056 1525.8 31.98 1525.96 31.7358C1525.15 32.794 1525.88 31.8986 1526.04 31.6544C1526.45 31.166 1526.94 30.6777 1527.42 30.1893C1527.91 29.7009 1528.4 29.294 1528.89 28.8056C1529.05 28.7242 1529.22 28.5614 1529.3 28.48C1529.13 28.6428 1528.97 28.7242 1528.81 28.887C1528.89 28.8056 1528.97 28.8056 1529.05 28.7242C1529.38 28.48 1529.62 28.3172 1529.95 28.073C1531.09 27.2591 1532.39 26.6079 1533.69 26.0381C1533.45 26.1195 1533.12 26.2823 1532.88 26.3637C1534.59 25.6312 1536.38 25.1428 1538.17 24.8986C1537.84 24.98 1537.52 24.98 1537.27 25.0614C1539.15 24.8172 1541.1 24.8172 1542.97 25.0614C1542.65 24.98 1542.32 24.98 1542.08 24.8986C1543.87 25.1428 1545.58 25.6312 1547.29 26.2823C1547.04 26.2009 1546.72 26.0381 1546.47 25.9567C1547.61 26.4451 1548.67 27.0149 1549.65 27.666C1549.89 27.8288 1550.14 27.9916 1550.38 28.2358C1550.87 28.5614 1549.81 27.8288 1550.14 28.073C1550.22 28.1544 1550.38 28.2358 1550.46 28.3172C1550.95 28.7242 1551.36 29.1312 1551.84 29.5381C1552.25 29.9451 1552.66 30.3521 1553.07 30.8405C1553.15 30.9219 1553.23 31.0847 1553.31 31.166C1552.58 30.3521 1552.98 30.7591 1553.15 31.0033C1553.31 31.2474 1553.47 31.4916 1553.64 31.6544C1554.29 32.7126 1554.94 33.7707 1555.34 34.9102C1555.26 34.666 1555.1 34.3405 1555.02 34.0963C1555.67 35.5614 1556.08 37.1079 1556.24 38.7358C1556.16 38.4102 1556.16 38.166 1556.08 37.8405C1556.4 40.4451 1556.32 43.0498 1556 45.6544C1556.08 45.3288 1556.08 45.0033 1556.16 44.7591C1556 46.0614 1555.75 47.3637 1555.51 48.666C1555.34 49.5614 1555.34 50.4567 1555.83 51.3521C1556.24 52.0847 1557.05 52.7358 1557.87 52.8986C1559.58 53.3056 1561.78 52.4102 1562.1 50.5381Z" fill="#212529"/>
<path d="M1531.01 113.294C1530.76 113.457 1530.76 113.457 1530.76 113.457C1530.76 113.457 1530.84 113.457 1530.84 113.375C1530.84 113.375 1530.93 113.294 1531.01 113.294Z" fill="#212529"/>
<path d="M1577.4 32.7942C1576.18 25.55 1573.25 18.7128 1568.69 12.9337C1564.3 7.31743 1556.65 2.18953 1549.57 0.8872C1518.39 -4.89187 1503.17 18.957 1496.17 32.0616C1494.78 34.5849 1493.16 36.9453 1493.24 38.4918C1493.48 41.9105 1501.46 40.9337 1504.23 35.4802C1510.74 22.7012 1516.03 14.5616 1529.3 8.94534C1531.74 7.9686 1534.43 7.48022 1537.11 7.07325C1539.96 6.74766 1542.89 6.74766 1545.74 7.07325C1547.94 7.39883 1550.14 7.9686 1552.25 8.78255C1553.64 9.43371 1555.02 10.1663 1556.4 10.9802C1557.14 11.3872 1557.79 11.8756 1558.44 12.3639C1558.6 12.4453 1558.68 12.5267 1558.85 12.6895C1559.17 12.9337 1559.5 13.2593 1559.82 13.5035C1561.04 14.643 1562.18 15.7825 1563.24 17.0849C1563.4 17.2477 1563.48 17.4105 1563.65 17.5732C1563.65 17.5732 1563.73 17.6546 1563.81 17.736C1563.89 17.8174 1563.89 17.8988 1563.97 17.8988C1564.14 18.0616 1564.22 18.2244 1564.38 18.4686C1564.87 19.1198 1565.36 19.8523 1565.76 20.5849C1566.66 22.05 1567.47 23.6779 1568.21 25.3058C1569.51 28.5616 1570.4 31.9802 1570.97 35.3988C1571.46 39.3058 1571.46 43.2942 1570.97 47.2825C1570.4 51.0267 1569.51 54.7709 1568.04 58.2709C1566.25 62.3407 1563.89 66.0849 1561.29 69.6663C1558.28 73.8988 1555.1 77.9686 1552.09 82.2012C1550.62 84.3174 1549.16 86.3523 1547.61 88.4686C1546.07 90.5849 1544.6 92.7012 1543.14 94.8988C1540.77 98.643 1538.82 102.631 1536.46 106.376C1535.81 107.434 1535.16 108.41 1534.43 109.469C1534.26 109.713 1534.1 109.957 1533.86 110.201C1533.94 110.12 1533.94 110.12 1534.02 110.038C1533.94 110.12 1533.86 110.201 1533.86 110.283C1533.77 110.364 1533.69 110.527 1533.69 110.527C1533.37 110.934 1533.04 111.341 1532.72 111.666C1532.39 112.073 1531.98 112.48 1531.58 112.806C1531.41 112.969 1531.25 113.131 1531.01 113.294C1531.09 113.294 1531.09 113.213 1531.17 113.131C1531.09 113.213 1531.01 113.294 1530.93 113.294C1530.84 113.376 1530.76 113.457 1530.68 113.457C1529.95 114.027 1529.05 114.434 1528.24 114.841C1527.18 115.248 1526.12 115.573 1524.98 115.736C1523.84 115.817 1522.7 115.817 1521.56 115.736C1520.51 115.573 1519.45 115.248 1518.47 114.922C1517.82 114.678 1517.25 114.352 1516.68 113.945C1516.52 113.864 1516.35 113.783 1516.27 113.62C1515.95 113.376 1515.7 113.05 1515.38 112.806C1515.22 112.643 1515.13 112.48 1514.97 112.317C1514.97 112.317 1514.89 112.236 1514.89 112.155C1514.65 111.829 1514.32 111.422 1514.32 111.341C1513.91 110.69 1513.59 110.12 1513.26 109.387C1513.18 109.062 1513.02 108.736 1512.94 108.41C1512.37 105.724 1514.16 102.387 1516.6 99.5384C1517.9 97.9918 1521.08 94.4918 1519.12 92.2128C1516.35 89.0384 1511.55 91.8058 1509.6 94.4105C1506.99 97.9919 1505.28 102.306 1505.69 106.864C1506.02 110.852 1507.81 114.841 1510.74 117.69C1516.6 123.387 1526.29 123.957 1533.12 119.887C1536.79 117.771 1539.39 114.352 1541.59 110.852C1543.7 107.597 1545.5 104.097 1547.45 100.678C1549.73 96.6895 1552.5 93.0267 1555.18 89.2825C1557.95 85.457 1560.64 81.6314 1563.48 77.8058C1566.09 74.3872 1568.61 70.8872 1570.81 67.2244C1573.01 63.5616 1574.72 59.736 1575.94 55.6663C1578.22 48.4221 1578.71 40.4453 1577.4 32.7942Z" fill="#212529"/>
<path d="M1533.94 110.201C1533.77 110.364 1533.77 110.445 1533.77 110.445L1533.86 110.364C1533.86 110.283 1533.86 110.283 1533.94 110.201Z" fill="#212529"/>
</svg>
